<svg width="124" height="24" viewBox="0 0 124 24" fill="none" xmlns="http://www.w3.org/2000/svg">
<path d="M11.44 17.52C12.38 17.4 13.28 17.11 14.1 16.65C16.13 15.51 17.29 13.58 17.39 11.18V10.96H20.22C20.05 9.53 19.49 8.23 18.7 7.11L15.82 8.95C16.69 10.33 16.81 11.83 16.13 13.35C15.36 15.19 13.52 16.76 11.44 17.51M20.27 11.39H17.83C17.66 13.81 16.4 15.87 14.32 17C13.13 17.65 11.78 17.99 10.4 17.99C9.34 17.99 8.25 17.8 7.21 17.41C8.47 18.18 9.87 18.62 11.32 18.62H11.34C13.95 18.62 16.32 17.24 17.65 14.89L17.77 14.7L19.39 15.74C19.97 14.6 20.29 13.34 20.29 11.99C20.29 11.8 20.27 11.6 20.27 11.39ZM11.34 19.06C8.7 19.06 6.24 17.75 4.49 15.53C5.82 18.34 8.68 20.3 11.99 20.3C15.06 20.3 17.75 18.63 19.18 16.14L17.9 15.34C16.47 17.66 14.05 19.07 11.34 19.07M11.99 20.74C7.18 20.74 3.26 16.84 3.26 12.01C3.26 7.18 7.16 3.27 12 3.27C16.84 3.27 20.73 7.17 20.73 12C20.73 16.83 16.81 20.73 12 20.73M12 0C5.37 0 0 5.37 0 12C0 18.63 5.37 24 12 24C18.63 24 24 18.63 24 12C24 5.37 18.63 0 12 0Z" fill="#EB1F1F"/>
<path d="M38.32 9.12604C38.068 8.81404 37.744 8.56204 37.348 8.37004C36.952 8.17804 36.556 8.09404 36.184 8.09404C35.992 8.09404 35.8 8.10604 35.596 8.14204C35.392 8.17804 35.224 8.23804 35.056 8.33404C34.888 8.43004 34.768 8.55004 34.66 8.70604C34.552 8.86204 34.504 9.05404 34.504 9.29404C34.504 9.49804 34.552 9.66604 34.636 9.79804C34.72 9.93004 34.84 10.05 35.008 10.158C35.176 10.254 35.368 10.35 35.596 10.434C35.824 10.518 36.076 10.602 36.364 10.698C36.772 10.83 37.192 10.986 37.636 11.154C38.08 11.322 38.476 11.538 38.836 11.802C39.196 12.078 39.496 12.414 39.736 12.81C39.976 13.206 40.096 13.71 40.096 14.31C40.096 14.994 39.964 15.594 39.712 16.098C39.46 16.602 39.112 17.01 38.692 17.346C38.26 17.67 37.768 17.922 37.216 18.078C36.664 18.234 36.088 18.318 35.5 18.318C34.636 18.318 33.808 18.174 33.004 17.874C32.2 17.574 31.54 17.154 31 16.59L32.896 14.658C33.184 15.018 33.58 15.318 34.06 15.57C34.54 15.822 35.02 15.93 35.488 15.93C35.704 15.93 35.908 15.906 36.112 15.858C36.316 15.81 36.496 15.738 36.64 15.642C36.784 15.546 36.916 15.402 37 15.234C37.096 15.066 37.132 14.862 37.132 14.622C37.132 14.394 37.072 14.202 36.964 14.046C36.856 13.89 36.688 13.746 36.484 13.614C36.28 13.482 36.016 13.362 35.704 13.254C35.392 13.146 35.044 13.026 34.648 12.906C34.264 12.786 33.892 12.63 33.52 12.462C33.148 12.294 32.824 12.078 32.536 11.814C32.248 11.55 32.02 11.226 31.84 10.842C31.66 10.458 31.576 10.002 31.576 9.46204C31.576 8.80204 31.708 8.22604 31.984 7.74604C32.26 7.26604 32.608 6.88204 33.052 6.58204C33.496 6.28204 33.988 6.05404 34.54 5.91004C35.092 5.76604 35.656 5.69404 36.22 5.69404C36.892 5.69404 37.588 5.81404 38.296 6.06604C39.004 6.31804 39.616 6.67804 40.156 7.17004L38.308 9.11404L38.32 9.12604ZM43.444 18.006V6.00604H46.36V18.006H43.444ZM55.408 8.47804V18.006H52.504V8.47804H49.12V6.00604H58.792V8.47804H55.396H55.408ZM61.564 18.006V6.00604H69.628V8.44204H64.36V10.71H69.34V13.026H64.36V15.522H69.94V17.994H61.564V18.006ZM81.892 17.79C81.112 18.15 80.212 18.33 79.192 18.33C78.268 18.33 77.404 18.174 76.624 17.874C75.844 17.574 75.16 17.142 74.584 16.578C74.008 16.014 73.552 15.354 73.228 14.574C72.904 13.794 72.736 12.93 72.736 11.994C72.736 11.058 72.904 10.158 73.24 9.39004C73.576 8.62204 74.032 7.95004 74.62 7.39804C75.208 6.84604 75.892 6.42604 76.684 6.13804C77.476 5.85004 78.328 5.69404 79.24 5.69404C80.092 5.69404 80.92 5.83804 81.736 6.13804C82.552 6.43804 83.224 6.88204 83.728 7.44604L81.76 9.41404C81.484 9.04204 81.136 8.76604 80.692 8.58604C80.248 8.40604 79.804 8.31004 79.336 8.31004C78.832 8.31004 78.364 8.40604 77.932 8.58604C77.512 8.77804 77.14 9.03004 76.84 9.35404C76.54 9.67804 76.3 10.074 76.132 10.518C75.964 10.962 75.88 11.454 75.88 11.982C75.88 12.51 75.964 13.026 76.132 13.47C76.3 13.926 76.54 14.31 76.84 14.634C77.14 14.958 77.5 15.21 77.92 15.39C78.34 15.57 78.796 15.666 79.288 15.666C79.864 15.666 80.368 15.558 80.8 15.33C81.232 15.102 81.58 14.814 81.832 14.454L83.848 16.35C83.32 16.962 82.66 17.442 81.88 17.802L81.892 17.79ZM98.836 11.946C98.836 12.894 98.668 13.758 98.344 14.55C98.02 15.33 97.564 16.002 96.976 16.566C96.388 17.13 95.704 17.562 94.9 17.862C94.096 18.162 93.232 18.318 92.284 18.318C91.336 18.318 90.484 18.162 89.68 17.862C88.888 17.562 88.192 17.13 87.616 16.566C87.028 16.002 86.584 15.33 86.248 14.55C85.924 13.77 85.756 12.894 85.756 11.946C85.756 10.998 85.924 10.122 86.248 9.34204C86.572 8.57404 87.028 7.91404 87.616 7.36204C88.192 6.82204 88.888 6.40204 89.68 6.11404C90.472 5.82604 91.348 5.67004 92.284 5.67004C93.22 5.67004 94.096 5.81404 94.9 6.11404C95.704 6.41404 96.4 6.82204 96.976 7.36204C97.552 7.90204 98.008 8.56204 98.344 9.34204C98.668 10.122 98.836 10.986 98.836 11.946ZM95.74 11.946C95.74 11.43 95.656 10.938 95.488 10.494C95.32 10.038 95.08 9.65404 94.78 9.33004C94.48 9.00604 94.12 8.75404 93.7 8.56204C93.28 8.37004 92.812 8.28604 92.296 8.28604C91.78 8.28604 91.324 8.38204 90.904 8.56204C90.484 8.75404 90.124 9.00604 89.824 9.33004C89.524 9.65404 89.284 10.038 89.116 10.494C88.948 10.95 88.876 11.43 88.876 11.946C88.876 12.462 88.96 12.99 89.128 13.446C89.296 13.902 89.536 14.298 89.836 14.622C90.136 14.946 90.496 15.21 90.916 15.39C91.336 15.582 91.792 15.666 92.308 15.666C92.824 15.666 93.28 15.57 93.7 15.39C94.12 15.198 94.48 14.946 94.78 14.622C95.08 14.298 95.32 13.902 95.488 13.446C95.656 12.99 95.74 12.486 95.74 11.946V11.946ZM108.616 17.994L106.012 13.23H105.028V17.994H102.196V6.00604H106.768C107.344 6.00604 107.908 6.06604 108.46 6.18604C109.012 6.30604 109.504 6.51004 109.936 6.78604C110.368 7.07404 110.716 7.44604 110.98 7.90204C111.244 8.37004 111.364 8.94604 111.364 9.63004C111.364 10.446 111.148 11.13 110.704 11.682C110.26 12.234 109.648 12.63 108.868 12.87L112 18.006H108.616V17.994ZM108.496 9.66604C108.496 9.39004 108.436 9.15004 108.316 8.98204C108.196 8.80204 108.04 8.67004 107.86 8.57404C107.68 8.47804 107.464 8.41804 107.236 8.38204C107.008 8.34604 106.78 8.33404 106.564 8.33404H105.016V11.13H106.396C106.636 11.13 106.876 11.106 107.128 11.07C107.38 11.034 107.608 10.962 107.812 10.854C108.016 10.746 108.184 10.602 108.316 10.41C108.448 10.218 108.508 9.96604 108.508 9.66604H108.496ZM114.868 17.994V6.00604H122.932V8.44204H117.664V10.71H122.644V13.026H117.664V15.522H123.244V17.994H114.868Z" fill="black"/>
</svg>
