<?xml version="1.0" encoding="UTF-8"?>
<svg xmlns="http://www.w3.org/2000/svg" xmlns:xlink="http://www.w3.org/1999/xlink" viewBox="0 0 38.33 38.33">
  <defs>
    <linearGradient id="linear-gradient" x1="19.16" y1="33.98" x2="19.16" y2="4.35" gradientUnits="userSpaceOnUse">
      <stop offset="0" stop-color="#8691a8"/>
      <stop offset="1" stop-color="#5c5a7c"/>
    </linearGradient>
    <linearGradient id="linear-gradient-2" x1="0" y1="9.58" x2="19.16" y2="9.58" gradientUnits="userSpaceOnUse">
      <stop offset="0" stop-color="#565e7b"/>
      <stop offset="1" stop-color="#9ca7c6"/>
    </linearGradient>
    <linearGradient id="linear-gradient-3" x1="16.33" y1="2.17" x2="22.42" y2="2.17" gradientUnits="userSpaceOnUse">
      <stop offset="0" stop-color="#c1cfe4"/>
      <stop offset="1" stop-color="#7d8693"/>
    </linearGradient>
    <linearGradient id="linear-gradient-4" x1="2.17" y1="19.16" x2="2.17" y2="16.32" xlink:href="#linear-gradient-3"/>
    <linearGradient id="linear-gradient-5" x1="19.16" y1="9.58" x2="38.33" y2="9.58" gradientUnits="userSpaceOnUse">
      <stop offset="0" stop-color="#9ca7c6"/>
      <stop offset="1" stop-color="#565e7b"/>
    </linearGradient>
    <linearGradient id="linear-gradient-6" x1="19.16" y1="2.17" x2="22" y2="2.17" gradientUnits="userSpaceOnUse">
      <stop offset="0" stop-color="#5c5e73"/>
      <stop offset="1" stop-color="#5c5a7c"/>
    </linearGradient>
    <linearGradient id="linear-gradient-7" x1="36.15" y1="19.16" x2="36.15" y2="16.32" xlink:href="#linear-gradient-3"/>
    <linearGradient id="linear-gradient-8" x1="0" y1="28.74" x2="19.16" y2="28.74" xlink:href="#linear-gradient-6"/>
    <linearGradient id="linear-gradient-9" x1="16.33" y1="36.15" x2="19.16" y2="36.15" gradientUnits="userSpaceOnUse">
      <stop offset="0" stop-color="#5c5a7c"/>
      <stop offset="1" stop-color="#72738e"/>
    </linearGradient>
    <linearGradient id="linear-gradient-10" x1="0" y1="20.58" x2="4.35" y2="20.58" gradientUnits="userSpaceOnUse">
      <stop offset="0" stop-color="#48465e"/>
      <stop offset="1" stop-color="#4c4f61"/>
    </linearGradient>
    <linearGradient id="linear-gradient-11" x1="19.16" y1="28.74" x2="38.33" y2="28.74" xlink:href="#linear-gradient-10"/>
    <linearGradient id="linear-gradient-12" x1="19.16" y1="36.15" x2="22" y2="36.15" gradientUnits="userSpaceOnUse">
      <stop offset="0" stop-color="#5f6178"/>
      <stop offset="1" stop-color="#48465e"/>
    </linearGradient>
    <linearGradient id="linear-gradient-13" x1="33.98" x2="38.33" xlink:href="#linear-gradient-10"/>
    <radialGradient id="radial-gradient" cx="14.82" cy="15.46" fx="14.82" fy="15.46" r="18.51" gradientUnits="userSpaceOnUse">
      <stop offset="0" stop-color="#53a55c"/>
      <stop offset=".03" stop-color="#509e5b"/>
      <stop offset=".28" stop-color="#3b6f54"/>
      <stop offset=".47" stop-color="#2e5150"/>
      <stop offset=".58" stop-color="#2a474f"/>
      <stop offset=".71" stop-color="#274248"/>
      <stop offset=".89" stop-color="#213637"/>
      <stop offset="1" stop-color="#1c2d2a"/>
    </radialGradient>
    <radialGradient id="radial-gradient-2" cx="10.6" cy="9.6" fx="10.6" fy="9.6" r="22.53" gradientUnits="userSpaceOnUse">
      <stop offset="0" stop-color="#5c8b40"/>
      <stop offset="1" stop-color="#010101"/>
    </radialGradient>
    <radialGradient id="radial-gradient-3" cx="5.84" cy="4.95" fx="5.84" fy="4.95" r="22.24" gradientUnits="userSpaceOnUse">
      <stop offset="0" stop-color="#5b8b49"/>
      <stop offset="1" stop-color="#010101"/>
    </radialGradient>
    <radialGradient id="radial-gradient-4" cx="19.91" cy="16.83" fx="19.91" fy="16.83" r="21.36" gradientUnits="userSpaceOnUse">
      <stop offset="0" stop-color="#518d8b"/>
      <stop offset="1" stop-color="#010101"/>
    </radialGradient>
  </defs>
  <g fill="none" isolation="isolate">
    <g id="Layer_1" data-name="Layer 1">
      <g>
        <path d="m19.16,4.35c8.18,0,14.81,6.63,14.81,14.81s-6.63,14.81-14.81,14.81-14.81-6.63-14.81-14.81,6.63-14.81,14.81-14.81h0Z" fill="url(#linear-gradient)" fill-rule="evenodd"/>
        <path d="m4.35,19.16c0-8.18,6.63-14.81,14.81-14.81V0c-.79.47-1.87,1.19-2.84,2.04-.45.2-.93.38-1.42.5-.48.12-.51.75-.98.92-.67.24-1.78.03-2.41.34-1.67.83-3.18,1.93-4.48,3.23-2.14,2.14-3.72,4.85-4.49,7.87-.13.49-.3.97-.5,1.42-.91,1.01-1.67,2.1-2.04,2.84h4.35Z" fill="url(#linear-gradient-2)" fill-rule="evenodd"/>
        <path d="m16.33,2.04l2.84,2.31V0c-.79.47-1.87,1.19-2.84,2.04h0Z" fill="url(#linear-gradient-3)" fill-rule="evenodd"/>
        <path d="m4.35,19.16l-2.31-2.84c-.91,1.01-1.67,2.1-2.04,2.84h4.35Z" fill="url(#linear-gradient-4)" fill-rule="evenodd"/>
        <path d="m33.98,19.16c0-8.18-6.63-14.81-14.81-14.81V0c.79.47,1.87,1.19,2.84,2.04.45.2.93.38,1.42.5,3.03.77,5.73,2.35,7.87,4.49.72.72,1.37,1.5,1.96,2.34.44,2.43,1.72,5.09,3.04,6.95.92,1.01,1.67,2.1,2.04,2.84h-4.35Z" fill="url(#linear-gradient-5)" fill-rule="evenodd"/>
        <path d="m22,2.04l-2.84,2.31V0c.79.47,1.87,1.19,2.84,2.04h0Z" fill="url(#linear-gradient-6)" fill-rule="evenodd"/>
        <path d="m33.98,19.16l2.31-2.84c.92,1.01,1.67,2.1,2.04,2.84h-4.35Z" fill="url(#linear-gradient-7)" fill-rule="evenodd"/>
        <path d="m4.35,19.16c0,8.18,6.63,14.81,14.81,14.81v4.35c-.79-.47-1.87-1.19-2.84-2.04-.45-.2-.93-.38-1.42-.5-2.54-.65-4.85-1.86-6.79-3.5-.18-.15.14-.94.04-1.02-.19-.16-.95.2-1.13.03-1.74-1.74-3.11-3.86-3.98-6.22.5-1.38-.12-2.57-1.02-3.07-.91-1.01-1.67-2.1-2.04-2.84h4.35Z" fill="url(#linear-gradient-8)" fill-rule="evenodd"/>
        <path d="m16.33,36.29l2.84-2.31v4.35c-.79-.47-1.87-1.19-2.84-2.04h0Z" fill="url(#linear-gradient-9)" fill-rule="evenodd"/>
        <path d="m4.35,19.16l-2.31,2.84c-.91-1.01-1.67-2.1-2.04-2.84h4.35Z" fill="url(#linear-gradient-10)" fill-rule="evenodd"/>
        <path d="m33.98,19.16c0,8.18-6.63,14.81-14.81,14.81v4.35c.79-.47,1.87-1.19,2.84-2.04.45-.2.93-.38,1.42-.5,3.03-.77,5.73-2.35,7.87-4.49,2.14-2.14,3.72-4.85,4.49-7.87.13-.49.3-.97.5-1.42.92-1.01,1.67-2.1,2.04-2.84h-4.35Z" fill="url(#linear-gradient-11)" fill-rule="evenodd"/>
        <path d="m22,36.29l-2.84-2.31v4.35c.79-.47,1.87-1.19,2.84-2.04h0Z" fill="url(#linear-gradient-12)" fill-rule="evenodd"/>
        <path d="m33.98,19.16l2.31,2.84c.92-1.01,1.67-2.1,2.04-2.84h-4.35Z" fill="url(#linear-gradient-13)" fill-rule="evenodd"/>
        <path d="m3.44,18.05l-2.71,1.12h3.61c0-8.18,6.63-14.81,14.81-14.81V.58l-1.08,2.9c-7.64,1.73-12.89,6.38-14.65,14.57h0Z" fill="#b2e1e9" fill-rule="evenodd"/>
        <path d="m29.27,29.27c-4.91,4.91-12.37,5.7-18.1,2.37,2.3,1.48,5.05,2.34,7.99,2.34,3.23,0,6.21-1.03,8.64-2.78.48-.1.84-.12.89-.2.1-.13.07-.34.1-.58.71-.61,1.37-1.29,1.96-2.03.14-.18,1.79.2,1.93.02.1-.14-1.31-.85-1.21-1,1.58-2.36,2.5-5.19,2.5-8.24s-.86-5.68-2.34-7.99c3.33,5.73,2.53,13.19-2.37,18.1h0Z" fill="#8dbcc7" fill-rule="evenodd"/>
      </g>
      <g id="Active">
        <path d="m19.16,5.6c7.49,0,13.57,6.07,13.57,13.57s-6.07,13.57-13.57,13.57-13.57-6.07-13.57-13.57,6.07-13.57,13.57-13.57h0Z" fill="url(#radial-gradient)" fill-rule="evenodd"/>
        <path d="m17.65,7.37c5.72,0,10.36,4.64,10.36,10.36s-4.64,10.36-10.36,10.36-10.36-4.64-10.36-10.36,4.64-10.36,10.36-10.36h0Z" fill="url(#radial-gradient-2)" fill-rule="evenodd" mix-blend-mode="screen"/>
        <path d="m11.39,11.05c3.04-3.04,7.39-3.62,9.71-1.3,2.32,2.32,1.74,6.67-1.3,9.71-3.04,3.04-7.39,3.62-9.71,1.3-2.32-2.32-1.74-6.67,1.3-9.71h0Z" fill="url(#radial-gradient-3)" fill-rule="evenodd" mix-blend-mode="screen"/>
        <path d="m25.29,8.19c3.5,2.21,5.83,6.12,5.83,10.57,0,6.9-5.59,12.49-12.49,12.49-1.87,0-3.65-.41-5.25-1.15.96.23,1.97.35,3.01.35,7.13,0,12.91-5.78,12.91-12.91,0-3.68-1.54-7-4.01-9.35h0Z" fill="url(#radial-gradient-4)" fill-rule="evenodd" mix-blend-mode="screen" opacity=".5"/>
      </g>
    </g>
  </g>
</svg>
