<?xml version="1.0" encoding="UTF-8"?>
<svg id="Layer_1" data-name="Layer 1" xmlns="http://www.w3.org/2000/svg" xmlns:xlink="http://www.w3.org/1999/xlink" viewBox="0 0 595.53 285.72">
  <defs>
    <radialGradient id="radial-gradient" cx="208.21" cy="140.22" fx="208.21" fy="140.22" r="202.87" gradientTransform="translate(-13.42 6.6) scale(1.49 .96)" gradientUnits="userSpaceOnUse">
      <stop offset="0" stop-color="#313a46"/>
      <stop offset="1" stop-color="#272c3d"/>
    </radialGradient>
    <radialGradient id="radial-gradient-2" cx="208.21" cy="10.52" fx="208.21" fy="10.52" r="121.98" gradientTransform="translate(-13.42) scale(1.49 1)" gradientUnits="userSpaceOnUse">
      <stop offset="0" stop-color="#c1cfe4"/>
      <stop offset="1" stop-color="#7d8693"/>
    </radialGradient>
    <radialGradient id="radial-gradient-3" cx="208.21" cy="17.46" fx="208.21" fy="17.46" r="116.44" gradientTransform="translate(-13.42) scale(1.49 1)" gradientUnits="userSpaceOnUse">
      <stop offset="0" stop-color="#696c84"/>
      <stop offset="1" stop-color="#5c5a7c"/>
    </radialGradient>
    <radialGradient id="New_Gradient_Swatch_121" data-name="New Gradient Swatch 121" cx="208.21" cy="280.74" fx="208.21" fy="280.74" r="118.17" gradientTransform="translate(-13.42) scale(1.49 1)" gradientUnits="userSpaceOnUse">
      <stop offset="0" stop-color="#4c4f61"/>
      <stop offset="1" stop-color="#48465e"/>
    </radialGradient>
    <linearGradient id="linear-gradient" x1="12.54" y1="30.74" x2="53.83" y2="30.74" gradientUnits="userSpaceOnUse">
      <stop offset="0" stop-color="#565e7b"/>
      <stop offset="1" stop-color="#9ca7c6"/>
    </linearGradient>
    <linearGradient id="linear-gradient-2" x1="22.7" y1="36.38" x2="61.51" y2="36.38" gradientUnits="userSpaceOnUse">
      <stop offset="0" stop-color="#48465e"/>
      <stop offset="1" stop-color="#4c4f61"/>
    </linearGradient>
    <linearGradient id="New_Gradient_Swatch_126" data-name="New Gradient Swatch 126" x1="19.99" y1="261.03" x2="19.99" y2="41.26" gradientUnits="userSpaceOnUse">
      <stop offset="0" stop-color="#7d8693"/>
      <stop offset="1" stop-color="#a3afc2"/>
    </linearGradient>
    <linearGradient id="linear-gradient-3" x1="30.03" y1="255.02" x2="30.03" y2="47.05" gradientUnits="userSpaceOnUse">
      <stop offset="0" stop-color="#696c84"/>
      <stop offset="1" stop-color="#5c5a7c"/>
    </linearGradient>
    <linearGradient id="linear-gradient-4" x1="17.56" y1="268.62" x2="57.45" y2="268.62" xlink:href="#linear-gradient-2"/>
    <linearGradient id="New_Gradient_Swatch_126-2" data-name="New Gradient Swatch 126" x1="27.44" y1="262.95" x2="65.8" y2="262.95" xlink:href="#New_Gradient_Swatch_126"/>
    <linearGradient id="linear-gradient-5" x1="543.32" y1="30.74" x2="582.96" y2="30.74" gradientUnits="userSpaceOnUse">
      <stop offset="0" stop-color="#9ca7c6"/>
      <stop offset="1" stop-color="#565e7b"/>
    </linearGradient>
    <linearGradient id="linear-gradient-6" x1="534.49" y1="36.39" x2="572.8" y2="36.39" gradientUnits="userSpaceOnUse">
      <stop offset="0" stop-color="#4c4f61"/>
      <stop offset="1" stop-color="#48465e"/>
    </linearGradient>
    <linearGradient id="linear-gradient-7" x1="575.48" y1="260.76" x2="575.48" y2="41.26" xlink:href="#linear-gradient-3"/>
    <linearGradient id="New_Gradient_Swatch_126-3" data-name="New Gradient Swatch 126" x1="565.45" y1="254.76" x2="565.45" y2="47.05" xlink:href="#New_Gradient_Swatch_126"/>
    <linearGradient id="linear-gradient-8" x1="538.05" y1="268.49" x2="577.88" y2="268.49" xlink:href="#linear-gradient-2"/>
    <linearGradient id="linear-gradient-9" x1="530.52" y1="262.81" x2="568" y2="262.81" gradientUnits="userSpaceOnUse">
      <stop offset="0" stop-color="#a3afc2"/>
      <stop offset="1" stop-color="#7d8693"/>
    </linearGradient>
    <linearGradient id="linear-gradient-10" x1="0" y1="145.65" x2="24.92" y2="145.65" gradientUnits="userSpaceOnUse">
      <stop offset="0" stop-color="#a9b7c9"/>
      <stop offset="1" stop-color="#707983"/>
    </linearGradient>
    <linearGradient id="linear-gradient-11" x1="24.92" y1="145.35" x2="50.38" y2="145.35" xlink:href="#linear-gradient-5"/>
    <linearGradient id="linear-gradient-12" x1="25.46" y1="159.6" x2="50.38" y2="159.6" xlink:href="#linear-gradient-2"/>
    <linearGradient id="linear-gradient-13" x1="0" y1="159.85" x2="25.46" y2="159.85" gradientUnits="userSpaceOnUse">
      <stop offset="0" stop-color="#5c5e73"/>
      <stop offset="1" stop-color="#5c5a7c"/>
    </linearGradient>
    <linearGradient id="linear-gradient-14" x1="570.61" y1="145.61" x2="595.53" y2="145.61" xlink:href="#linear-gradient-5"/>
    <linearGradient id="linear-gradient-15" x1="545.15" y1="145.31" x2="570.61" y2="145.31" xlink:href="#linear-gradient-10"/>
    <linearGradient id="linear-gradient-16" x1="545.15" y1="159.55" x2="570.07" y2="159.55" xlink:href="#linear-gradient-13"/>
    <linearGradient id="linear-gradient-17" x1="570.07" y1="159.83" x2="595.53" y2="159.83" xlink:href="#linear-gradient-2"/>
    <linearGradient id="linear-gradient-18" x1="28.53" y1="155.96" x2="21.85" y2="149.28" gradientUnits="userSpaceOnUse">
      <stop offset="0" stop-color="#497959"/>
      <stop offset="1" stop-color="#80caa8"/>
    </linearGradient>
    <linearGradient id="linear-gradient-19" x1="14.4" y1="157.77" x2="25.46" y2="157.77" gradientUnits="userSpaceOnUse">
      <stop offset="0" stop-color="#70a585"/>
      <stop offset="1" stop-color="#365f40"/>
    </linearGradient>
    <linearGradient id="linear-gradient-20" x1="14.39" y1="147.55" x2="25.02" y2="147.55" gradientUnits="userSpaceOnUse">
      <stop offset="0" stop-color="#70a585"/>
      <stop offset="1" stop-color="#a8dac9"/>
    </linearGradient>
    <linearGradient id="linear-gradient-21" x1="24.92" y1="147.46" x2="36.05" y2="147.46" xlink:href="#linear-gradient-19"/>
    <linearGradient id="linear-gradient-22" x1="25.36" y1="157.67" x2="36.04" y2="157.67" xlink:href="#linear-gradient-20"/>
    <linearGradient id="linear-gradient-23" x1="573.76" y1="155.99" x2="566.92" y2="149.16" xlink:href="#linear-gradient-18"/>
    <linearGradient id="linear-gradient-24" x1="570.07" y1="157.73" x2="581.19" y2="157.73" xlink:href="#linear-gradient-20"/>
    <linearGradient id="linear-gradient-25" x1="570.5" y1="147.52" x2="581.19" y2="147.52" xlink:href="#linear-gradient-19"/>
    <linearGradient id="linear-gradient-26" x1="559.48" y1="147.42" x2="570.61" y2="147.42" xlink:href="#linear-gradient-20"/>
    <linearGradient id="linear-gradient-27" x1="559.48" y1="157.63" x2="570.17" y2="157.63" xlink:href="#linear-gradient-19"/>
    <radialGradient id="radial-gradient-4" cx="208.21" cy="274.15" fx="208.21" fy="274.15" r="194.85" gradientTransform="translate(-13.42) scale(1.49 1)" gradientUnits="userSpaceOnUse">
      <stop offset="0" stop-color="#a3afc2"/>
      <stop offset="1" stop-color="#7d8693"/>
    </radialGradient>
  </defs>
  <path d="m24.58,47.44l4.99,202.99c6.85,1.1,13,3.42,18.12,6.88,5.06,3.43,8.34,7.44,9.72,11.83,79.99,1.98,160.33,2.53,240.35,2.53s160.36-.54,240.35-2.53c1.38-4.39,4.66-8.41,9.72-11.83,5.12-3.46,11.27-5.79,18.12-6.88l4.99-202.99c-8.3-1.5-15.45-4.79-20.62-9.57-4.48-4.15-6.8-8.82-6.87-13.6-42.37-.59-85.41-4.25-127.34-7.36-39.07-2.9-78.99-5.82-118.35-5.82s-79.27,2.92-118.35,5.82c-41.93,3.12-84.98,6.77-127.34,7.36-.07,4.78-2.39,9.46-6.87,13.6-5.17,4.78-12.32,8.07-20.62,9.57h0Z" fill="url(#radial-gradient)" fill-rule="evenodd"/>
  <path d="m52.11,21.05c42.36-.62,85.4-4.42,127.32-7.66,39.07-3.02,78.97-6.05,118.32-6.05s79.26,3.03,118.32,6.05c41.92,3.24,84.96,7.04,127.32,7.66l11.7-6.62c-1.86-.21-6.96-.06-7.82.11-2.05.42-11.14,2.3-14.79,2.27-3.95-.04-13.78-1.88-16.27-3.32-63.61-2.81-134.88-11.06-198.66-12.61-1.89,1.19-4.61,1.87-5.89,1.85-.4,0-2.02-.93-3.14-2.03-1.4-.86-7.15-.99-10.78-.08-10.05,2.53-41.64,4.44-55,1.67-39.47,2.13-80.63,5.88-120.26,8.65.35,4.28-2.24,4.46-7.77.53-3.48,1.05-10.44,1.65-15.36.97-1.9,2.67-6.25,2.43-11.87.65-16.22.82-31.99,1.33-47.08,1.33l11.7,6.62h0Z" fill="url(#radial-gradient-2)" fill-rule="evenodd"/>
  <path d="m179.43,13.39c-41.92,3.24-84.96,7.04-127.32,7.66l8.91,6.54c78.97-1.87,157.74-13.55,236.73-13.55s157.77,11.68,236.73,13.55l8.91-6.54c-42.36-.62-85.4-4.42-127.32-7.66-39.07-3.02-78.97-6.05-118.32-6.05s-79.26,3.03-118.32,6.05h0Z" fill="url(#radial-gradient-3)" fill-rule="evenodd"/>
  <path d="m538.05,275.76c-79.97,2.06-160.3,2.63-240.3,2.63s-160.33-.56-240.3-2.63l-9.35,6.46c15.1.41,31.4.79,48.71,1.12,2.22.04,7-1.45,9.2-1.42,2.4.04,2.22,1.63,4.6,1.67,28.7.5,59.93.89,93,1.14,2.29.02,2.64-2.09,4.95-2.08,1.94.01,5.83,2.16,7.78,2.17,3.49.02,7,.05,10.52.06,2.35.01,1.88-1.57,4.24-1.56,1.7,0,6.26,1.48,7.96,1.62,8.4.7,28.36.79,31.74.76,2.78-.02,17.98-.62,26.95-.62,96.49,0,184.25-1.09,249.65-2.87l-9.35-6.46h0Z" fill="url(#New_Gradient_Swatch_121)" fill-rule="evenodd"/>
  <path d="m44.98,36.45c5.29-5.09,9.34-9.53,8.79-15.42l-13.37-6.6c3.33,6.3,2.05,12.71-3.65,18.2-5.7,5.49-14.23,8.53-24.22,8.63l10.16,5.79c8.98-1.6,16.72-5.24,22.29-10.6h0Z" fill="url(#linear-gradient)" fill-rule="evenodd"/>
  <path d="m53.78,21.03c.55,5.89-3.5,10.33-8.79,15.42-5.57,5.36-13.3,9-22.29,10.6l10.14,4.68c8.06-2.43,21.06-9.87,24.27-12.76,2.99-4.15,3.74-7.39,4.41-11.37l-7.74-6.58h0Z" fill="url(#linear-gradient-2)" fill-rule="evenodd"/>
  <path d="m27.44,255.02l-4.75-207.97-10.16-5.79c3.13,12.93,1.84,26.8.91,38.43-.17,2.09,4.03,2.06,3.86,4.15-.24,2.95-3.61,6.68-3.51,10.65l1.81,76.8c.02.8,3.67,3.17,3.55,3.73-.39,1.75-3.36,4.05-3.31,6.21l1.72,79.8,9.88-6h0Z" fill="url(#New_Gradient_Swatch_126)" fill-rule="evenodd"/>
  <path d="m22.7,47.05l4.75,207.97,9.91-4.89-2.49-111.92c-.92-2.99-1-7.03-.24-10.96-.03-1.34-2.63-3.81-2.66-5.15-.03-1.23,2.5-1.34,2.48-2.57-.27-11.45-.54-22.89-.81-34.34-.26-11.15-4.42-22.43-.79-33.46l-10.14-4.68h0Z" fill="url(#linear-gradient-3)" fill-rule="evenodd"/>
  <path d="m47.1,262.66c-5.53-3.9-12.21-6.48-19.65-7.64l-9.88,6c7.3-.09,12.38.49,18.38,4.72,6,4.23,11.85,10.65,12.16,16.47l9.35-6.46c-1.42-4.89-4.94-9.28-10.35-13.09h0Z" fill="url(#linear-gradient-4)" fill-rule="evenodd"/>
  <path d="m27.44,255.02c7.44,1.16,14.12,3.74,19.65,7.64,5.41,3.81,8.93,8.2,10.35,13.09l8.36-6.5c-.08-2-2.22-5.2-2.81-5.89-2.85-3.35-8.96-6.36-14.87-8.85-.87-.37-3.24-.31-4.09-.66-.93-.38-.34-1.15-1.21-1.5-2.07-.82-3.96-1.57-5.47-2.22l-9.91,4.89h0Z" fill="url(#New_Gradient_Swatch_126-2)" fill-rule="evenodd"/>
  <path d="m19.78,259.68l4.59-5.68-.12-21.07c0-1.1-3.02-1.85-3.02-2.96,0-1.18,2.99-2.72,2.99-3.9l-.1-84.01-5.57-2.2,5.08,1.04.4-35.56,1.85,81.17c.02.85,6.62,5.01,6.63,5.86.02.97-6.53-1.35-6.51-.38l1.44,63.05-7.67,4.66h0Z" fill="#8dbcc7" fill-rule="evenodd"/>
  <path d="m22.91,45.5l-8.15-2.98,7.94,4.53c8.98-1.6,16.72-5.24,22.29-10.6,1.97-1.9,3.55-3.9,4.72-5.96-3.86,4.99-9.35,9.29-16.15,12.09-.39.16-5.86-.9-6.26-.75-.47.18,4.15,1.56,3.67,1.72-2.53.86-5.22,1.52-8.06,1.95h0Z" fill="#b2e1e9" fill-rule="evenodd"/>
  <path d="m550.52,36.45c-5.29-5.09-7.67-9.51-7.13-15.4l11.7-6.63c-3.33,6.3-2.05,12.71,3.65,18.2,5.7,5.49,14.23,8.53,24.22,8.63l-10.16,5.79c-8.98-1.6-16.72-5.24-22.29-10.6h0Z" fill="url(#linear-gradient-5)" fill-rule="evenodd"/>
  <path d="m543.39,21.05c-.55,5.89,1.84,10.31,7.13,15.4,5.57,5.36,13.3,9,22.29,10.6l-10.14,4.68c.32-2.25-1.9-3.85-7.54-2.03-4.42-1.54-8.34-3.5-9.83-5.04-4.89-4.71-7.24-12.1-10.8-17.04l8.9-6.57h0Z" fill="url(#linear-gradient-6)" fill-rule="evenodd"/>
  <path d="m568,254.76l4.81-207.71,10.16-5.79-1.36,57.57c-2.87,3.63-2.36,5.51-.26,10.88l-2.72,119.29c-.04,1.85-2.56,1.81-2.61,3.67-.06,2.44,2.36,6.78,2.3,9.23l-.45,18.87-9.88-6h0Z" fill="url(#linear-gradient-7)" fill-rule="evenodd"/>
  <path d="m572.8,47.05l-4.81,207.71-9.91-4.89,3.5-152.28c2.56-4.06,2.64-7.49.24-10.29,1.87-11.03,3.21-23.47.84-35.56l10.14-4.68h0Z" fill="url(#New_Gradient_Swatch_126-3)" fill-rule="evenodd"/>
  <path d="m548.34,262.4c5.53-3.9,12.21-6.48,19.65-7.64l9.88,6c-8.45,1.33-12.03,2.5-19.27,6.14-7.24,3.64-11.79,9.5-11.21,15.32l-9.35-6.46c1.42-4.89,4.88-9.55,10.29-13.36h0Z" fill="url(#linear-gradient-8)" fill-rule="evenodd"/>
  <path d="m568,254.76c-7.44,1.16-14.12,3.74-19.65,7.64-5.41,3.81-8.87,8.47-10.29,13.36l-7.54-6.52c3.63-6.4,11.94-15.14,16.89-17.48,2.72-1.29,7.09-1.44,10.68-1.88l9.91,4.89h0Z" fill="url(#linear-gradient-9)" fill-rule="evenodd"/>
  <path d="m575.66,259.41l-4.59-5.68.38-148.44-1.6,68.98c-.04.39-6.92-1.71-6.93-1.32-.01.45,6.85,3.5,6.87,3.95l-.1,4.38c-.03,1.12-3.11,1.28-3.14,2.4-.03,1.22,3,3.49,2.98,4.71l-1.54,66.35,7.67,4.66h0Z" fill="#8dbcc7" fill-rule="evenodd"/>
  <path d="m572.59,45.5l8.15-2.98-7.94,4.53c-8.98-1.6-16.72-5.24-22.29-10.6-1.97-1.9-3.55-3.9-4.72-5.96,5.71,7.39,14.97,13.24,26.8,15.01h0Z" fill="#b2e1e9" fill-rule="evenodd"/>
  <path d="m14.39,152.69l-14.39.22c2.85-2.2,5.61-4.49,8.11-6.86,1.56-.4,2.76-.93,2.14-2.13,1.71-1.79,3.26-3.63,4.58-5.53,3.36,1.33,6.73,2.66,10.09,3.99-3.53,3.45-7,6.86-10.53,10.31h0Z" fill="url(#linear-gradient-10)" fill-rule="evenodd"/>
  <path d="m24.92,142.38c3.31-1.39,6.63-2.78,9.94-4.16,1.88,2.11,4.94,4.96,8.66,8.22.33.29-.26.97.08,1.26.41.36,1.75.33,2.18.7,1.47,1.27,3.01,2.58,4.6,3.92-4.78.06-9.56.11-14.34.17-3.71-3.37-7.41-6.74-11.12-10.11h0Z" fill="url(#linear-gradient-11)" fill-rule="evenodd"/>
  <path d="m50.38,152.32c-5.35,4.24-10.24,9.22-14.88,14.57l-10.04-4.04,10.58-10.36,14.34-.17h0Z" fill="url(#linear-gradient-12)" fill-rule="evenodd"/>
  <path d="m25.46,162.85c-3.32,1.38-6.63,2.77-9.95,4.15,0-2.33-.78-3.82-3.41-3.7-4-3.98-8.59-7.56-12.1-10.39,4.8-.07,9.59-.15,14.39-.22,3.69,3.39,7.38,6.77,11.07,10.16h0Z" fill="url(#linear-gradient-13)" fill-rule="evenodd"/>
  <polygon points="581.19 152.7 570.07 162.81 559.48 152.45 570.61 142.34 581.19 152.7 581.19 152.7" fill="#7dc46d" fill-rule="evenodd"/>
  <path d="m581.19,152.7l14.34.17c-1.85-1.49-3.6-2.99-5.26-4.5-.4-.36-2.11-.01-2.27-.28-.21-.36,1.28-1.16.96-1.47-3.3-2.22-6.03-5.57-8.26-8.27l-10.09,3.99,10.58,10.36h0Z" fill="url(#linear-gradient-14)" fill-rule="evenodd"/>
  <path d="m570.61,142.34l-9.94-4.16c-.03.94-.09,3.37-3.51,3.73-2.64,2.78-4.58,4.71-6.77,6.71-.47.42-3.32,2.45-5.23,3.66l14.34.17,11.12-10.11h0Z" fill="url(#linear-gradient-15)" fill-rule="evenodd"/>
  <path d="m545.15,152.28c4.8,3.76,9.81,9.04,14.85,14.54l10.07-4.01-10.58-10.36-14.34-.17h0Z" fill="url(#linear-gradient-16)" fill-rule="evenodd"/>
  <path d="m570.07,162.81l9.98,4.15c3.12-2.84,8.15-8.17,8.91-8.87.91-.84,4.39-3.45,6.57-5.22l-14.34-.17-11.12,10.11h0Z" fill="url(#linear-gradient-17)" fill-rule="evenodd"/>
  <polygon points="1.68 152.89 13.17 151.07 23.54 143.74 14.34 152.74 1.68 152.89 1.68 152.89" fill="#b2e1e9" fill-rule="evenodd" opacity=".75"/>
  <path d="m548.27,152.31l11.21.13,10.02-9.1-11.07,8.08c-1.14-.08-3.18-.46-3.41-.44-2.24.21-4.65.93-6.76,1.33h0Z" fill="#b2e1e9" fill-rule="evenodd" opacity=".75"/>
  <polygon points="14.34 152.74 25.46 162.85 36.04 152.49 24.92 142.38 14.34 152.74 14.34 152.74" fill="#7dc46d" fill-rule="evenodd"/>
  <polygon points="18.43 152.7 25.36 158.99 31.95 152.54 25.02 146.24 18.43 152.7 18.43 152.7" fill="url(#linear-gradient-18)" fill-rule="evenodd"/>
  <polygon points="24.14 157.88 18.43 152.7 14.4 152.7 24.14 161.64 25.46 162.85 25.36 158.99 24.14 157.88 24.14 157.88" fill="url(#linear-gradient-19)" fill-rule="evenodd"/>
  <polygon points="18.43 152.7 25.02 146.24 24.92 142.38 14.39 152.71 18.43 152.7 18.43 152.7" fill="url(#linear-gradient-20)" fill-rule="evenodd"/>
  <polygon points="25.02 146.24 31.95 152.54 36.05 152.5 24.92 142.38 25.02 146.24 25.02 146.24" fill="url(#linear-gradient-21)" fill-rule="evenodd"/>
  <polygon points="31.95 152.54 25.36 158.99 25.46 162.85 36.04 152.5 31.95 152.54 31.95 152.54" fill="url(#linear-gradient-22)" fill-rule="evenodd"/>
  <polygon points="581.19 152.7 570.07 162.81 559.48 152.45 570.61 142.34 581.19 152.7 581.19 152.7" fill="#7dc46d" fill-rule="evenodd"/>
  <polygon points="577.09 152.65 570.17 158.95 563.58 152.49 570.5 146.2 577.09 152.65 577.09 152.65" fill="url(#linear-gradient-23)" fill-rule="evenodd"/>
  <polygon points="571.39 157.84 577.09 152.65 581.19 152.7 571.39 161.6 570.07 162.81 570.17 158.95 571.39 157.84 571.39 157.84" fill="url(#linear-gradient-24)" fill-rule="evenodd"/>
  <polygon points="577.09 152.65 570.5 146.2 570.61 142.34 581.19 152.7 577.09 152.65 577.09 152.65" fill="url(#linear-gradient-25)" fill-rule="evenodd"/>
  <polygon points="570.5 146.2 563.58 152.49 559.48 152.45 570.61 142.34 570.5 146.2 570.5 146.2" fill="url(#linear-gradient-26)" fill-rule="evenodd"/>
  <polygon points="563.58 152.49 570.17 158.95 570.07 162.81 559.48 152.45 563.58 152.49 563.58 152.49" fill="url(#linear-gradient-27)" fill-rule="evenodd"/>
  <path d="m538.05,275.76l-7.54-6.52c-77.48,1.91-155.28,2.44-232.77,2.44s-154.74-.53-231.95-2.42l-8.36,6.5c8.93.23,17.87.44,26.82.64.63.01.16,1.62.79,1.64.9.02,2.9-1.56,3.8-1.54,13.23.28,26.46.52,39.7.73,3.12,1.86,5.89,1.9,8.31.13,53.64.79,107.34,1.04,160.89,1.04s101.88-.23,152.84-.93c2.98.11,10.6,1.47,12.74,1.59,2.66.15,5.83-1.22,8.83-1.92,21.98-.36,43.95-.81,65.89-1.38h0Z" fill="url(#radial-gradient-4)" fill-rule="evenodd"/>
</svg>