<?xml version="1.0" encoding="UTF-8"?>
<svg id="Layer_1" data-name="Layer 1" xmlns="http://www.w3.org/2000/svg" xmlns:xlink="http://www.w3.org/1999/xlink" viewBox="0 0 256.77 21.5">
  <defs>
    <radialGradient id="radial-gradient" cx="280.47" cy="435.04" fx="280.47" fy="435.04" r="12.65" gradientTransform="translate(-1830.74 -2004.37) scale(6.99 4.61)" gradientUnits="userSpaceOnUse">
      <stop offset="0" stop-color="#c1cfe4"/>
      <stop offset="1" stop-color="#7d8693"/>
    </radialGradient>
    <radialGradient id="radial-gradient-2" cx="280.47" cy="435.53" fx="280.47" fy="435.53" r="12.45" gradientTransform="translate(-1830.74 -2004.37) scale(6.99 4.61)" gradientUnits="userSpaceOnUse">
      <stop offset="0" stop-color="#696c84"/>
      <stop offset="1" stop-color="#5c5a7c"/>
    </radialGradient>
    <radialGradient id="radial-gradient-3" cy="438.53" fy="438.53" r="12.45" xlink:href="#radial-gradient"/>
    <radialGradient id="New_Gradient_Swatch_121" data-name="New Gradient Swatch 121" cx="280.47" cy="439.01" fx="280.47" fy="439.01" r="12.65" gradientTransform="translate(-1830.74 -2004.37) scale(6.99 4.61)" gradientUnits="userSpaceOnUse">
      <stop offset="0" stop-color="#4c4f61"/>
      <stop offset="1" stop-color="#48465e"/>
    </radialGradient>
    <linearGradient id="linear-gradient" x1="251.65" y1="10.75" x2="251.65" y2="2.6" gradientUnits="userSpaceOnUse">
      <stop offset="0" stop-color="#787a98"/>
      <stop offset="1" stop-color="#484a60"/>
    </linearGradient>
    <linearGradient id="New_Gradient_Swatch_126" data-name="New Gradient Swatch 126" x1="254.09" y1="10.75" x2="254.09" y2="0" gradientUnits="userSpaceOnUse">
      <stop offset="0" stop-color="#7d8693"/>
      <stop offset="1" stop-color="#a3afc2"/>
    </linearGradient>
    <linearGradient id="linear-gradient-2" x1="251.65" y1="18.91" x2="251.65" y2="10.75" gradientUnits="userSpaceOnUse">
      <stop offset="0" stop-color="#a3afc2"/>
      <stop offset="1" stop-color="#7d8693"/>
    </linearGradient>
    <linearGradient id="linear-gradient-3" x1="254.09" y1="21.5" x2="254.09" y2="10.75" gradientUnits="userSpaceOnUse">
      <stop offset="0" stop-color="#696c84"/>
      <stop offset="1" stop-color="#5c5a7c"/>
    </linearGradient>
    <linearGradient id="linear-gradient-4" x1="5.12" x2="5.12" xlink:href="#linear-gradient"/>
    <linearGradient id="linear-gradient-5" x1="5.12" x2="5.12" xlink:href="#linear-gradient-2"/>
    <linearGradient id="New_Gradient_Swatch_126-2" data-name="New Gradient Swatch 126" x1="2.68" x2="2.68" xlink:href="#New_Gradient_Swatch_126"/>
    <linearGradient id="linear-gradient-6" x1="2.68" x2="2.68" xlink:href="#linear-gradient-3"/>
  </defs>
  <path d="m5.37,2.6c-.96,2.7-1.78,5.43-2.52,8.15.74,2.72,1.56,5.45,2.52,8.15,2.75-.59,5.85-.6,8.7-.6h228.64c2.85,0,5.95,0,8.7.6.96-2.7,1.78-5.43,2.52-8.15-.74-2.72-1.56-5.45-2.52-8.15-2.75.59-5.85.6-8.7.6H14.07c-2.85,0-5.95,0-8.7-.6h0Z" fill="#979797" fill-rule="evenodd"/>
  <polygon points="7.4 5.05 5.69 10.75 7.4 16.46 249.37 16.46 251.08 10.75 249.37 5.05 7.4 5.05 7.4 5.05" fill="#272c3d" fill-rule="evenodd"/>
  <path d="m14.07,3.2h228.64c2.85,0,5.95,0,8.7-.6l1.92-2.6c-2.91,1.02-4.19,1.35-10.61,1.35H14.07c-6.42,0-7.7-.33-10.61-1.35l1.92,2.6c2.75.59,5.85.6,8.7.6h0Z" fill="url(#radial-gradient)" fill-rule="evenodd"/>
  <path d="m242.71,3.2H14.07c-2.85,0-5.95,0-8.7-.6l2.03,2.45h241.97l2.03-2.45c-2.75.59-5.85.6-8.7.6h0Z" fill="url(#radial-gradient-2)" fill-rule="evenodd"/>
  <path d="m242.71,16.46H7.4l-2.03,2.45c2.75-.59,5.85-.6,8.7-.6h228.64c2.85,0,5.95,0,8.7.6l-2.03-2.45h-6.67Z" fill="url(#radial-gradient-3)" fill-rule="evenodd"/>
  <path d="m242.71,18.31H14.07c-2.85,0-5.95,0-8.7.6l-1.92,2.6c2.91-1.02,4.19-1.35,10.61-1.35h228.64c6.42,0,7.7.33,10.61,1.35l-1.92-2.6c-2.75-.59-5.85-.6-8.7-.6h0Z" fill="url(#New_Gradient_Swatch_121)" fill-rule="evenodd"/>
  <path d="m249.37,5.05c.63,1.9,1.19,3.8,1.71,5.7h2.85c-.74-2.72-1.56-5.45-2.52-8.15l-2.03,2.45h0Z" fill="url(#linear-gradient)" fill-rule="evenodd"/>
  <path d="m251.4,2.6c.96,2.7,1.78,5.43,2.52,8.15h2.85c-1.05-3.91-2.23-7.62-3.45-10.75l-1.92,2.6h0Z" fill="url(#New_Gradient_Swatch_126)" fill-rule="evenodd"/>
  <path d="m253.93,10.75h-2.85c-.52,1.9-1.08,3.81-1.71,5.7l2.03,2.45c.96-2.7,1.78-5.43,2.52-8.15h0Z" fill="url(#linear-gradient-2)" fill-rule="evenodd"/>
  <path d="m253.93,10.75c-.74,2.72-1.56,5.45-2.52,8.15l1.92,2.6c1.22-3.13,2.4-6.84,3.45-10.75h-2.85Z" fill="url(#linear-gradient-3)" fill-rule="evenodd"/>
  <path d="m7.4,5.05c-.63,1.9-1.19,3.8-1.71,5.7h-2.85c.74-2.72,1.56-5.45,2.52-8.15l2.03,2.45h0Z" fill="url(#linear-gradient-4)" fill-rule="evenodd"/>
  <path d="m2.84,10.75h2.85c.52,1.9,1.08,3.81,1.71,5.7l-2.03,2.45c-.96-2.7-1.78-5.43-2.52-8.15h0Z" fill="url(#linear-gradient-5)" fill-rule="evenodd"/>
  <path d="m5.37,2.6c-.96,2.7-1.78,5.43-2.52,8.15H0C1.05,6.84,2.23,3.13,3.45,0l1.91,2.6h0Z" fill="url(#New_Gradient_Swatch_126-2)" fill-rule="evenodd"/>
  <path d="m2.84,10.75c.74,2.72,1.56,5.45,2.52,8.15l-1.91,2.6c-1.22-3.13-2.4-6.84-3.45-10.75h2.84Z" fill="url(#linear-gradient-6)" fill-rule="evenodd"/>
</svg>