<?xml version="1.0" encoding="UTF-8"?>
<svg xmlns="http://www.w3.org/2000/svg" xmlns:xlink="http://www.w3.org/1999/xlink" viewBox="0 0 32.35 11.28">
  <defs>
    <linearGradient id="New_Gradient_Swatch_126" data-name="New Gradient Swatch 126" x1=".57" y1="5.64" x2=".57" y2="2.27" gradientUnits="userSpaceOnUse">
      <stop offset="0" stop-color="#788896"/>
      <stop offset="1" stop-color="#a0b2c5"/>
    </linearGradient>
    <linearGradient id="New_Gradient_Swatch_126-2" data-name="New Gradient Swatch 126" x1=".22" y1="1.56" x2="16.18" y2="1.56" xlink:href="#New_Gradient_Swatch_126"/>
    <linearGradient id="linear-gradient" x1="16.18" y1="1.56" x2="32.13" y2="1.56" gradientUnits="userSpaceOnUse">
      <stop offset="0" stop-color="#9babc9"/>
      <stop offset="1" stop-color="#525e7e"/>
    </linearGradient>
    <linearGradient id="linear-gradient-2" x1="31.78" y1="9.01" x2="31.78" y2="5.64" gradientUnits="userSpaceOnUse">
      <stop offset="0" stop-color="#686c87"/>
      <stop offset="1" stop-color="#5c5a7e"/>
    </linearGradient>
    <linearGradient id="linear-gradient-3" x1="16.18" y1="9.72" x2="32.13" y2="9.72" gradientUnits="userSpaceOnUse">
      <stop offset="0" stop-color="#47445e"/>
      <stop offset="1" stop-color="#4b4e61"/>
    </linearGradient>
    <linearGradient id="linear-gradient-4" x1=".22" y1="9.72" x2="16.18" y2="9.72" gradientUnits="userSpaceOnUse">
      <stop offset="0" stop-color="#5b5d76"/>
      <stop offset="1" stop-color="#5c5a7e"/>
    </linearGradient>
    <linearGradient id="linear-gradient-5" x1="1.15" y1="2.27" x2="16.18" y2="2.27" xlink:href="#linear-gradient-2"/>
    <linearGradient id="linear-gradient-6" y1="2.27" x2="31.2" y2="2.27" xlink:href="#linear-gradient-3"/>
    <linearGradient id="linear-gradient-7" x1="31.05" y1="8.16" x2="31.05" y2="3.11" gradientUnits="userSpaceOnUse">
      <stop offset="0" stop-color="#787b9c"/>
      <stop offset="1" stop-color="#535774"/>
    </linearGradient>
    <linearGradient id="linear-gradient-8" y1="9.01" x2="31.2" y2="9.01" xlink:href="#linear-gradient"/>
    <linearGradient id="linear-gradient-9" x1="1.15" y1="9.01" x2="16.18" y2="9.01" gradientUnits="userSpaceOnUse">
      <stop offset="0" stop-color="#788896"/>
      <stop offset="1" stop-color="#bdd2e8"/>
    </linearGradient>
    <linearGradient id="linear-gradient-10" x1="1.31" x2="1.31" xlink:href="#linear-gradient-7"/>
    <linearGradient id="linear-gradient-11" x1=".57" y1="9.01" x2=".57" y2="5.64" xlink:href="#linear-gradient-2"/>
    <linearGradient id="New_Gradient_Swatch_126-3" data-name="New Gradient Swatch 126" x1="31.78" x2="31.78" xlink:href="#New_Gradient_Swatch_126"/>
    <radialGradient id="New_Gradient_Swatch_111" data-name="New Gradient Swatch 111" cx="16.18" cy="2.27" fx="16.18" fy="2.27" r="15.57" gradientUnits="userSpaceOnUse">
      <stop offset="0" stop-color="#8d7bb9"/>
      <stop offset="1" stop-color="#543393"/>
    </radialGradient>
    <linearGradient id="linear-gradient-12" x1="1.62" y1="2.84" x2="16.18" y2="2.84" gradientUnits="userSpaceOnUse">
      <stop offset="0" stop-color="#6754a4"/>
      <stop offset="1" stop-color="#baaad3"/>
    </linearGradient>
    <linearGradient id="linear-gradient-13" x1="16.18" y1="2.84" x2="30.74" y2="2.84" gradientUnits="userSpaceOnUse">
      <stop offset="0" stop-color="#a293c7"/>
      <stop offset="1" stop-color="#6752a2"/>
    </linearGradient>
    <linearGradient id="linear-gradient-14" x1="1.91" y1="7.74" x2="1.91" y2="3.54" gradientUnits="userSpaceOnUse">
      <stop offset="0" stop-color="#523d98"/>
      <stop offset="1" stop-color="#8879b8"/>
    </linearGradient>
    <linearGradient id="linear-gradient-15" x1="30.44" x2="30.44" xlink:href="#linear-gradient-14"/>
    <linearGradient id="linear-gradient-16" x1="1.62" y1="8.44" x2="16.18" y2="8.44" gradientUnits="userSpaceOnUse">
      <stop offset="0" stop-color="#6752a2"/>
      <stop offset="1" stop-color="#a293c7"/>
    </linearGradient>
    <linearGradient id="linear-gradient-17" x1="16.18" y1="8.44" x2="30.74" y2="8.44" gradientUnits="userSpaceOnUse">
      <stop offset="0" stop-color="#8575b6"/>
      <stop offset="1" stop-color="#6754a4"/>
    </linearGradient>
    <radialGradient id="radial-gradient" cx="8.08" cy="-2.17" fx="8.08" fy="-2.17" r="11.47" gradientUnits="userSpaceOnUse">
      <stop offset="0" stop-color="#7c65ac"/>
      <stop offset="1" stop-color="#010101"/>
    </radialGradient>
    <radialGradient id="radial-gradient-2" cx="20.55" cy="-.41" fx="20.55" fy="-.41" r="9.65" xlink:href="#radial-gradient"/>
  </defs>
  <g fill="none" isolation="isolate">
    <g id="Layer_1" data-name="Layer 1">
      <g>
        <g>
          <path d="m31.2,8.16c.02-.2.03-.39.05-.59.04-.51.1-1.44.1-1.93,0-.51-.07-1.43-.1-1.94-.01-.2-.03-.39-.05-.59-2.03-.36-4.07-.69-6.11-1-2.97-.44-5.94-.82-8.92-1.11-2.98.3-5.96.68-8.92,1.11-2.04.3-4.08.63-6.11,1-.02.2-.03.39-.05.59-.04.51-.1,1.44-.1,1.93,0,.51.07,1.43.1,1.94.01.2.03.39.05.59,2.03.36,4.07.69,6.11,1,2.97.44,5.94.82,8.92,1.11,2.98-.3,5.96-.68,8.92-1.11,2.04-.3,4.08-.63,6.11-1h0Z" fill="#989898" fill-rule="evenodd"/>
          <path d="m1,5.63c0-.49.07-1.42.1-1.93.01-.2.03-.39.05-.59l-.92-.85c-.01.11-.03.26-.04.42.11.3.09.51-.06.73-.07.96-.13,2.08-.13,2.22h1Z" fill="url(#New_Gradient_Swatch_126)" fill-rule="evenodd"/>
          <path d="m1.15,3.11c2.03-.36,4.07-.69,6.11-1,2.97-.44,5.94-.82,8.92-1.11V0h-.1c-3,.31-5.99.69-8.97,1.13-.91.13-1.95.41-2.81.71-.24.08-.42-.21-.67-.17-1.14.19-2.27.39-3.41.59l.92.85h0Z" fill="url(#New_Gradient_Swatch_126-2)" fill-rule="evenodd"/>
          <path d="m16.18,1c2.98.3,5.96.68,8.92,1.11,2.04.3,4.08.63,6.11,1l.92-.85c-.51.01-1.22-.04-1.77-.32-.25-.04-.41.18-.66.14-.24-.04-.57-.35-.81-.38-1.21-.2-2.43-.39-3.64-.57-2.17-.32-4.34-.61-6.51-.85-.98.27-1.9.05-2.56-.27v1h0Z" fill="url(#linear-gradient)" fill-rule="evenodd"/>
          <path d="m32.35,5.64h-1s0,0,0,0c0,.49-.07,1.42-.1,1.93-.01.2-.03.39-.05.59l.92.85c.05-.46.12-1.55.17-2.36-.24-.25-.13-.81.05-1.01h0Z" fill="url(#linear-gradient-2)" fill-rule="evenodd"/>
          <path d="m31.2,8.16c-2.03.36-4.07.69-6.11,1-2.97.44-5.94.82-8.92,1.11v1h.1c2.21-.23,4.42-.49,6.62-.79.78-.31,1.66-.64,2.35-.33,2.3-.34,4.6-.72,6.88-1.14l-.92-.85h0Z" fill="url(#linear-gradient-3)" fill-rule="evenodd"/>
          <path d="m16.18,11.28v-1c-2.98-.3-5.96-.68-8.92-1.11-2.04-.3-4.08-.63-6.11-1l-.92.85c2.29.42,4.58.8,6.88,1.14,2.98.44,5.97.82,8.97,1.12h.1Z" fill="url(#linear-gradient-4)" fill-rule="evenodd"/>
          <path d="m7.33,2.61c2.94-.43,5.89-.81,8.85-1.11v-.5c-2.98.3-5.96.68-8.92,1.11-2.04.3-4.08.63-6.11,1l.47.42c1.9-.34,3.8-.64,5.71-.93h0Z" fill="url(#linear-gradient-5)" fill-rule="evenodd"/>
          <path d="m16.18,1.51c2.96.3,5.91.67,8.85,1.11,1.91.28,3.81.59,5.71.93l.47-.42c-2.03-.36-4.07-.69-6.11-1-2.97-.44-5.94-.82-8.92-1.11v.5h0Z" fill="url(#linear-gradient-6)" fill-rule="evenodd"/>
          <path d="m30.77,3.99c.04.43.08,1.23.08,1.66,0,.08,0,.15,0,.23-.02.43-.06,1.24-.1,1.67,0,.07-.01.14-.02.2l.04.03.43.39c.01-.16.02-.32.04-.47,0-.04,0-.08,0-.12.04-.46.09-1.34.1-1.79,0-.05,0-.09,0-.14,0,0,0,0,0,0,0-.44-.05-1.29-.09-1.74,0-.06-.01-.13-.02-.19,0-.01,0-.02,0-.03-.01-.19-.03-.37-.04-.56l-.47.42c0,.07.01.14.02.2,0,0,0,0,0,0,0,.08.01.16.02.24h0Z" fill="url(#linear-gradient-7)" fill-rule="evenodd"/>
          <path d="m30.74,7.74c-1.9.34-3.8.64-5.71.93-2.94.43-5.89.81-8.85,1.11v.5c2.98-.3,5.96-.68,8.92-1.11,2.04-.3,4.08-.63,6.11-1l-.43-.39-.04-.03h0Z" fill="url(#linear-gradient-8)" fill-rule="evenodd"/>
          <path d="m16.18,9.77c-2.96-.3-5.91-.67-8.85-1.11-1.91-.28-3.81-.59-5.71-.93l-.04.03-.43.39c2.03.36,4.07.69,6.11,1,2.97.44,5.94.82,8.92,1.11v-.5h0Z" fill="url(#linear-gradient-9)" fill-rule="evenodd"/>
          <path d="m1.58,3.99c-.04.43-.08,1.23-.08,1.66,0,.08,0,.15,0,.23.02.43.06,1.24.1,1.67,0,.07.01.14.02.2l-.04.03-.43.39c-.01-.16-.02-.32-.04-.47,0-.04,0-.08,0-.12-.03-.46-.09-1.34-.1-1.79,0-.05,0-.09,0-.14h0c0-.45.05-1.3.09-1.75,0-.06.01-.13.02-.19,0-.01,0-.02,0-.03.01-.19.03-.37.04-.56l.47.42c0,.07-.01.14-.02.2,0,0,0,0,0,0,0,.08-.01.16-.02.24h0Z" fill="url(#linear-gradient-10)" fill-rule="evenodd"/>
          <path d="m16.18,1c.95.09,1.9.2,2.86.31,2.03.24,4.05.51,6.07.8.93.14,1.86.28,2.79.43-2.21-.45-4.47-.82-6.71-1.14-.17-.3-.44-.43-.96-.13-1.29-.18-2.57-.34-3.83-.48-.07-.25-.14-.51-.21-.76h0s0,0,0,0c-.07.25-.14.51-.21.76-3.74.44-7.69.99-11.5,1.76.93-.15,1.86-.29,2.79-.43,1.69-.25,3.39-.48,5.08-.69.37.12.72.13.98-.12.95-.11,1.9-.22,2.86-.31h0Z" fill="#98d8e3" fill-rule="evenodd"/>
          <path d="m1,5.64c0,.49.07,1.42.1,1.93.01.2.03.39.05.59l-.92.85c.1-.61.09-2.94-.22-3.37h1Z" fill="url(#linear-gradient-11)" fill-rule="evenodd"/>
          <path d="m31.35,5.63c0-.49-.07-1.42-.1-1.93-.01-.2-.03-.39-.05-.59l.92-.85c.08.76.22,3.17.22,3.37h-1s0,0,0,0h0Z" fill="url(#New_Gradient_Swatch_126-3)" fill-rule="evenodd"/>
          <path d="m16.18,10.04c-4.13-.37-8.27-.89-12.43-1.43,1.17.19,2.34.38,3.51.55,1.68.25,3.37.48,5.06.68.03.11.1.18.49.06.13.02.26.03.39.05-.2.28-.21.48.41.05.77.09,1.8.2,2.57.28,2.98-.3,5.96-.68,8.92-1.11,1.17-.17,2.34-.36,3.51-.55-4.16.54-8.3,1.06-12.43,1.43h0Z" fill="#75bec9" fill-rule="evenodd"/>
        </g>
        <g>
          <path d="m16.18,2.26c-2.92.29-5.83.66-8.74,1.09-1.71.25-3.42.53-5.12.82-.03.36-.06,1.1-.07,1.46,0,.36.04,1.1.07,1.47,1.7.3,3.41.57,5.12.82,2.9.43,5.82.8,8.74,1.09,2.92-.29,5.83-.66,8.74-1.09,1.71-.25,3.42-.53,5.12-.82.03-.36.06-1.1.07-1.46,0-.36-.04-1.11-.07-1.47-1.7-.3-3.41-.57-5.12-.82-2.9-.43-5.82-.8-8.74-1.09h0Z" fill="url(#New_Gradient_Swatch_111)" fill-rule="evenodd"/>
          <path d="m7.44,3.35c2.9-.43,5.82-.8,8.74-1.09v-.75c-2.96.3-5.91.67-8.85,1.11-1.91.28-3.81.59-5.71.93l.27.25.34.31.08.08c.06-.01.12-.02.18-.03.29-.05.58-.1.87-.15,1.36-.23,2.71-.44,4.07-.64h0Z" fill="url(#linear-gradient-12)" fill-rule="evenodd"/>
          <path d="m16.18,2.26c2.92.29,5.83.66,8.74,1.09,1.36.2,2.72.41,4.07.64.29.05.58.1.87.15.06.01.12.02.18.03l.08-.08.34-.31.27-.25c-1.9-.34-3.8-.64-5.71-.93-2.94-.43-5.89-.81-8.85-1.11v.75h0Z" fill="url(#linear-gradient-13)" fill-rule="evenodd"/>
          <path d="m2.25,5.63c0-.36.04-1.1.07-1.46l-.08-.08-.34-.31-.27-.25c0,.07-.01.14-.02.2,0,0,0,0,0,0,0,.08-.01.16-.02.24-.04.42-.07,1.22-.08,1.65,0,.08,0,.16,0,.24.02.43.06,1.24.1,1.67,0,.07.01.14.02.2l.7-.64c-.02-.24-.04-.86-.05-1.1,0-.12-.01-.25-.01-.37h0Z" fill="url(#linear-gradient-14)" fill-rule="evenodd"/>
          <path d="m30.03,4.18c.03.36.06,1.1.07,1.47,0,.12,0,.24-.01.36-.01.24-.03.86-.06,1.1l.7.64c0-.07.01-.14.02-.2.03-.43.08-1.24.1-1.67,0-.08,0-.15,0-.23,0-.43-.05-1.23-.08-1.66,0-.08-.01-.16-.02-.24,0,0,0,0,0,0,0-.07-.01-.14-.02-.2l-.27.25-.34.31-.08.08h0Z" fill="url(#linear-gradient-15)" fill-rule="evenodd"/>
          <path d="m7.44,7.92c2.9.43,5.82.8,8.74,1.09v.75c-2.96-.3-5.91-.67-8.85-1.11-1.91-.28-3.81-.59-5.71-.93l.27-.25.34-.31.08-.08c.06.01.12.02.18.03.29.05.58.1.87.15,1.36.23,2.71.44,4.07.64h0Z" fill="url(#linear-gradient-16)" fill-rule="evenodd"/>
          <path d="m16.18,9.02c2.92-.29,5.83-.66,8.74-1.09,1.36-.2,2.72-.42,4.07-.64.29-.05.58-.1.87-.15.06-.01.12-.02.18-.03l.08.08.34.31.27.25c-1.9.34-3.8.64-5.71.93-2.94.43-5.89.81-8.85,1.11v-.75h0Z" fill="url(#linear-gradient-17)" fill-rule="evenodd"/>
          <path d="m9.09,3.12l-4.39,4.39c.91.15,1.82.29,2.74.42,1.22.18,2.43.35,3.65.51l6.07-6.07c-.33-.03-.65-.07-.98-.1-2.37.24-4.73.53-7.09.86h0Z" fill="url(#radial-gradient)" fill-rule="evenodd" mix-blend-mode="screen"/>
          <path d="m24.77,3.33l-5.33,5.33c1.28-.15,2.55-.32,3.82-.5l4.39-4.39c-.91-.15-1.82-.29-2.74-.42-.05,0-.1-.01-.15-.02h0Z" fill="url(#radial-gradient-2)" fill-rule="evenodd" mix-blend-mode="screen"/>
        </g>
      </g>
    </g>
  </g>
</svg>