<?xml version="1.0" encoding="UTF-8"?>
<svg id="Layer_1" data-name="Layer 1" xmlns="http://www.w3.org/2000/svg" viewBox="0 0 281.2483520901 370.5152893066">
  <path d="M170.5484466946,155.0250701904c-2.7000274658-2.7000274658-2.7000274658-8.1000213623,.9000549316-10.7999725342,18.9000549316-12.6000061035,29.7000274658-35.1000137329,24.2999725342-60.3000030518-4.5-20.6999931335-21.5999450684-37.8000068665-41.3999938965-42.3000068665-36.8999862671-8.1000137329-70.2000274658,19.8000068665-70.2000274658,54.8999824524,0,19.7999725342,9.8999862671,36.8999786377,26.1000137329,46.7999725342,3.6000137329,2.7000274658,4.5,7.2000274658,.8999862671,10.7999725342l-9,9c-23.3999862671-13.5-38.7000274658-38.7000274658-38.7000274658-67.5,0-18.8999862671,6.2999725342-36,17.1000137329-48.6000137329,2.7000274658-2.6999931335,2.7000274658-7.1999931335,0-9.8999862671L45.4484329617,2.0249948502c-2.7000274658-2.6999931335-7.2000274658-2.6999931335-9.8999862671,0C8.5484466946,32.6250076294-5.8515400493,74.0249938965,2.2484734451,119.9249801636c9.8999860287,58.4999923706,56.7000281811,105.2999649048,115.2000281811,115.2000198364,37.7999725342,6.2999725342,73.7999725342-2.7000274658,101.7000274658-21.6000061035,1.7999725342-1.7999725342,4.5-6.2999725342,.9000549316-10.7999725342,0,0-49.5001373291-47.6999664307-49.5001373291-47.6999359131v-.0000152588Z" style="fill: #fff;"/>
  <path d="M201.1483917629,38.025062561c-2.7000274658,2.6999931335-2.7000274658,7.1999931335,0,9.8999862671,10.7999725342,13.5,17.0999450684,30.6000137329,17.0999450684,48.6000137329,0,20.7000274658-9,40.4999923706-22.5,54.8999862671l40.5,38.7000274658c3.5999450684,3.6000213623,7.2000274658,2.7000274658,9.9000549316,0,21.5999603271-25.2000274658,35.0999603271-57.6000213623,35.0999603271-93.6000137329S267.7483215725,28.1250686646,246.1483917629,2.9250411987c-2.7000274658-2.6999931335-7.2000274658-2.6999931335-9.9000549316,0l-35.0999450684,35.1000137329v.0000076294Z" style="fill: #fff; isolation: isolate; opacity: .5;"/>
</svg>