<?xml version="1.0" encoding="UTF-8"?>
<svg id="Layer_1" data-name="Layer 1" xmlns="http://www.w3.org/2000/svg" viewBox="0 0 281.2483520901 370.5152893066">
  <path d="M170.5484466946,155.0250701904c-2.7000274658-2.7000274658-2.7000274658-8.1000213623,.9000549316-10.7999725342,18.9000549316-12.6000061035,29.7000274658-35.1000137329,24.2999725342-60.3000030518-4.5-20.6999931335-21.5999450684-37.8000068665-41.3999938965-42.3000068665-36.8999862671-8.1000137329-70.2000274658,19.8000068665-70.2000274658,54.8999824524,0,19.7999725342,9.8999862671,36.8999786377,26.1000137329,46.7999725342,3.6000137329,2.7000274658,4.5,7.2000274658,.8999862671,10.7999725342l-9,9c-23.3999862671-13.5-38.7000274658-38.7000274658-38.7000274658-67.5,0-18.8999862671,6.2999725342-36,17.1000137329-48.6000137329,2.7000274658-2.6999931335,2.7000274658-7.1999931335,0-9.8999862671L45.4484329617,2.0249948502c-2.7000274658-2.6999931335-7.2000274658-2.6999931335-9.8999862671,0C8.5484466946,32.6250076294-5.8515400493,74.0249938965,2.2484734451,119.9249801636c9.8999860287,58.4999923706,56.7000281811,105.2999649048,115.2000281811,115.2000198364,37.7999725342,6.2999725342,73.7999725342-2.7000274658,101.7000274658-21.6000061035,1.7999725342-1.7999725342,4.5-6.2999725342,.9000549316-10.7999725342,0,0-49.5001373291-47.6999664307-49.5001373291-47.6999359131v-.0000152588Z" style="fill: #fff;"/>
  <path d="M201.1483917629,38.025062561c-2.7000274658,2.6999931335-2.7000274658,7.1999931335,0,9.8999862671,10.7999725342,13.5,17.0999450684,30.6000137329,17.0999450684,48.6000137329,0,20.7000274658-9,40.4999923706-22.5,54.8999862671l40.5,38.7000274658c3.5999450684,3.6000213623,7.2000274658,2.7000274658,9.9000549316,0,21.5999603271-25.2000274658,35.0999603271-57.6000213623,35.0999603271-93.6000137329S267.7483215725,28.1250686646,246.1483917629,2.9250411987c-2.7000274658-2.6999931335-7.2000274658-2.6999931335-9.9000549316,0l-35.0999450684,35.1000137329v.0000076294Z" style="fill: #fff; isolation: isolate; opacity: .5;"/>
  <g>
    <path d="M95.272735635,315.0738830566c-1.8500976562-2.5048828125-4.2583007812-4.341796875-7.2290039062-5.4931640625-2.9663085938-1.16015625-5.87109375-1.7314453125-8.7099609375-1.7314453125-3.6298828125,0-6.9301757812,.6591796875-9.9008789062,1.9775390625s-5.5283203125,3.1376953125-7.6728515625,5.4404296875c-2.14453125,2.3115234375-3.796875,5.0185546875-4.9482421875,8.12109375-1.1557617188,3.1025390625-1.7314453125,6.46875-1.7314453125,10.0986328125,0,3.83203125,.5581054688,7.330078125,1.6831054688,10.494140625,1.1206054688,3.1640625,2.7202148438,5.888671875,4.798828125,8.1650390625s4.5703125,4.04296875,7.4750976562,5.2998046875,6.169921875,1.880859375,9.7998046875,1.880859375c3.76171875,0,7.0971679688-.7470703125,10.001953125-2.232421875,2.900390625-1.4765625,5.2470703125-3.4453125,7.0268554688-5.888671875l9.9975585938,7.03125c-3.1025390625,3.8935546875-6.8950195312,6.9169921875-11.3818359375,9.0615234375-4.4912109375,2.14453125-9.73828125,3.216796875-15.7412109375,3.216796875-5.4799804688,0-10.51171875-.9140625-15.099609375-2.724609375s-8.5297851562-4.359375-11.830078125-7.6201171875c-3.3002929688-3.26953125-5.8754882812-7.1630859375-7.7211914062-11.6806640625-1.8500976562-4.5263671875-2.7729492188-9.52734375-2.7729492188-15.0029296875,0-5.607421875,.9755859375-10.6787109375,2.9223632812-15.1962890625s4.6186523438-8.3671875,8.0200195312-11.53125c3.3969726562-3.1728515625,7.4047851562-5.607421875,12.0278320312-7.330078125,4.6186523438-1.7138671875,9.6328125-2.5751953125,15.046875-2.5751953125,2.2412109375,0,4.587890625,.2197265625,7.0268554688,.650390625,2.443359375,.421875,4.7856445312,1.0810546875,7.03125,1.9775390625,2.2412109375,.8876953125,4.3549804688,1.9951171875,6.3369140625,3.3134765625,1.9775390625,1.318359375,3.6606445312,2.9091796875,5.0493164062,4.7548828125l-9.5053710938,7.5234375Z" style="fill: #fff;"/>
    <path d="M113.5847473538,298.6383361816h24.8510742188c4.552734375,0,9.140625,.59765625,13.7592773438,1.7841796875,4.623046875,1.1865234375,8.7802734375,3.1552734375,12.48046875,5.888671875,3.69140625,2.7421875,6.697265625,6.3369140625,9.0087890625,10.79296875,2.302734375,4.4560546875,3.462890625,9.984375,3.462890625,16.5849609375,0,6.134765625-1.16015625,11.4169921875-3.462890625,15.837890625-2.3115234375,4.4208984375-5.3173828125,8.05078125-9.0087890625,10.8896484375-3.7001953125,2.8388671875-7.857421875,4.9306640625-12.48046875,6.2841796875-4.6186523438,1.353515625-9.2065429688,2.0302734375-13.7592773438,2.0302734375h-24.8510742188v-70.0927734375Zm22.869140625,59.203125c3.234375,0,6.46875-.3779296875,9.703125-1.142578125,3.234375-.755859375,6.15234375-2.0390625,8.7626953125-3.8583984375,2.6103515625-1.810546875,4.7373046875-4.271484375,6.3896484375-7.3740234375,1.6435546875-3.1025390625,2.4697265625-7.03125,2.4697265625-11.77734375,0-5.0185546875-.826171875-9.1142578125-2.4697265625-12.2783203125-1.65234375-3.1728515625-3.779296875-5.642578125-6.3896484375-7.4267578125s-5.5283203125-3.005859375-8.7626953125-3.6650390625-6.46875-.984375-9.703125-.984375h-10.3930664062v48.5068359375h10.3930664062Z" style="fill: #fff;"/>
    <path d="M189.2234192288,298.6383361816h22.869140625c4.025390625,0,7.6552734375,.3603515625,10.8896484375,1.08984375s6.01171875,1.916015625,8.3232421875,3.5595703125c2.302734375,1.65234375,4.0869140625,3.7705078125,5.34375,6.3369140625,1.248046875,2.5751953125,1.880859375,5.677734375,1.880859375,9.3076171875,0,3.8935546875-.7294921875,7.1630859375-2.1796875,9.7998046875-1.4501953125,2.6455078125-3.4189453125,4.7724609375-5.888671875,6.3896484375-2.478515625,1.6171875-5.361328125,2.7861328125-8.666015625,3.515625-3.2958984375,.720703125-6.7939453125,1.08984375-10.494140625,1.08984375h-9.59765625v29.00390625h-12.48046875v-70.0927734375Zm21.1904296875,30.5947265625c2.0478515625,0,3.990234375-.1494140625,5.8359375-.4482421875,1.8544921875-.298828125,3.498046875-.826171875,4.95703125-1.58203125,1.4501953125-.755859375,2.6015625-1.8017578125,3.462890625-3.1201171875,.8525390625-1.318359375,1.283203125-3.0322265625,1.283203125-5.150390625,0-2.0390625-.4306640625-3.708984375-1.283203125-5.0009765625-.861328125-1.283203125-1.9951171875-2.28515625-3.4189453125-3.0146484375-1.4150390625-.7294921875-3.0322265625-1.2041015625-4.8515625-1.44140625-1.810546875-.228515625-3.673828125-.3427734375-5.58984375-.3427734375h-9.10546875v20.1005859375h8.7099609375Z" style="fill: #fff;"/>
  </g>
</svg>