<?xml version="1.0" encoding="UTF-8"?>
<svg id="Layer_1" data-name="Layer 1" xmlns="http://www.w3.org/2000/svg" viewBox="0 0 353.5581054688 395.8902893066">
  <path d="M305.8621734037,217.0610681798V77.0814452682c0-2.565815568-1.4254598904-4.8465473145-3.5636361319-6.1294516999L181.1349087866,.9621821125c-2.1381762415-1.2829094833-4.9890960224-1.2829094833-7.1272722638,0L107.2963705802,39.4494564154l14.2545377306,24.6603623047,12.4014521078-7.1272722638c20.3840030247-11.8312708704,46.6123535365-4.7039986066,58.4436244069,15.679997621,11.8312708704,20.3840030247,4.7039986066,46.6123671307-15.6800044181,58.4436380011l-12.4014521078,7.1272722638,14.2545445277,24.6603555077,12.4014521078-7.1272722638c20.3840030247-11.8312708704,46.6123671307-4.7039986066,58.4436380011,15.6800044181s4.7039986066,46.6123671307-15.6800044181,58.4436380011l-12.4014521078,7.1272722638,14.2545581219,24.6603555077,66.7112727396-38.4872811001c2.1381762415-1.2829111826,3.5636361319-3.5636361319,3.5636361319-6.129458497Z" style="fill: #fff; opacity: .5;"/>
  <path d="M201.5189118113,174.4399833046l-30.9323627126,17.8181806596-35.6363613192-61.7221767173,30.9323627126-17.8181806596c10.2632758663-5.8443610813,13.6843632903-18.9585431343,7.8400022091-29.2218190006s-18.9585431343-13.6843632903-29.2218190006-7.8400022091l-30.9323627126,17.8181806596-24.9454529234-43.1912661125-35.9214553364,20.6690868463c-2.1381830386,1.2829111826-3.5636361319,3.5636361319-3.5636361319,6.129458497V216.9185466603c0,2.5658223651,1.4254530933,4.8465473145,3.5636361319,6.129458497l121.1636250866,69.9898114558c2.1381762415,1.2829111826,4.9890960224,1.2829111826,7.1272722638,0l35.9214587349-20.6691004405-24.9454529234-43.1912797067,30.9323627126-17.8181806596c10.2632622721-5.8443610813,13.6843496961-18.9585431343,7.8399886149-29.2218190006-5.8443610813-10.2632758663-18.9585431343-13.6843632903-29.2218190006-7.8400022091,0,0,0,.1425487079,.0000135942,.1425487079Z" style="fill: #fff;"/>
</svg>