<?xml version="1.0" encoding="UTF-8"?>
<svg id="Layer_1" data-name="Layer 1" xmlns="http://www.w3.org/2000/svg" viewBox="0 0 353.5581054688 395.8902893066">
  <g>
    <path d="M52.865234375,341.5699768066c-1.810546875-2.45703125-4.171875-4.2509765625-7.08203125-5.3828125-2.91015625-1.130859375-5.755859375-1.6982421875-8.53515625-1.6982421875-3.556640625,0-6.791015625,.6474609375-9.69921875,1.9404296875-2.91015625,1.2939453125-5.41796875,3.072265625-7.517578125,5.3349609375-2.103515625,2.2646484375-3.720703125,4.9150390625-4.8515625,7.9541015625-1.130859375,3.0400390625-1.697265625,6.337890625-1.697265625,9.8935546875,0,3.7509765625,.548828125,7.1787109375,1.650390625,10.2822265625,1.09765625,3.103515625,2.666015625,5.771484375,4.703125,8.0029296875,2.037109375,2.23046875,4.478515625,3.9609375,7.32421875,5.189453125,2.84375,1.228515625,6.044921875,1.8427734375,9.603515625,1.8427734375,3.685546875,0,6.94921875-.7275390625,9.796875-2.1826171875,2.84375-1.455078125,5.140625-3.3779296875,6.88671875-5.771484375l9.796875,6.88671875c-3.041015625,3.81640625-6.7578125,6.775390625-11.154296875,8.8759765625-4.3984375,2.1005859375-9.541015625,3.15234375-15.423828125,3.15234375-5.369140625,0-10.298828125-.8896484375-14.79296875-2.66796875-4.494140625-1.77734375-8.357421875-4.267578125-11.591796875-7.46875s-5.755859375-7.015625-7.564453125-11.4462890625c-1.8120117188-4.4287109375-2.716796875-9.3271484375-2.716796875-14.6953125,0-5.4951171875,.953125-10.458984375,2.861328125-14.8896484375,1.90625-4.4287109375,4.525390625-8.1962890625,7.857421875-11.2998046875,3.330078125-3.1044921875,7.2578125-5.49609375,11.78515625-7.1787109375,4.525390625-1.6806640625,9.44140625-2.521484375,14.744140625-2.521484375,2.197265625,0,4.494140625,.2109375,6.88671875,.630859375,2.392578125,.4208984375,4.6875,1.06640625,6.88671875,1.939453125,2.197265625,.873046875,4.267578125,1.95703125,6.208984375,3.25,1.939453125,1.2939453125,3.587890625,2.845703125,4.947265625,4.6552734375l-9.3125,7.3720703125Z" style="fill: #fff;"/>
    <path d="M65.765625,370.6705627441c0-3.6865234375,.6630859375-7.033203125,1.9892578125-10.0400390625,1.32421875-3.0068359375,3.119140625-5.5771484375,5.3828125-7.7109375,2.2626953125-2.134765625,4.947265625-3.783203125,8.0517578125-4.947265625,3.103515625-1.1640625,6.4013671875-1.74609375,9.8935546875-1.74609375s6.7900390625,.58203125,9.8935546875,1.74609375c3.1044921875,1.1640625,5.787109375,2.8125,8.0517578125,4.947265625,2.2626953125,2.1337890625,4.056640625,4.7041015625,5.3828125,7.7109375,1.3251953125,3.0068359375,1.9892578125,6.353515625,1.9892578125,10.0400390625,0,3.685546875-.6640625,7.048828125-1.9892578125,10.087890625-1.326171875,3.0400390625-3.1201171875,5.642578125-5.3828125,7.80859375-2.2646484375,2.1669921875-4.947265625,3.8642578125-8.0517578125,5.091796875-3.103515625,1.2275390625-6.4013671875,1.84375-9.8935546875,1.84375s-6.7900390625-.6162109375-9.8935546875-1.84375c-3.1044921875-1.2275390625-5.7890625-2.9248046875-8.0517578125-5.091796875-2.263671875-2.166015625-4.05859375-4.7685546875-5.3828125-7.80859375-1.326171875-3.0390625-1.9892578125-6.40234375-1.9892578125-10.087890625Zm11.833984375,0c0,1.810546875,.2744140625,3.6220703125,.8251953125,5.431640625,.548828125,1.8115234375,1.373046875,3.4287109375,2.4736328125,4.849609375,1.0986328125,1.423828125,2.48828125,2.587890625,4.1708984375,3.4921875,1.6806640625,.90625,3.685546875,1.3583984375,6.013671875,1.3583984375s4.33203125-.4521484375,6.013671875-1.3583984375c1.681640625-.904296875,3.0712890625-2.068359375,4.1708984375-3.4921875,1.099609375-1.4208984375,1.923828125-3.0380859375,2.4736328125-4.849609375,.548828125-1.8095703125,.8251953125-3.62109375,.8251953125-5.431640625,0-1.8095703125-.2763671875-3.6044921875-.8251953125-5.3837890625-.5498046875-1.7783203125-1.3740234375-3.3779296875-2.4736328125-4.8017578125-1.099609375-1.421875-2.4892578125-2.5703125-4.1708984375-3.443359375s-3.685546875-1.3095703125-6.013671875-1.3095703125-4.3330078125,.4365234375-6.013671875,1.3095703125c-1.6826171875,.873046875-3.072265625,2.021484375-4.1708984375,3.443359375-1.1005859375,1.423828125-1.9248046875,3.0234375-2.4736328125,4.8017578125-.55078125,1.779296875-.8251953125,3.57421875-.8251953125,5.3837890625Z" style="fill: #fff;"/>
    <path d="M123.189453125,347.5846252441h11.0576171875v7.46875h.1943359375c1.033203125-2.328125,2.828125-4.3798828125,5.3828125-6.16015625,2.5537109375-1.77734375,5.578125-2.6669921875,9.0703125-2.6669921875,3.0380859375,0,5.640625,.533203125,7.8076171875,1.6005859375,2.166015625,1.06640625,3.9443359375,2.4736328125,5.3349609375,4.2197265625s2.4091796875,3.7509765625,3.0556640625,6.013671875c.6455078125,2.2646484375,.970703125,4.5927734375,.970703125,6.984375v29.099609375h-11.640625v-25.8017578125c0-1.3583984375-.0966796875-2.7802734375-.291015625-4.2685546875-.193359375-1.486328125-.615234375-2.828125-1.2607421875-4.025390625-.6474609375-1.1953125-1.537109375-2.1826171875-2.66796875-2.9580078125-1.1318359375-.7763671875-2.634765625-1.1640625-4.509765625-1.1640625-1.876953125,0-3.4921875,.373046875-4.8505859375,1.115234375-1.357421875,.744140625-2.4736328125,1.697265625-3.3466796875,2.861328125-.8720703125,1.1640625-1.5361328125,2.5068359375-1.98828125,4.025390625-.453125,1.5205078125-.6787109375,3.0556640625-.6787109375,4.607421875v25.6083984375h-11.6396484375v-46.5595703125Z" style="fill: #fff;"/>
    <path d="M175.1796875,347.5846252441h11.0571289062v7.46875h.1943359375c1.033203125-2.328125,2.828125-4.3798828125,5.3828125-6.16015625,2.5537109375-1.77734375,5.578125-2.6669921875,9.0703125-2.6669921875,3.0380859375,0,5.640625,.533203125,7.8076171875,1.6005859375,2.166015625,1.06640625,3.9443359375,2.4736328125,5.3349609375,4.2197265625s2.4091796875,3.7509765625,3.0556640625,6.013671875c.6455078125,2.2646484375,.970703125,4.5927734375,.970703125,6.984375v29.099609375h-11.640625v-25.8017578125c0-1.3583984375-.0966796875-2.7802734375-.291015625-4.2685546875-.193359375-1.486328125-.615234375-2.828125-1.2607421875-4.025390625-.6474609375-1.1953125-1.537109375-2.1826171875-2.66796875-2.9580078125-1.1318359375-.7763671875-2.634765625-1.1640625-4.509765625-1.1640625-1.876953125,0-3.4921875,.373046875-4.8505859375,1.115234375-1.357421875,.744140625-2.4736328125,1.697265625-3.3466796875,2.861328125-.8720703125,1.1640625-1.5361328125,2.5068359375-1.98828125,4.025390625-.453125,1.5205078125-.6787109375,3.0556640625-.6787109375,4.607421875v25.6083984375h-11.6391601562v-46.5595703125Z" style="fill: #fff;"/>
    <path d="M271.5952148438,371.4459533691v1.5517578125c0,.5185546875-.033203125,1.0361328125-.0966796875,1.552734375h-35.4052734375c.12890625,1.681640625,.5654296875,3.2177734375,1.3095703125,4.607421875,.7421875,1.3916015625,1.7294921875,2.5869140625,2.9580078125,3.5888671875,1.2275390625,1.0029296875,2.619140625,1.794921875,4.1708984375,2.3759765625,1.552734375,.58203125,3.16796875,.873046875,4.8505859375,.873046875,2.91015625,0,5.3662109375-.533203125,7.3720703125-1.599609375,2.0029296875-1.0673828125,3.65234375-2.5380859375,4.9462890625-4.4140625l7.7607421875,6.2080078125c-4.5927734375,6.2080078125-11.251953125,9.3125-19.982421875,9.3125-3.6220703125,0-6.9521484375-.5673828125-9.9912109375-1.6982421875-3.0400390625-1.1298828125-5.673828125-2.73046875-7.9052734375-4.80078125-2.2314453125-2.0693359375-3.9765625-4.607421875-5.23828125-7.615234375-1.2607421875-3.0068359375-1.8916015625-6.4169921875-1.8916015625-10.2333984375,0-3.7490234375,.630859375-7.1611328125,1.8916015625-10.2333984375,1.26171875-3.0703125,2.990234375-5.689453125,5.189453125-7.8564453125,2.1982421875-2.166015625,4.8017578125-3.8466796875,7.80859375-5.0439453125,3.0068359375-1.1962890625,6.2568359375-1.794921875,9.7490234375-1.794921875,3.232421875,0,6.22265625,.533203125,8.97265625,1.6005859375,2.7470703125,1.06640625,5.1240234375,2.65234375,7.12890625,4.7529296875,2.00390625,2.1025390625,3.572265625,4.720703125,4.705078125,7.857421875,1.1298828125,3.13671875,1.697265625,6.806640625,1.697265625,11.0087890625Zm-11.640625-5.2373046875c0-1.4873046875-.2099609375-2.91015625-.6298828125-4.2685546875-.421875-1.357421875-1.083984375-2.5537109375-1.98828125-3.5888671875-.90625-1.033203125-2.0537109375-1.8583984375-3.4443359375-2.4736328125-1.390625-.61328125-3.0234375-.921875-4.8984375-.921875-3.4912109375,0-6.4501953125,1.052734375-8.875,3.1533203125-2.4248046875,2.1015625-3.767578125,4.80078125-4.025390625,8.099609375h23.861328125Z" style="fill: #fff;"/>
    <path d="M312.1391601562,360.4850158691c-.90625-1.29296875-2.263671875-2.3759765625-4.07421875-3.2490234375s-3.6533203125-1.3095703125-5.5283203125-1.3095703125c-2.1337890625,0-4.0107421875,.4365234375-5.6259765625,1.3095703125-1.6171875,.873046875-2.958984375,2.021484375-4.025390625,3.443359375-1.0673828125,1.4228515625-1.8603515625,3.0234375-2.376953125,4.8017578125-.5185546875,1.779296875-.7763671875,3.5732421875-.7763671875,5.3828125,0,1.8115234375,.2744140625,3.60546875,.8251953125,5.3837890625,.548828125,1.779296875,1.373046875,3.3798828125,2.4736328125,4.8017578125,1.0986328125,1.4228515625,2.47265625,2.5703125,4.1220703125,3.443359375s3.572265625,1.3095703125,5.771484375,1.3095703125c1.8095703125,0,3.62109375-.3544921875,5.431640625-1.0673828125,1.8095703125-.7109375,3.2646484375-1.74609375,4.365234375-3.103515625l7.275390625,7.3720703125c-1.9404296875,2.0703125-4.4140625,3.6708984375-7.4208984375,4.80078125-3.0068359375,1.130859375-6.255859375,1.6982421875-9.748046875,1.6982421875-3.4287109375,0-6.677734375-.55078125-9.7490234375-1.6494140625-3.072265625-1.0986328125-5.755859375-2.7158203125-8.05078125-4.849609375-2.2958984375-2.134765625-4.107421875-4.7197265625-5.431640625-7.7607421875-1.326171875-3.0380859375-1.9892578125-6.4990234375-1.9892578125-10.37890625,0-3.7490234375,.6630859375-7.14453125,1.9892578125-10.1845703125,1.32421875-3.0390625,3.119140625-5.6259765625,5.3828125-7.759765625,2.2626953125-2.134765625,4.8984375-3.783203125,7.90625-4.947265625,3.0068359375-1.1640625,6.22265625-1.74609375,9.6513671875-1.74609375,3.4267578125,0,6.7412109375,.6474609375,9.9423828125,1.9404296875,3.201171875,1.2939453125,5.73828125,3.0712890625,7.6142578125,5.3349609375l-7.9541015625,6.9833984375Z" style="fill: #fff;"/>
    <path d="M322.3237304688,356.8961486816v-9.3115234375h8.1484375v-13.4833984375h11.4453125v13.4833984375h11.640625v9.3115234375h-11.640625v21.630859375c0,2.0703125,.37109375,3.783203125,1.1162109375,5.1416015625,.7421875,1.357421875,2.408203125,2.0361328125,4.9951171875,2.0361328125,.7763671875,0,1.615234375-.080078125,2.521484375-.2421875,.9052734375-.16015625,1.712890625-.4033203125,2.42578125-.7275390625l.3876953125,9.1181640625c-1.03515625,.3876953125-2.2646484375,.6943359375-3.6865234375,.921875-1.4228515625,.2255859375-2.7802734375,.3388671875-4.0732421875,.3388671875-3.1044921875,0-5.6259765625-.4365234375-7.56640625-1.3095703125-1.939453125-.873046875-3.4765625-2.068359375-4.607421875-3.5888671875-1.1318359375-1.5185546875-1.908203125-3.2646484375-2.328125-5.2373046875-.4208984375-1.97265625-.6298828125-4.08984375-.6298828125-6.353515625v-21.728515625h-8.1484375Z" style="fill: #fff;"/>
  </g>
  <path d="M305.8621734037,217.0610681798V77.0814452682c0-2.565815568-1.4254598904-4.8465473145-3.5636361319-6.1294516999L181.1349087866,.9621821125c-2.1381762415-1.2829094833-4.9890960224-1.2829094833-7.1272722638,0L107.2963705802,39.4494564154l14.2545377306,24.6603623047,12.4014521078-7.1272722638c20.3840030247-11.8312708704,46.6123535365-4.7039986066,58.4436244069,15.679997621,11.8312708704,20.3840030247,4.7039986066,46.6123671307-15.6800044181,58.4436380011l-12.4014521078,7.1272722638,14.2545445277,24.6603555077,12.4014521078-7.1272722638c20.3840030247-11.8312708704,46.6123671307-4.7039986066,58.4436380011,15.6800044181s4.7039986066,46.6123671307-15.6800044181,58.4436380011l-12.4014521078,7.1272722638,14.2545581219,24.6603555077,66.7112727396-38.4872811001c2.1381762415-1.2829111826,3.5636361319-3.5636361319,3.5636361319-6.129458497Z" style="fill: #fff; opacity: .5;"/>
  <path d="M201.5189118113,174.4399833046l-30.9323627126,17.8181806596-35.6363613192-61.7221767173,30.9323627126-17.8181806596c10.2632758663-5.8443610813,13.6843632903-18.9585431343,7.8400022091-29.2218190006s-18.9585431343-13.6843632903-29.2218190006-7.8400022091l-30.9323627126,17.8181806596-24.9454529234-43.1912661125-35.9214553364,20.6690868463c-2.1381830386,1.2829111826-3.5636361319,3.5636361319-3.5636361319,6.129458497V216.9185466603c0,2.5658223651,1.4254530933,4.8465473145,3.5636361319,6.129458497l121.1636250866,69.9898114558c2.1381762415,1.2829111826,4.9890960224,1.2829111826,7.1272722638,0l35.9214587349-20.6691004405-24.9454529234-43.1912797067,30.9323627126-17.8181806596c10.2632622721-5.8443610813,13.6843496961-18.9585431343,7.8399886149-29.2218190006-5.8443610813-10.2632758663-18.9585431343-13.6843632903-29.2218190006-7.8400022091,0,0,0,.1425487079,.0000135942,.1425487079Z" style="fill: #fff;"/>
</svg>