<?xml version="1.0" encoding="UTF-8"?>
<svg id="Layer_1" data-name="Layer 1" xmlns="http://www.w3.org/2000/svg" viewBox="0 0 571.2211914062 507.6621095219">
  <path d="M292.2333068848,72.9300157108l-30.6000137329,198.0000076294,124.2000198364-72c1.7999725342-.8999938965,2.7000274658-2.7000274658,3.5999450684-5.3999938965L418.2332458496,6.3300344028c.9000549316-4.5-4.5-8.1000137329-8.0999450684-5.3999862671l-114.2999725342,65.6999874115c-2.7000274658,2.6999969482-3.6000213623,4.5-3.6000213623,6.2999725342v.0000076294Z" style="fill: #fff;"/>
  <path d="M267.0332870483,100.8300019779h0l-81,45.8999786377c-4.5,2.7000274658-4.5,9,0,11.7000274658l17.1000137329,9.8999786377-54,29.7000427246c-4.5,2.7000274658-4.5,9,0,11.7000274658l93.6000137329,55.7999725342h0l24.2999725342-164.7000274658Z" style="fill: #fff; opacity: .5;"/>
  <g>
    <path d="M53.955078125,347.2041017094c-1.8486328125-2.5068359375-4.2568359375-4.3388671875-7.2270507812-5.494140625-2.9702148438-1.154296875-5.875-1.732421875-8.7119140625-1.732421875-3.6303710938,0-6.9301757812,.66015625-9.8999023438,1.9794921875-2.9702148438,1.3212890625-5.5288085938,3.1357421875-7.6728515625,5.4453125-2.1455078125,2.310546875-3.7958984375,5.0166015625-4.9497070312,8.1181640625-1.1557617188,3.1025390625-1.732421875,6.46875-1.732421875,10.09765625,0,3.8291015625,.5595703125,7.326171875,1.6826171875,10.494140625,1.1215820312,3.16796875,2.72265625,5.890625,4.8017578125,8.16796875,2.0791015625,2.2763671875,4.5693359375,4.04296875,7.474609375,5.2958984375,2.9033203125,1.2548828125,6.1704101562,1.880859375,9.80078125,1.880859375,3.7622070312,0,7.0942382812-.7421875,9.9990234375-2.2275390625,2.9033203125-1.484375,5.2470703125-3.447265625,7.0288085938-5.890625l9.9995117188,7.029296875c-3.103515625,3.8955078125-6.8979492188,6.9150390625-11.3852539062,9.05859375-4.4892578125,2.1435546875-9.7358398438,3.2177734375-15.7412109375,3.2177734375-5.4790039062,0-10.5107421875-.908203125-15.0971679688-2.72265625-4.5883789062-1.814453125-8.53125-4.3564453125-11.8305664062-7.623046875-3.3012695312-3.2666015625-5.875-7.16015625-7.7221679688-11.681640625-1.8486328125-4.5205078125-2.7719726562-9.51953125-2.7719726562-14.9990234375,0-5.6083984375,.9731445312-10.6748046875,2.9204101562-15.1962890625,1.9462890625-4.5205078125,4.619140625-8.365234375,8.0190429688-11.533203125,3.3984375-3.16796875,7.408203125-5.609375,12.0288085938-7.326171875,4.6186523438-1.7158203125,9.6352539062-2.57421875,15.0478515625-2.57421875,2.2426757812,0,4.5864257812,.21484375,7.0288085938,.6435546875,2.4409179688,.4296875,4.7846679688,1.0888671875,7.029296875,1.9794921875,2.2426757812,.8916015625,4.3559570312,1.9970703125,6.3359375,3.3173828125s3.6625976562,2.904296875,5.0493164062,4.751953125l-9.5043945312,7.5234375Z" style="fill: #fff;"/>
    <path d="M67.1235351562,376.9042970219c0-3.76171875,.67578125-7.177734375,2.029296875-10.24609375,1.3515625-3.0693359375,3.18359375-5.693359375,5.494140625-7.87109375,2.3095703125-2.177734375,5.048828125-3.8603515625,8.216796875-5.048828125,3.16796875-1.1875,6.5341796875-1.7822265625,10.0986328125-1.7822265625,3.5634765625,0,6.9296875,.5947265625,10.09765625,1.7822265625,3.16796875,1.1884765625,5.90625,2.87109375,8.216796875,5.048828125,2.3095703125,2.177734375,4.1416015625,4.8017578125,5.4951171875,7.87109375,1.3515625,3.068359375,2.029296875,6.484375,2.029296875,10.24609375s-.677734375,7.1943359375-2.029296875,10.2958984375c-1.353515625,3.103515625-3.185546875,5.7587890625-5.4951171875,7.9697265625-2.310546875,2.2119140625-5.048828125,3.9443359375-8.216796875,5.197265625s-6.5341796875,1.880859375-10.09765625,1.880859375c-3.564453125,0-6.9306640625-.6279296875-10.0986328125-1.880859375s-5.9072265625-2.9853515625-8.216796875-5.197265625c-2.310546875-2.2109375-4.142578125-4.8662109375-5.494140625-7.9697265625-1.353515625-3.1015625-2.029296875-6.5341796875-2.029296875-10.2958984375Zm12.0771484375,0c0,1.8486328125,.2802734375,3.697265625,.841796875,5.5439453125,.560546875,1.8486328125,1.4013671875,3.4990234375,2.5244140625,4.9501953125,1.1220703125,1.4521484375,2.5400390625,2.640625,4.2568359375,3.5634765625,1.7158203125,.92578125,3.7626953125,1.38671875,6.138671875,1.38671875s4.4208984375-.4609375,6.1376953125-1.38671875c1.7158203125-.9228515625,3.1337890625-2.111328125,4.2568359375-3.5634765625,1.1220703125-1.451171875,1.962890625-3.1015625,2.5244140625-4.9501953125,.560546875-1.8466796875,.841796875-3.6953125,.841796875-5.5439453125,0-1.8466796875-.28125-3.6787109375-.841796875-5.494140625-.5615234375-1.814453125-1.40234375-3.4482421875-2.5244140625-4.900390625-1.123046875-1.451171875-2.541015625-2.6240234375-4.2568359375-3.5146484375-1.716796875-.8916015625-3.76171875-1.3369140625-6.1376953125-1.3369140625s-4.4228515625,.4453125-6.138671875,1.3369140625c-1.716796875,.890625-3.134765625,2.0634765625-4.2568359375,3.5146484375-1.123046875,1.4521484375-1.9638671875,3.0859375-2.5244140625,4.900390625-.5615234375,1.8154296875-.841796875,3.6474609375-.841796875,5.494140625Z" style="fill: #fff;"/>
    <path d="M129.6889648438,353.3427735844h11.2861328125v7.6220703125h.1982421875c1.0546875-2.3759765625,2.8857421875-4.4697265625,5.494140625-6.2861328125,2.6064453125-1.814453125,5.6923828125-2.72265625,9.2568359375-2.72265625,3.1015625,0,5.7568359375,.544921875,7.96875,1.6337890625,2.2109375,1.0888671875,4.025390625,2.5244140625,5.4453125,4.306640625,1.4189453125,1.7822265625,2.4580078125,3.828125,3.119140625,6.1376953125,.658203125,2.3115234375,.9892578125,4.6875,.9892578125,7.1279296875v29.7001953125h-11.8798828125v-26.333984375c0-1.3857421875-.0986328125-2.8369140625-.296875-4.3564453125-.1982421875-1.5166015625-.6279296875-2.8857421875-1.287109375-4.1083984375-.66015625-1.2197265625-1.568359375-2.2275390625-2.72265625-3.01953125-1.1552734375-.7919921875-2.689453125-1.1875-4.603515625-1.1875-1.9150390625,0-3.5634765625,.380859375-4.94921875,1.138671875-1.38671875,.7587890625-2.525390625,1.732421875-3.416015625,2.919921875-.890625,1.1884765625-1.568359375,2.55859375-2.029296875,4.1083984375-.462890625,1.5517578125-.693359375,3.119140625-.693359375,4.703125v26.1357421875h-11.8798828125v-47.51953125Z" style="fill: #fff;"/>
    <path d="M179.8803710938,362.8466798344v-9.50390625h8.31640625v-13.76171875h11.681640625v13.76171875h11.8798828125v9.50390625h-11.8798828125v22.076171875c0,2.11328125,.37890625,3.861328125,1.138671875,5.2470703125,.7578125,1.38671875,2.4580078125,2.0791015625,5.0986328125,2.0791015625,.7919921875,0,1.6484375-.08203125,2.57421875-.2470703125,.9228515625-.1640625,1.7470703125-.4111328125,2.474609375-.7421875l.3955078125,9.3056640625c-1.0556640625,.3955078125-2.310546875,.7080078125-3.76171875,.9404296875-1.4521484375,.23046875-2.837890625,.3466796875-4.158203125,.3466796875-3.16796875,0-5.7412109375-.4453125-7.7216796875-1.3369140625-1.9794921875-.890625-3.548828125-2.111328125-4.7021484375-3.6630859375-1.15625-1.5498046875-1.9482421875-3.33203125-2.3759765625-5.345703125-.4306640625-2.0126953125-.6435546875-4.173828125-.6435546875-6.484375v-22.17578125h-8.31640625Z" style="fill: #fff;"/>
    <path d="M265.1186523438,377.6962892094v1.583984375c0,.529296875-.0341796875,1.056640625-.0986328125,1.583984375h-36.134765625c.130859375,1.716796875,.576171875,3.2841796875,1.3359375,4.7021484375,.7578125,1.4208984375,1.765625,2.640625,3.01953125,3.6630859375,1.2529296875,1.0244140625,2.6728515625,1.83203125,4.2568359375,2.42578125s3.2333984375,.890625,4.9501953125,.890625c2.9697265625,0,5.4775390625-.5439453125,7.5244140625-1.6328125,2.044921875-1.0888671875,3.7275390625-2.58984375,5.048828125-4.5048828125l7.919921875,6.3359375c-4.6875,6.3359375-11.484375,9.50390625-20.3935546875,9.50390625-3.697265625,0-7.095703125-.578125-10.197265625-1.732421875-3.103515625-1.1533203125-5.7919921875-2.787109375-8.068359375-4.900390625-2.27734375-2.111328125-4.0595703125-4.7021484375-5.3466796875-7.771484375s-1.9296875-6.5498046875-1.9296875-10.4443359375c0-3.8271484375,.642578125-7.3095703125,1.9296875-10.4443359375,1.287109375-3.1337890625,3.052734375-5.8076171875,5.296875-8.01953125,2.2431640625-2.2099609375,4.900390625-3.92578125,7.9697265625-5.1474609375,3.068359375-1.220703125,6.3857421875-1.83203125,9.94921875-1.83203125,3.2998046875,0,6.3515625,.544921875,9.1572265625,1.6337890625,2.8046875,1.0888671875,5.23046875,2.70703125,7.2763671875,4.8505859375,2.0458984375,2.1455078125,3.646484375,4.8193359375,4.8017578125,8.01953125,1.154296875,3.2021484375,1.732421875,6.947265625,1.732421875,11.236328125Zm-11.8798828125-5.345703125c0-1.517578125-.21484375-2.970703125-.6435546875-4.3564453125-.4296875-1.3857421875-1.10546875-2.6064453125-2.029296875-3.6630859375-.9248046875-1.0546875-2.095703125-1.896484375-3.5146484375-2.5244140625-1.419921875-.6259765625-3.0859375-.9404296875-4.9990234375-.9404296875-3.564453125,0-6.583984375,1.0732421875-9.05859375,3.2177734375-2.4755859375,2.1455078125-3.845703125,4.900390625-4.1083984375,8.2666015625h24.353515625Z" style="fill: #fff;"/>
    <path d="M276.0083007812,353.3427735844h11.2861328125v7.6220703125h.1982421875c1.0546875-2.3759765625,2.8857421875-4.4697265625,5.494140625-6.2861328125,2.6064453125-1.814453125,5.6923828125-2.72265625,9.2568359375-2.72265625,3.1015625,0,5.7568359375,.544921875,7.96875,1.6337890625,2.2109375,1.0888671875,4.025390625,2.5244140625,5.4453125,4.306640625,1.4189453125,1.7822265625,2.4580078125,3.828125,3.119140625,6.1376953125,.658203125,2.3115234375,.9892578125,4.6875,.9892578125,7.1279296875v29.7001953125h-11.8798828125v-26.333984375c0-1.3857421875-.0986328125-2.8369140625-.296875-4.3564453125-.1982421875-1.5166015625-.6279296875-2.8857421875-1.287109375-4.1083984375-.66015625-1.2197265625-1.568359375-2.2275390625-2.72265625-3.01953125-1.1552734375-.7919921875-2.689453125-1.1875-4.603515625-1.1875-1.9150390625,0-3.5634765625,.380859375-4.94921875,1.138671875-1.38671875,.7587890625-2.525390625,1.732421875-3.416015625,2.919921875-.890625,1.1884765625-1.568359375,2.55859375-2.029296875,4.1083984375-.462890625,1.5517578125-.693359375,3.119140625-.693359375,4.703125v26.1357421875h-11.8798828125v-47.51953125Z" style="fill: #fff;"/>
    <path d="M326.1987304688,362.8466798344v-9.50390625h8.31640625v-13.76171875h11.681640625v13.76171875h11.8798828125v9.50390625h-11.8798828125v22.076171875c0,2.11328125,.37890625,3.861328125,1.138671875,5.2470703125,.7578125,1.38671875,2.4580078125,2.0791015625,5.0986328125,2.0791015625,.7919921875,0,1.6484375-.08203125,2.57421875-.2470703125,.9228515625-.1640625,1.7470703125-.4111328125,2.474609375-.7421875l.3955078125,9.3056640625c-1.0556640625,.3955078125-2.310546875,.7080078125-3.76171875,.9404296875-1.4521484375,.23046875-2.837890625,.3466796875-4.158203125,.3466796875-3.16796875,0-5.7412109375-.4453125-7.7216796875-1.3369140625-1.9794921875-.890625-3.548828125-2.111328125-4.7021484375-3.6630859375-1.15625-1.5498046875-1.9482421875-3.33203125-2.3759765625-5.345703125-.4306640625-2.0126953125-.6435546875-4.173828125-.6435546875-6.484375v-22.17578125h-8.31640625Z" style="fill: #fff;"/>
    <path d="M390.8452148438,330.7705079594h12.474609375v28.3134765625h32.7685546875v-28.3134765625h12.474609375v70.091796875h-12.474609375v-31.0859375h-32.7685546875v31.0859375h-12.474609375v-70.091796875Z" style="fill: #fff;"/>
    <path d="M506.1811523438,400.8623048344h-11.2861328125v-7.623046875h-.1982421875c-1.056640625,2.3759765625-2.8876953125,4.4716796875-5.494140625,6.2861328125-2.6083984375,1.814453125-5.6923828125,2.72265625-9.2568359375,2.72265625-3.1025390625,0-5.7587890625-.5439453125-7.9697265625-1.6328125-2.2119140625-1.08984375-4.0263671875-2.525390625-5.4443359375-4.306640625-1.419921875-1.7822265625-2.4599609375-3.8271484375-3.119140625-6.138671875-.66015625-2.3095703125-.9892578125-4.685546875-.9892578125-7.1279296875v-29.69921875h11.8798828125v26.333984375c0,1.3857421875,.0986328125,2.837890625,.296875,4.35546875,.1982421875,1.51953125,.6259765625,2.8876953125,1.287109375,4.1083984375,.658203125,1.22265625,1.56640625,2.2275390625,2.72265625,3.01953125,1.1533203125,.7919921875,2.6884765625,1.1884765625,4.603515625,1.1884765625,1.8466796875,0,3.48046875-.37890625,4.900390625-1.138671875,1.41796875-.7578125,2.5732421875-1.732421875,3.46484375-2.9208984375,.890625-1.1875,1.56640625-2.556640625,2.029296875-4.1083984375,.4609375-1.5498046875,.693359375-3.1181640625,.693359375-4.7021484375v-26.1357421875h11.8798828125v47.51953125Z" style="fill: #fff;"/>
    <path d="M531.9184570312,326.0185548344v33.3623046875h.296875c.59375-.7919921875,1.3515625-1.6162109375,2.27734375-2.474609375,.9228515625-.8564453125,2.029296875-1.6484375,3.31640625-2.3759765625,1.287109375-.7255859375,2.787109375-1.3369140625,4.50390625-1.8310546875,1.7158203125-.4951171875,3.6630859375-.7431640625,5.841796875-.7431640625,3.365234375,0,6.466796875,.6435546875,9.3056640625,1.9306640625,2.8369140625,1.287109375,5.279296875,3.0537109375,7.326171875,5.296875,2.044921875,2.244140625,3.62890625,4.884765625,4.751953125,7.919921875,1.12109375,3.0361328125,1.6826171875,6.3037109375,1.6826171875,9.80078125,0,3.4990234375-.5439453125,6.78125-1.6328125,9.8505859375-1.08984375,3.0693359375-2.640625,5.7421875-4.6533203125,8.0185546875-2.0146484375,2.27734375-4.455078125,4.09375-7.326171875,5.4453125s-6.1220703125,2.029296875-9.751953125,2.029296875c-3.365234375,0-6.517578125-.7265625-9.4541015625-2.177734375-2.9375-1.451171875-5.2314453125-3.564453125-6.880859375-6.3359375h-.197265625v7.1279296875h-11.2861328125v-74.84375h11.8798828125Zm27.224609375,50.8857421875c0-1.8466796875-.28125-3.6787109375-.8408203125-5.494140625-.5615234375-1.814453125-1.4033203125-3.4482421875-2.5244140625-4.900390625-1.123046875-1.451171875-2.5419921875-2.6240234375-4.2578125-3.5146484375-1.716796875-.8916015625-3.7294921875-1.3369140625-6.0390625-1.3369140625-2.177734375,0-4.125,.462890625-5.8408203125,1.3857421875-1.716796875,.92578125-3.1845703125,2.11328125-4.4052734375,3.564453125-1.2216796875,1.4521484375-2.1455078125,3.1025390625-2.771484375,4.9501953125-.62890625,1.8486328125-.94140625,3.6962890625-.94140625,5.5439453125,0,1.8486328125,.3125,3.6796875,.94140625,5.494140625,.6259765625,1.81640625,1.5498046875,3.44921875,2.771484375,4.900390625,1.220703125,1.453125,2.6884765625,2.6240234375,4.4052734375,3.5146484375,1.7158203125,.890625,3.6630859375,1.3369140625,5.8408203125,1.3369140625,2.3095703125,0,4.322265625-.4609375,6.0390625-1.38671875,1.7158203125-.9228515625,3.134765625-2.111328125,4.2578125-3.5634765625,1.12109375-1.451171875,1.962890625-3.1015625,2.5244140625-4.9501953125,.5595703125-1.8466796875,.8408203125-3.6953125,.8408203125-5.5439453125Z" style="fill: #fff;"/>
    <path d="M176.8100585938,437.5703126469h24.849609375c4.5537109375,0,9.140625,.59375,13.7607421875,1.7822265625,4.619140625,1.1875,8.77734375,3.15234375,12.4736328125,5.8896484375,3.6962890625,2.740234375,6.6982421875,6.3359375,9.009765625,10.791015625,2.30859375,4.455078125,3.46484375,9.984375,3.46484375,16.5830078125,0,6.1376953125-1.15625,11.4189453125-3.46484375,15.83984375-2.3115234375,4.4228515625-5.3134765625,8.052734375-9.009765625,10.8896484375-3.6962890625,2.8388671875-7.8544921875,4.9345703125-12.4736328125,6.287109375-4.6201171875,1.353515625-9.20703125,2.029296875-13.7607421875,2.029296875h-24.849609375v-70.091796875Zm22.869140625,59.2021484375c3.2333984375,0,6.4677734375-.37890625,9.7021484375-1.138671875,3.2333984375-.7578125,6.1533203125-2.044921875,8.76171875-3.861328125,2.6064453125-1.814453125,4.734375-4.2724609375,6.3857421875-7.375,1.6484375-3.1015625,2.474609375-7.029296875,2.474609375-11.78125,0-5.0146484375-.826171875-9.1083984375-2.474609375-12.2763671875-1.6513671875-3.16796875-3.779296875-5.642578125-6.3857421875-7.4248046875-2.6083984375-1.7822265625-5.5283203125-3.001953125-8.76171875-3.6630859375-3.234375-.6591796875-6.46875-.990234375-9.7021484375-.990234375h-10.39453125v48.5107421875h10.39453125Z" style="fill: #fff;"/>
    <path d="M271.4545898438,437.5703126469h10.791015625l30.1943359375,70.091796875h-14.255859375l-6.533203125-16.0380859375h-30.3935546875l-6.3359375,16.0380859375h-13.958984375l30.4921875-70.091796875Zm15.83984375,43.361328125l-10.791015625-28.51171875-10.9892578125,28.51171875h21.7802734375Z" style="fill: #fff;"/>
    <path d="M318.7749023438,437.5703126469h19.5029296875l18.216796875,49.796875h.296875l18.017578125-49.796875h19.6025390625v70.091796875h-12.375v-56.3310546875h-.1982421875l-21.28515625,56.3310546875h-8.7119140625l-20.98828125-56.3310546875h-.1982421875v56.3310546875h-11.8798828125v-70.091796875Z" style="fill: #fff;"/>
  </g>
</svg>