<?xml version="1.0" encoding="UTF-8"?>
<svg id="Layer_1" data-name="Layer 1" xmlns="http://www.w3.org/2000/svg" viewBox="0 0 579.08203125 526.1298828125">
  <path d="M283.0565643311,171.6750183105l90.9000396729,51.2999725342,30.5999450684-18c1.7999572754-.8999786377,3.5999450684-3.6000213623,3.5999450684-5.3999786377V70.8750152588c0-2.6999969482-.9000549316-4.5-3.5999450684-5.3999862671l-30.5999450684-17.1000137329-90.9000549316,51.3000030518v72h.0000152588Z" style="fill: #fff; opacity: .5;"/>
  <path d="M263.2565307617,183.3750457764V87.075012207l90.8999633789-51.3000068665L292.9564819336,.6749897003c-1.799987793-.8999862671-4.5-.8999862671-6.299987793,0l-111.6000061035,63.8999843597c-1.7999725342,.8999862671-3.6000061035,3.6000137329-3.6000061035,5.3999862671V198.6750183105c0,2.7000274658,.8999938965,4.5,3.6000061035,5.3999938965l111.6000061035,63.8999938965c1.799987793,.8999938965,4.5,.8999938965,6.299987793,0l61.200012207-35.1000061035-90.8999938965-49.4999389648h.0000152588l.0000152588-.0000152588Z" style="fill: #fff;"/>
</svg>