<?xml version="1.0" encoding="UTF-8"?>
<svg id="Layer_1" data-name="Layer 1" xmlns="http://www.w3.org/2000/svg" viewBox="0 0 579.08203125 526.1298828125">
  <path d="M283.0565643311,171.6750183105l90.9000396729,51.2999725342,30.5999450684-18c1.7999572754-.8999786377,3.5999450684-3.6000213623,3.5999450684-5.3999786377V70.8750152588c0-2.6999969482-.9000549316-4.5-3.5999450684-5.3999862671l-30.5999450684-17.1000137329-90.9000549316,51.3000030518v72h.0000152588Z" style="fill: #fff; opacity: .5;"/>
  <path d="M263.2565307617,183.3750457764V87.075012207l90.8999633789-51.3000068665L292.9564819336,.6749897003c-1.799987793-.8999862671-4.5-.8999862671-6.299987793,0l-111.6000061035,63.8999843597c-1.7999725342,.8999862671-3.6000061035,3.6000137329-3.6000061035,5.3999862671V198.6750183105c0,2.7000274658,.8999938965,4.5,3.6000061035,5.3999938965l111.6000061035,63.8999938965c1.799987793,.8999938965,4.5,.8999938965,6.299987793,0l61.200012207-35.1000061035-90.8999938965-49.4999389648h.0000152588l.0000152588-.0000152588Z" style="fill: #fff;"/>
  <g>
    <path d="M52.865234375,343.076171875c-1.810546875-2.45703125-4.1708984375-4.2509765625-7.0810546875-5.3828125-2.91015625-1.130859375-5.755859375-1.6982421875-8.5361328125-1.6982421875-3.556640625,0-6.7900390625,.6474609375-9.69921875,1.9404296875-2.91015625,1.2939453125-5.4169921875,3.072265625-7.517578125,5.3349609375-2.1025390625,2.2646484375-3.7197265625,4.9150390625-4.8505859375,7.9541015625-1.1318359375,3.0400390625-1.697265625,6.337890625-1.697265625,9.8935546875,0,3.7509765625,.548828125,7.1787109375,1.6494140625,10.2822265625,1.0986328125,3.103515625,2.6669921875,5.771484375,4.7041015625,8.0029296875,2.037109375,2.23046875,4.4775390625,3.9609375,7.3232421875,5.189453125,2.8447265625,1.228515625,6.0458984375,1.8427734375,9.603515625,1.8427734375,3.685546875,0,6.9501953125-.7275390625,9.796875-2.1826171875,2.8447265625-1.455078125,5.140625-3.3779296875,6.88671875-5.771484375l9.796875,6.88671875c-3.0400390625,3.81640625-6.7578125,6.775390625-11.154296875,8.8759765625-4.3984375,2.1005859375-9.5400390625,3.15234375-15.423828125,3.15234375-5.3681640625,0-10.2978515625-.8896484375-14.7919921875-2.66796875-4.4951171875-1.77734375-8.3583984375-4.267578125-11.591796875-7.46875-3.234375-3.201171875-5.755859375-7.015625-7.5654296875-11.4462890625-1.8115234375-4.4287109375-2.716796875-9.3271484375-2.716796875-14.6953125,0-5.4951171875,.9541015625-10.458984375,2.8623046875-14.8896484375,1.90625-4.4287109375,4.525390625-8.1962890625,7.8564453125-11.2998046875,3.330078125-3.1044921875,7.2587890625-5.49609375,11.7861328125-7.1787109375,4.525390625-1.6806640625,9.4404296875-2.521484375,14.7431640625-2.521484375,2.1982421875,0,4.494140625,.2109375,6.8876953125,.630859375,2.3916015625,.4208984375,4.6875,1.06640625,6.88671875,1.939453125,2.197265625,.873046875,4.267578125,1.95703125,6.2080078125,3.25,1.9404296875,1.2939453125,3.5888671875,2.845703125,4.947265625,4.6552734375l-9.3125,7.3720703125Z" style="fill: #fff;"/>
    <path d="M67.70703125,372.1767578125c0-3.6865234375,.6630859375-7.033203125,1.9892578125-10.0400390625,1.32421875-3.0068359375,3.119140625-5.5771484375,5.3828125-7.7109375,2.2626953125-2.134765625,4.947265625-3.783203125,8.0517578125-4.947265625,3.103515625-1.1640625,6.4013671875-1.74609375,9.8935546875-1.74609375s6.7900390625,.58203125,9.8935546875,1.74609375c3.1044921875,1.1640625,5.787109375,2.8125,8.0517578125,4.947265625,2.2626953125,2.1337890625,4.056640625,4.7041015625,5.3828125,7.7109375,1.3251953125,3.0068359375,1.9892578125,6.353515625,1.9892578125,10.0400390625,0,3.685546875-.6640625,7.048828125-1.9892578125,10.087890625-1.326171875,3.0400390625-3.1201171875,5.642578125-5.3828125,7.80859375-2.2646484375,2.1669921875-4.947265625,3.8642578125-8.0517578125,5.091796875-3.103515625,1.2275390625-6.4013671875,1.84375-9.8935546875,1.84375s-6.7900390625-.6162109375-9.8935546875-1.84375c-3.1044921875-1.2275390625-5.7890625-2.9248046875-8.0517578125-5.091796875-2.263671875-2.166015625-4.05859375-4.7685546875-5.3828125-7.80859375-1.326171875-3.0390625-1.9892578125-6.40234375-1.9892578125-10.087890625Zm11.833984375,0c0,1.810546875,.2744140625,3.6220703125,.8251953125,5.431640625,.548828125,1.8115234375,1.373046875,3.4287109375,2.4736328125,4.849609375,1.0986328125,1.423828125,2.48828125,2.587890625,4.1708984375,3.4921875,1.6806640625,.90625,3.685546875,1.3583984375,6.013671875,1.3583984375s4.33203125-.4521484375,6.013671875-1.3583984375c1.681640625-.904296875,3.0712890625-2.068359375,4.1708984375-3.4921875,1.099609375-1.4208984375,1.923828125-3.0380859375,2.4736328125-4.849609375,.548828125-1.8095703125,.8251953125-3.62109375,.8251953125-5.431640625,0-1.8095703125-.2763671875-3.6044921875-.8251953125-5.3837890625-.5498046875-1.7783203125-1.3740234375-3.3779296875-2.4736328125-4.8017578125-1.099609375-1.421875-2.4892578125-2.5703125-4.1708984375-3.443359375s-3.685546875-1.3095703125-6.013671875-1.3095703125-4.3330078125,.4365234375-6.013671875,1.3095703125c-1.6826171875,.873046875-3.072265625,2.021484375-4.1708984375,3.443359375-1.1005859375,1.423828125-1.9248046875,3.0234375-2.4736328125,4.8017578125-.55078125,1.779296875-.8251953125,3.57421875-.8251953125,5.3837890625Z" style="fill: #fff;"/>
    <path d="M130.9501953125,349.0908203125h11.0576171875v7.46875h.1943359375c1.033203125-2.328125,2.828125-4.3798828125,5.3828125-6.16015625,2.5537109375-1.77734375,5.578125-2.6669921875,9.0703125-2.6669921875,3.0380859375,0,5.640625,.533203125,7.8076171875,1.6005859375,2.166015625,1.06640625,3.9443359375,2.4736328125,5.3349609375,4.2197265625s2.4091796875,3.7509765625,3.0556640625,6.013671875c.6455078125,2.2646484375,.970703125,4.5927734375,.970703125,6.984375v29.099609375h-11.640625v-25.8017578125c0-1.3583984375-.0966796875-2.7802734375-.291015625-4.2685546875-.193359375-1.486328125-.615234375-2.828125-1.2607421875-4.025390625-.6474609375-1.1953125-1.537109375-2.1826171875-2.66796875-2.9580078125-1.1318359375-.7763671875-2.634765625-1.1640625-4.509765625-1.1640625-1.876953125,0-3.4921875,.373046875-4.8505859375,1.115234375-1.357421875,.744140625-2.4736328125,1.697265625-3.3466796875,2.861328125-.8720703125,1.1640625-1.5361328125,2.5068359375-1.98828125,4.025390625-.453125,1.5205078125-.6787109375,3.0556640625-.6787109375,4.607421875v25.6083984375h-11.6396484375v-46.5595703125Z" style="fill: #fff;"/>
    <path d="M182.0673828125,358.40234375v-9.3115234375h8.1484375v-13.4833984375h11.4453125v13.4833984375h11.640625v9.3115234375h-11.640625v21.630859375c0,2.0703125,.37109375,3.783203125,1.1162109375,5.1416015625,.7421875,1.357421875,2.408203125,2.0361328125,4.9951171875,2.0361328125,.7763671875,0,1.615234375-.080078125,2.521484375-.2421875,.9052734375-.16015625,1.712890625-.4033203125,2.42578125-.7275390625l.3876953125,9.1181640625c-1.03515625,.3876953125-2.2646484375,.6943359375-3.6865234375,.921875-1.4228515625,.2255859375-2.7802734375,.3388671875-4.0732421875,.3388671875-3.1044921875,0-5.6259765625-.4365234375-7.56640625-1.3095703125-1.939453125-.873046875-3.4765625-2.068359375-4.607421875-3.5888671875-1.1318359375-1.5185546875-1.908203125-3.2646484375-2.328125-5.2373046875-.4208984375-1.97265625-.6298828125-4.08984375-.6298828125-6.353515625v-21.728515625h-8.1484375Z" style="fill: #fff;"/>
    <path d="M267.5234375,372.9521484375v1.5517578125c0,.5185546875-.033203125,1.0361328125-.0966796875,1.552734375h-35.4052734375c.12890625,1.681640625,.5654296875,3.2177734375,1.3095703125,4.607421875,.7421875,1.3916015625,1.7294921875,2.5869140625,2.9580078125,3.5888671875,1.2275390625,1.0029296875,2.619140625,1.794921875,4.1708984375,2.3759765625,1.552734375,.58203125,3.16796875,.873046875,4.8505859375,.873046875,2.91015625,0,5.3662109375-.533203125,7.3720703125-1.599609375,2.0029296875-1.0673828125,3.65234375-2.5380859375,4.9462890625-4.4140625l7.7607421875,6.2080078125c-4.5927734375,6.2080078125-11.251953125,9.3125-19.982421875,9.3125-3.6220703125,0-6.9521484375-.5673828125-9.9912109375-1.6982421875-3.0400390625-1.1298828125-5.673828125-2.73046875-7.9052734375-4.80078125-2.2314453125-2.0693359375-3.9765625-4.607421875-5.23828125-7.615234375-1.2607421875-3.0068359375-1.8916015625-6.4169921875-1.8916015625-10.2333984375,0-3.7490234375,.630859375-7.1611328125,1.8916015625-10.2333984375,1.26171875-3.0703125,2.990234375-5.689453125,5.189453125-7.8564453125,2.1982421875-2.166015625,4.8017578125-3.8466796875,7.80859375-5.0439453125,3.0068359375-1.1962890625,6.2568359375-1.794921875,9.7490234375-1.794921875,3.232421875,0,6.22265625,.533203125,8.97265625,1.6005859375,2.7470703125,1.06640625,5.1240234375,2.65234375,7.12890625,4.7529296875,2.00390625,2.1025390625,3.572265625,4.720703125,4.705078125,7.857421875,1.1298828125,3.13671875,1.697265625,6.806640625,1.697265625,11.0087890625Zm-11.640625-5.2373046875c0-1.4873046875-.2099609375-2.91015625-.6298828125-4.2685546875-.421875-1.357421875-1.083984375-2.5537109375-1.98828125-3.5888671875-.90625-1.033203125-2.0537109375-1.8583984375-3.4443359375-2.4736328125-1.390625-.61328125-3.0234375-.921875-4.8984375-.921875-3.4912109375,0-6.4501953125,1.052734375-8.875,3.1533203125-2.4248046875,2.1015625-3.767578125,4.80078125-4.025390625,8.099609375h23.861328125Z" style="fill: #fff;"/>
    <path d="M280.1328125,349.0908203125h11.0576171875v7.46875h.1943359375c1.033203125-2.328125,2.828125-4.3798828125,5.3828125-6.16015625,2.5537109375-1.77734375,5.578125-2.6669921875,9.0703125-2.6669921875,3.0380859375,0,5.640625,.533203125,7.8076171875,1.6005859375,2.166015625,1.06640625,3.9443359375,2.4736328125,5.3349609375,4.2197265625s2.4091796875,3.7509765625,3.0556640625,6.013671875c.6455078125,2.2646484375,.970703125,4.5927734375,.970703125,6.984375v29.099609375h-11.640625v-25.8017578125c0-1.3583984375-.0966796875-2.7802734375-.291015625-4.2685546875-.193359375-1.486328125-.615234375-2.828125-1.2607421875-4.025390625-.6474609375-1.1953125-1.537109375-2.1826171875-2.66796875-2.9580078125-1.1318359375-.7763671875-2.634765625-1.1640625-4.509765625-1.1640625-1.876953125,0-3.4921875,.373046875-4.8505859375,1.115234375-1.357421875,.744140625-2.4736328125,1.697265625-3.3466796875,2.861328125-.8720703125,1.1640625-1.5361328125,2.5068359375-1.98828125,4.025390625-.453125,1.5205078125-.6787109375,3.0556640625-.6787109375,4.607421875v25.6083984375h-11.6396484375v-46.5595703125Z" style="fill: #fff;"/>
    <path d="M331.25,358.40234375v-9.3115234375h8.1484375v-13.4833984375h11.4453125v13.4833984375h11.640625v9.3115234375h-11.640625v21.630859375c0,2.0703125,.37109375,3.783203125,1.1162109375,5.1416015625,.7421875,1.357421875,2.408203125,2.0361328125,4.9951171875,2.0361328125,.7763671875,0,1.615234375-.080078125,2.521484375-.2421875,.9052734375-.16015625,1.712890625-.4033203125,2.42578125-.7275390625l.3876953125,9.1181640625c-1.03515625,.3876953125-2.2646484375,.6943359375-3.6865234375,.921875-1.4228515625,.2255859375-2.7802734375,.3388671875-4.0732421875,.3388671875-3.1044921875,0-5.6259765625-.4365234375-7.56640625-1.3095703125-1.939453125-.873046875-3.4765625-2.068359375-4.607421875-3.5888671875-1.1318359375-1.5185546875-1.908203125-3.2646484375-2.328125-5.2373046875-.4208984375-1.97265625-.6298828125-4.08984375-.6298828125-6.353515625v-21.728515625h-8.1484375Z" style="fill: #fff;"/>
    <path d="M398.470703125,326.974609375h12.2216796875v27.7421875h32.1064453125v-27.7421875h12.22265625v68.67578125h-12.22265625v-30.4580078125h-32.1064453125v30.4580078125h-12.2216796875v-68.67578125Z" style="fill: #fff;"/>
    <path d="M513.4140625,395.650390625h-11.0576171875v-7.46875h-.1943359375c-1.03515625,2.328125-2.8291015625,4.3818359375-5.3828125,6.1591796875-2.5556640625,1.7783203125-5.578125,2.66796875-9.0703125,2.66796875-3.0400390625,0-5.642578125-.5341796875-7.80859375-1.6005859375-2.1669921875-1.0673828125-3.9443359375-2.4736328125-5.3349609375-4.2197265625s-2.4091796875-3.75-3.0546875-6.013671875c-.6474609375-2.263671875-.970703125-4.5908203125-.970703125-6.984375v-29.099609375h11.640625v25.8017578125c0,1.357421875,.0966796875,2.78125,.291015625,4.267578125,.193359375,1.48828125,.61328125,2.830078125,1.2607421875,4.025390625,.6455078125,1.197265625,1.53515625,2.1826171875,2.6669921875,2.958984375,1.130859375,.775390625,2.634765625,1.1640625,4.5107421875,1.1640625,1.8095703125,0,3.41015625-.37109375,4.8017578125-1.115234375,1.3896484375-.7431640625,2.521484375-1.6982421875,3.39453125-2.8623046875s1.5361328125-2.5048828125,1.9892578125-4.025390625c.451171875-1.5185546875,.6787109375-3.0556640625,.6787109375-4.607421875v-25.607421875h11.6396484375v46.5595703125Z" style="fill: #fff;"/>
    <path d="M540.5732421875,322.318359375v32.689453125h.291015625c.58203125-.7763671875,1.32421875-1.583984375,2.23046875-2.42578125,.9052734375-.8388671875,1.98828125-1.615234375,3.25-2.328125,1.2607421875-.7099609375,2.73046875-1.30859375,4.4130859375-1.7939453125,1.6806640625-.4853515625,3.5888671875-.7275390625,5.72265625-.7275390625,3.298828125,0,6.3369140625,.630859375,9.1181640625,1.8916015625,2.7802734375,1.2607421875,5.1728515625,2.9921875,7.1787109375,5.189453125,2.0029296875,2.19921875,3.5556640625,4.7861328125,4.6552734375,7.759765625,1.0986328125,2.9755859375,1.6494140625,6.1767578125,1.6494140625,9.603515625,0,3.427734375-.533203125,6.64453125-1.6005859375,9.6513671875s-2.5869140625,5.6259765625-4.55859375,7.8564453125c-1.9736328125,2.2314453125-4.365234375,4.0107421875-7.1787109375,5.3349609375-2.8125,1.3251953125-5.9990234375,1.9892578125-9.5546875,1.9892578125-3.2978515625,0-6.38671875-.712890625-9.2626953125-2.134765625-2.87890625-1.4208984375-5.1259765625-3.4912109375-6.7421875-6.2080078125h-.193359375v6.984375h-11.05859375v-73.33203125h11.640625Zm26.6748046875,49.8583984375c0-1.8095703125-.2763671875-3.6044921875-.82421875-5.3837890625-.55078125-1.7783203125-1.375-3.3779296875-2.4736328125-4.8017578125-1.1005859375-1.421875-2.490234375-2.5703125-4.1708984375-3.443359375-1.6826171875-.873046875-3.654296875-1.3095703125-5.9169921875-1.3095703125-2.134765625,0-4.04296875,.453125-5.7236328125,1.3583984375-1.6826171875,.90625-3.1201171875,2.0703125-4.31640625,3.4921875-1.197265625,1.4228515625-2.1025390625,3.0400390625-2.7158203125,4.849609375-.615234375,1.8115234375-.921875,3.6220703125-.921875,5.431640625,0,1.8115234375,.306640625,3.60546875,.921875,5.3837890625,.61328125,1.779296875,1.5185546875,3.3798828125,2.7158203125,4.8017578125,1.1962890625,1.4228515625,2.6337890625,2.5703125,4.31640625,3.443359375,1.6806640625,.873046875,3.5888671875,1.3095703125,5.7236328125,1.3095703125,2.2626953125,0,4.234375-.4521484375,5.9169921875-1.3583984375,1.6806640625-.904296875,3.0703125-2.068359375,4.1708984375-3.4921875,1.0986328125-1.4208984375,1.9228515625-3.0380859375,2.4736328125-4.849609375,.5478515625-1.8095703125,.82421875-3.62109375,.82421875-5.431640625Z" style="fill: #fff;"/>
    <path d="M35.9384765625,468.3173828125c0-5.4951171875,.921875-10.458984375,2.7646484375-14.8896484375,1.84375-4.4287109375,4.3974609375-8.1962890625,7.6630859375-11.2998046875,3.2646484375-3.1044921875,7.14453125-5.49609375,11.640625-7.1787109375,4.4931640625-1.6806640625,9.3916015625-2.521484375,14.6953125-2.521484375,5.3662109375,0,10.3134765625,.8408203125,14.8408203125,2.521484375,4.525390625,1.6826171875,8.4384765625,4.07421875,11.7373046875,7.1787109375,3.2978515625,3.103515625,5.8681640625,6.87109375,7.7109375,11.2998046875,1.8427734375,4.4306640625,2.7646484375,9.39453125,2.7646484375,14.8896484375,0,5.3681640625-.921875,10.2666015625-2.7646484375,14.6953125-1.8427734375,4.4306640625-4.4130859375,8.2451171875-7.7109375,11.4462890625-3.298828125,3.201171875-7.2119140625,5.69140625-11.7373046875,7.46875-4.52734375,1.7783203125-9.474609375,2.66796875-14.8408203125,2.66796875-5.3037109375,0-10.2021484375-.8896484375-14.6953125-2.66796875-4.49609375-1.77734375-8.3759765625-4.267578125-11.640625-7.46875-3.265625-3.201171875-5.8193359375-7.015625-7.6630859375-11.4462890625-1.8427734375-4.4287109375-2.7646484375-9.3271484375-2.7646484375-14.6953125Zm13.2890625,0c0,3.6865234375,.5654296875,7.06640625,1.6982421875,10.13671875,1.1298828125,3.072265625,2.7470703125,5.7392578125,4.849609375,8.0029296875,2.1005859375,2.263671875,4.5908203125,4.025390625,7.46875,5.2861328125,2.876953125,1.2607421875,6.0625,1.8916015625,9.5546875,1.8916015625s6.693359375-.630859375,9.603515625-1.8916015625c2.9091796875-1.2607421875,5.4150390625-3.0224609375,7.5166015625-5.2861328125s3.71875-4.9306640625,4.8505859375-8.0029296875c1.130859375-3.0703125,1.697265625-6.4501953125,1.697265625-10.13671875,0-3.5556640625-.56640625-6.853515625-1.697265625-9.8935546875-1.1318359375-3.0390625-2.732421875-5.689453125-4.8017578125-7.9541015625-2.0703125-2.2626953125-4.55859375-4.041015625-7.46875-5.3349609375-2.91015625-1.29296875-6.14453125-1.9404296875-9.7001953125-1.9404296875-3.556640625,0-6.7744140625,.6474609375-9.6513671875,1.9404296875-2.8779296875,1.2939453125-5.3515625,3.072265625-7.4208984375,5.3349609375-2.0703125,2.2646484375-3.6708984375,4.9150390625-4.80078125,7.9541015625-1.1328125,3.0400390625-1.6982421875,6.337890625-1.6982421875,9.8935546875Z" style="fill: #fff;"/>
    <path d="M133.5205078125,456.2900390625v6.4990234375h.291015625c.58203125-.9052734375,1.341796875-1.8271484375,2.2802734375-2.7646484375,.9365234375-.9365234375,2.0849609375-1.7783203125,3.443359375-2.5224609375,1.357421875-.7421875,2.892578125-1.357421875,4.607421875-1.8427734375,1.712890625-.4853515625,3.6376953125-.7275390625,5.771484375-.7275390625,3.2978515625,0,6.3369140625,.630859375,9.1181640625,1.8916015625,2.779296875,1.2607421875,5.1728515625,2.9921875,7.177734375,5.189453125,2.00390625,2.19921875,3.5556640625,4.7861328125,4.65625,7.759765625,1.0986328125,2.9755859375,1.6484375,6.1767578125,1.6484375,9.603515625,0,3.427734375-.533203125,6.64453125-1.6005859375,9.6513671875-1.06640625,3.0068359375-2.5869140625,5.6259765625-4.55859375,7.8564453125-1.9736328125,2.2314453125-4.365234375,4.0107421875-7.177734375,5.3349609375-2.8134765625,1.3251953125-5.9990234375,1.9892578125-9.5546875,1.9892578125-3.2978515625,0-6.322265625-.6796875-9.0693359375-2.037109375-2.75-1.3583984375-4.8671875-3.201171875-6.353515625-5.529296875h-.1943359375v29.48828125h-11.6396484375v-69.83984375h11.154296875Zm27.16015625,23.0859375c0-1.8095703125-.275390625-3.6044921875-.82421875-5.3837890625-.5498046875-1.7783203125-1.375-3.3779296875-2.4736328125-4.8017578125-1.1005859375-1.421875-2.490234375-2.5703125-4.1708984375-3.443359375-1.6826171875-.873046875-3.654296875-1.3095703125-5.9169921875-1.3095703125-2.1337890625,0-4.0419921875,.453125-5.72265625,1.3583984375-1.6826171875,.90625-3.12109375,2.0703125-4.3173828125,3.4921875-1.197265625,1.4228515625-2.1015625,3.0400390625-2.7158203125,4.849609375-.615234375,1.8115234375-.9208984375,3.6220703125-.9208984375,5.431640625,0,1.8115234375,.3056640625,3.60546875,.9208984375,5.3837890625,.6142578125,1.779296875,1.5185546875,3.3798828125,2.7158203125,4.8017578125,1.1962890625,1.4228515625,2.634765625,2.5703125,4.3173828125,3.443359375,1.6806640625,.873046875,3.5888671875,1.3095703125,5.72265625,1.3095703125,2.2626953125,0,4.234375-.4521484375,5.9169921875-1.3583984375,1.6806640625-.904296875,3.0703125-2.068359375,4.1708984375-3.4921875,1.0986328125-1.4208984375,1.923828125-3.0380859375,2.4736328125-4.849609375,.548828125-1.8095703125,.82421875-3.62109375,.82421875-5.431640625Z" style="fill: #fff;"/>
    <path d="M229.5498046875,480.1513671875v1.5517578125c0,.5185546875-.033203125,1.0361328125-.0966796875,1.552734375h-35.4052734375c.12890625,1.681640625,.5654296875,3.2177734375,1.3095703125,4.607421875,.7421875,1.3916015625,1.7294921875,2.5869140625,2.9580078125,3.5888671875,1.2275390625,1.0029296875,2.619140625,1.794921875,4.1708984375,2.3759765625,1.552734375,.58203125,3.16796875,.873046875,4.8505859375,.873046875,2.91015625,0,5.3662109375-.533203125,7.3720703125-1.599609375,2.0029296875-1.0673828125,3.65234375-2.5380859375,4.9462890625-4.4140625l7.7607421875,6.2080078125c-4.5927734375,6.2080078125-11.251953125,9.3125-19.982421875,9.3125-3.6220703125,0-6.9521484375-.5673828125-9.9912109375-1.6982421875-3.0400390625-1.1298828125-5.673828125-2.73046875-7.9052734375-4.80078125-2.2314453125-2.0693359375-3.9765625-4.607421875-5.23828125-7.615234375-1.2607421875-3.0068359375-1.8916015625-6.4169921875-1.8916015625-10.2333984375,0-3.7490234375,.630859375-7.1611328125,1.8916015625-10.2333984375,1.26171875-3.0703125,2.990234375-5.689453125,5.189453125-7.8564453125,2.1982421875-2.166015625,4.8017578125-3.8466796875,7.80859375-5.0439453125,3.0068359375-1.1962890625,6.2568359375-1.794921875,9.7490234375-1.794921875,3.232421875,0,6.22265625,.533203125,8.97265625,1.6005859375,2.7470703125,1.06640625,5.1240234375,2.65234375,7.12890625,4.7529296875,2.00390625,2.1025390625,3.572265625,4.720703125,4.705078125,7.857421875,1.1298828125,3.13671875,1.697265625,6.806640625,1.697265625,11.0087890625Zm-11.640625-5.2373046875c0-1.4873046875-.2099609375-2.91015625-.6298828125-4.2685546875-.421875-1.357421875-1.083984375-2.5537109375-1.98828125-3.5888671875-.90625-1.033203125-2.0537109375-1.8583984375-3.4443359375-2.4736328125-1.390625-.61328125-3.0234375-.921875-4.8984375-.921875-3.4912109375,0-6.4501953125,1.052734375-8.875,3.1533203125-2.4248046875,2.1015625-3.767578125,4.80078125-4.025390625,8.099609375h23.861328125Z" style="fill: #fff;"/>
    <path d="M242.1591796875,456.2900390625h11.154296875v7.759765625h.1943359375c1.29296875-2.7158203125,3.103515625-4.9140625,5.431640625-6.5966796875,2.328125-1.6806640625,5.0439453125-2.521484375,8.1484375-2.521484375,.451171875,0,.9365234375,.0166015625,1.455078125,.048828125,.5166015625,.033203125,.9697265625,.11328125,1.357421875,.2421875v10.669921875c-.775390625-.1943359375-1.439453125-.3232421875-1.98828125-.3876953125-.5498046875-.0634765625-1.0830078125-.09765625-1.6005859375-.09765625-2.65234375,0-4.7861328125,.4853515625-6.4013671875,1.455078125-1.6171875,.970703125-2.87890625,2.134765625-3.783203125,3.4921875-.90625,1.3583984375-1.5205078125,2.7490234375-1.8427734375,4.1708984375-.3251953125,1.423828125-.4853515625,2.5556640625-.4853515625,3.3955078125v24.9287109375h-11.6396484375v-46.5595703125Z" style="fill: #fff;"/>
    <path d="M306.4697265625,496.9326171875h-.291015625c-1.1640625,2.0703125-3.0400390625,3.767578125-5.6259765625,5.0927734375-2.5869140625,1.32421875-5.5283203125,1.98828125-8.826171875,1.98828125-1.876953125,0-3.83203125-.2421875-5.869140625-.7275390625s-3.9130859375-1.29296875-5.6259765625-2.4248046875c-1.7138671875-1.130859375-3.1376953125-2.619140625-4.267578125-4.4619140625-1.1328125-1.84375-1.6982421875-4.123046875-1.6982421875-6.8388671875,0-3.4921875,.9853515625-6.271484375,2.958984375-8.341796875,1.9716796875-2.0693359375,4.5107421875-3.65234375,7.6142578125-4.7529296875,3.1044921875-1.0986328125,6.5478515625-1.826171875,10.3310546875-2.1826171875,3.7822265625-.3544921875,7.4833984375-.533203125,11.1064453125-.533203125v-1.1640625c0-2.91015625-1.0517578125-5.0595703125-3.15234375-6.451171875-2.1025390625-1.3896484375-4.6083984375-2.0849609375-7.517578125-2.0849609375-2.458984375,0-4.818359375,.5185546875-7.0810546875,1.5517578125-2.2646484375,1.03515625-4.1396484375,2.2958984375-5.6259765625,3.783203125l-6.0146484375-7.0810546875c2.6513671875-2.45703125,5.70703125-4.2998046875,9.1669921875-5.529296875,3.4580078125-1.2275390625,6.966796875-1.8427734375,10.5244140625-1.8427734375,4.1376953125,0,7.548828125,.58203125,10.2333984375,1.74609375,2.6826171875,1.1640625,4.8017578125,2.68359375,6.353515625,4.55859375,1.5517578125,1.876953125,2.6337890625,3.9775390625,3.2490234375,6.3056640625,.6142578125,2.3271484375,.921875,4.6552734375,.921875,6.9833984375v28.32421875h-10.8642578125v-5.9169921875Zm-.193359375-15.326171875h-2.619140625c-1.876953125,0-3.8486328125,.08203125-5.9169921875,.2421875-2.0703125,.1630859375-3.9775390625,.5185546875-5.7236328125,1.0673828125-1.7451171875,.5498046875-3.2001953125,1.326171875-4.3642578125,2.328125-1.1640625,1.0029296875-1.74609375,2.376953125-1.74609375,4.1220703125,0,1.1005859375,.2421875,2.0224609375,.7275390625,2.7646484375,.484375,.744140625,1.115234375,1.3427734375,1.8916015625,1.794921875,.775390625,.453125,1.6484375,.775390625,2.619140625,.9697265625,.9697265625,.1943359375,1.939453125,.291015625,2.9091796875,.291015625,4.0087890625,0,7.0478515625-1.0673828125,9.1181640625-3.201171875,2.0693359375-2.1337890625,3.1044921875-5.0439453125,3.1044921875-8.7294921875v-1.6494140625Z" style="fill: #fff;"/>
    <path d="M324.6083984375,465.6015625v-9.3115234375h8.1484375v-13.4833984375h11.4453125v13.4833984375h11.640625v9.3115234375h-11.640625v21.630859375c0,2.0703125,.37109375,3.783203125,1.1162109375,5.1416015625,.7421875,1.357421875,2.408203125,2.0361328125,4.9951171875,2.0361328125,.7763671875,0,1.615234375-.080078125,2.521484375-.2421875,.9052734375-.16015625,1.712890625-.4033203125,2.42578125-.7275390625l.3876953125,9.1181640625c-1.03515625,.3876953125-2.2646484375,.6943359375-3.6865234375,.921875-1.4228515625,.2255859375-2.7802734375,.3388671875-4.0732421875,.3388671875-3.1044921875,0-5.6259765625-.4365234375-7.56640625-1.3095703125-1.939453125-.873046875-3.4765625-2.068359375-4.607421875-3.5888671875-1.1318359375-1.5185546875-1.908203125-3.2646484375-2.328125-5.2373046875-.4208984375-1.97265625-.6298828125-4.08984375-.6298828125-6.353515625v-21.728515625h-8.1484375Z" style="fill: #fff;"/>
    <path d="M364.1845703125,440.478515625c0-1.875,.6943359375-3.5068359375,2.0849609375-4.8984375,1.3896484375-1.3896484375,3.15234375-2.0859375,5.287109375-2.0859375,2.1337890625,0,3.927734375,.6640625,5.3828125,1.9892578125,1.455078125,1.326171875,2.1826171875,2.9912109375,2.1826171875,4.9951171875,0,2.0048828125-.7275390625,3.6708984375-2.1826171875,4.9951171875-1.455078125,1.326171875-3.2490234375,1.9892578125-5.3828125,1.9892578125-2.134765625,0-3.8974609375-.6943359375-5.287109375-2.0859375-1.390625-1.3896484375-2.0849609375-3.0224609375-2.0849609375-4.8984375Zm1.6484375,15.8115234375h11.640625v46.5595703125h-11.640625v-46.5595703125Z" style="fill: #fff;"/>
    <path d="M390.275390625,479.3759765625c0-3.6865234375,.6630859375-7.033203125,1.9892578125-10.0400390625,1.32421875-3.0068359375,3.119140625-5.5771484375,5.3828125-7.7109375,2.2626953125-2.134765625,4.947265625-3.783203125,8.0517578125-4.947265625,3.103515625-1.1640625,6.4013671875-1.74609375,9.8935546875-1.74609375s6.7900390625,.58203125,9.8935546875,1.74609375c3.1044921875,1.1640625,5.787109375,2.8125,8.0517578125,4.947265625,2.2626953125,2.1337890625,4.056640625,4.7041015625,5.3828125,7.7109375,1.3251953125,3.0068359375,1.9892578125,6.353515625,1.9892578125,10.0400390625,0,3.685546875-.6640625,7.048828125-1.9892578125,10.087890625-1.326171875,3.0400390625-3.1201171875,5.642578125-5.3828125,7.80859375-2.2646484375,2.1669921875-4.947265625,3.8642578125-8.0517578125,5.091796875-3.103515625,1.2275390625-6.4013671875,1.84375-9.8935546875,1.84375s-6.7900390625-.6162109375-9.8935546875-1.84375c-3.1044921875-1.2275390625-5.7890625-2.9248046875-8.0517578125-5.091796875-2.263671875-2.166015625-4.05859375-4.7685546875-5.3828125-7.80859375-1.326171875-3.0390625-1.9892578125-6.40234375-1.9892578125-10.087890625Zm11.833984375,0c0,1.810546875,.2744140625,3.6220703125,.8251953125,5.431640625,.548828125,1.8115234375,1.373046875,3.4287109375,2.4736328125,4.849609375,1.0986328125,1.423828125,2.48828125,2.587890625,4.1708984375,3.4921875,1.6806640625,.90625,3.685546875,1.3583984375,6.013671875,1.3583984375s4.33203125-.4521484375,6.013671875-1.3583984375c1.681640625-.904296875,3.0712890625-2.068359375,4.1708984375-3.4921875,1.099609375-1.4208984375,1.923828125-3.0380859375,2.4736328125-4.849609375,.548828125-1.8095703125,.8251953125-3.62109375,.8251953125-5.431640625,0-1.8095703125-.2763671875-3.6044921875-.8251953125-5.3837890625-.5498046875-1.7783203125-1.3740234375-3.3779296875-2.4736328125-4.8017578125-1.099609375-1.421875-2.4892578125-2.5703125-4.1708984375-3.443359375s-3.685546875-1.3095703125-6.013671875-1.3095703125-4.3330078125,.4365234375-6.013671875,1.3095703125c-1.6826171875,.873046875-3.072265625,2.021484375-4.1708984375,3.443359375-1.1005859375,1.423828125-1.9248046875,3.0234375-2.4736328125,4.8017578125-.55078125,1.779296875-.8251953125,3.57421875-.8251953125,5.3837890625Z" style="fill: #fff;"/>
    <path d="M453.51953125,456.2900390625h11.0576171875v7.46875h.1943359375c1.033203125-2.328125,2.828125-4.3798828125,5.3828125-6.16015625,2.5537109375-1.77734375,5.578125-2.6669921875,9.0703125-2.6669921875,3.0380859375,0,5.640625,.533203125,7.8076171875,1.6005859375,2.166015625,1.06640625,3.9443359375,2.4736328125,5.3349609375,4.2197265625s2.4091796875,3.7509765625,3.0556640625,6.013671875c.6455078125,2.2646484375,.970703125,4.5927734375,.970703125,6.984375v29.099609375h-11.640625v-25.8017578125c0-1.3583984375-.0966796875-2.7802734375-.291015625-4.2685546875-.193359375-1.486328125-.615234375-2.828125-1.2607421875-4.025390625-.6474609375-1.1953125-1.537109375-2.1826171875-2.66796875-2.9580078125-1.1318359375-.7763671875-2.634765625-1.1640625-4.509765625-1.1640625-1.876953125,0-3.4921875,.373046875-4.8505859375,1.115234375-1.357421875,.744140625-2.4736328125,1.697265625-3.3466796875,2.861328125-.8720703125,1.1640625-1.5361328125,2.5068359375-1.98828125,4.025390625-.453125,1.5205078125-.6787109375,3.0556640625-.6787109375,4.607421875v25.6083984375h-11.6396484375v-46.5595703125Z" style="fill: #fff;"/>
    <path d="M536.83984375,468.7060546875c-1.03515625-1.3583984375-2.4580078125-2.5380859375-4.2685546875-3.541015625-1.810546875-1.001953125-3.7822265625-1.50390625-5.9169921875-1.50390625-1.8759765625,0-3.5888671875,.388671875-5.140625,1.1640625-1.5517578125,.7763671875-2.328125,2.0703125-2.328125,3.880859375s.8564453125,3.0888671875,2.5703125,3.8310546875c1.712890625,.744140625,4.2197265625,1.50390625,7.517578125,2.279296875,1.74609375,.388671875,3.5078125,.90625,5.287109375,1.5517578125,1.77734375,.6474609375,3.39453125,1.50390625,4.849609375,2.5712890625,1.455078125,1.06640625,2.6337890625,2.392578125,3.541015625,3.9765625,.904296875,1.5849609375,1.357421875,3.5087890625,1.357421875,5.771484375,0,2.8466796875-.533203125,5.2548828125-1.6005859375,7.2265625-1.06640625,1.9736328125-2.490234375,3.57421875-4.267578125,4.8017578125-1.779296875,1.228515625-3.8486328125,2.1181640625-6.2080078125,2.6669921875-2.361328125,.548828125-4.8017578125,.8251953125-7.3232421875,.8251953125-3.623046875,0-7.146484375-.6640625-10.5732421875-1.9892578125-3.4287109375-1.32421875-6.2734375-3.2158203125-8.5361328125-5.673828125l7.6630859375-7.1787109375c1.29296875,1.6826171875,2.9736328125,3.072265625,5.0439453125,4.171875,2.068359375,1.099609375,4.365234375,1.6484375,6.88671875,1.6484375,.83984375,0,1.697265625-.0966796875,2.5703125-.291015625s1.681640625-.5,2.42578125-.921875c.7421875-.4189453125,1.3408203125-.984375,1.7939453125-1.697265625,.4521484375-.7109375,.6787109375-1.583984375,.6787109375-2.619140625,0-1.939453125-.8896484375-3.3291015625-2.6669921875-4.1708984375-1.779296875-.83984375-4.447265625-1.6806640625-8.0029296875-2.521484375-1.74609375-.388671875-3.443359375-.888671875-5.091796875-1.50390625-1.6494140625-.61328125-3.12109375-1.421875-4.4140625-2.4248046875-1.2939453125-1.001953125-2.328125-2.24609375-3.103515625-3.734375-.7763671875-1.4873046875-1.1640625-3.330078125-1.1640625-5.529296875,0-2.5859375,.533203125-4.81640625,1.6005859375-6.6923828125,1.06640625-1.875,2.4736328125-3.41015625,4.21875-4.6083984375,1.74609375-1.1953125,3.71875-2.0849609375,5.9169921875-2.6669921875s4.462890625-.873046875,6.7900390625-.873046875c3.3623046875,0,6.64453125,.58203125,9.845703125,1.74609375s5.73828125,2.943359375,7.6142578125,5.3349609375l-7.5654296875,6.693359375Z" style="fill: #fff;"/>
  </g>
</svg>