<?xml version="1.0" encoding="UTF-8"?>
<svg id="Layer_1" data-name="Layer 1" xmlns="http://www.w3.org/2000/svg" viewBox="0 0 392.630859375 534.92578125">
  <g>
    <path d="M139.5589141846,306.8999938965h134.1000213623c2.7000427246,0,4.5-.8999938965,6.2999572754-2.7000427246l29.700012207-35.1000061035H174.6588897705c-2.700012207,0-4.5,.8999938965-6.299987793,2.7000427246l-28.8000488281,35.1000061035h.0000610352Z" style="fill: #fff; opacity: .5;"/>
    <path d="M124.2588653564,184.5v44.1000061035c0,1.7999725342-.8999938965,3.6000061035-1.799987793,4.5l-59.3999938965,72.8999938965h42.2999572754c2.700012207,0,4.5-.8999938965,6.299987793-2.700012207l45-55.7999725342c1.799987793-1.7999725342,3.6000061035-2.7000274658,6.299987793-2.7000274658h45.8999938965c52.2000274658,0,95.4000396729-40.5,99.0000152588-91.7999725342h-60.2999572754l59.4000549316-72c.9000549316-1.8000030518,1.7999572754-2.6999969482,1.7999572754-4.5V0C207.0589141846,.8999862671,124.2588653564,82.7999725342,124.2588653564,184.5h0Z" style="fill: #fff;"/>
  </g>
</svg>