<?xml version="1.0" encoding="UTF-8"?>
<svg id="Layer_1" data-name="Layer 1" xmlns="http://www.w3.org/2000/svg" viewBox="0 0 390.1508789062 376.185760498">
  <path d="M286.8349304199,30.6000137329V195.3000335693h45c3.5999450684,0,7.2000427246-2.7000274658,7.2000427246-7.2000274658V38.7000274658c0-3.6000137329-2.700012207-7.1999931335-7.200012207-7.1999931335h-45v-.9000205994h-.0000305176Z" style="fill: #fff; isolation: isolate; opacity: .5;"/>
  <path d="M47.4348602295,195.3000335693h45V30.6000137329H47.4348602295c-3.6000137329,0-7.2000274658,2.6999931335-7.2000274658,7.1999931335V188.1000061035c.0000686646,4.5,2.7000274658,7.2000274658,7.2000274658,7.2000274658Z" style="fill: #fff; isolation: isolate; opacity: .5;"/>
  <path d="M257.1348876953,0H122.1348876953c-3.6000137329,0-7.2000274658,3.6000137329-7.2000274658,7.1999931335V216.8999938965c0,3.6000061035,3.6000137329,7.2000274658,7.2000274658,7.2000274658h135c3.5999450684,0,7.200012207-3.6000213623,7.200012207-7.2000274658V8.1000137329c.8999023438-3.6000137329-3.6000976562-8.1000137329-7.200012207-8.1000137329Z" style="fill: #fff;"/>
  <g>
    <path d="M0,304.7082214355H24.8486328125c4.5541992188,0,9.140625,.59375,13.7612304688,1.7822265625,4.619140625,1.1875,8.7768554688,3.15234375,12.4741210938,5.8896484375,3.6953125,2.740234375,6.6977539062,6.3359375,9.0087890625,10.791015625,2.3095703125,4.455078125,3.46484375,9.984375,3.46484375,16.5830078125,0,6.1376953125-1.1552734375,11.4189453125-3.46484375,15.83984375-2.3110351562,4.4228515625-5.3134765625,8.052734375-9.0087890625,10.8896484375-3.697265625,2.8388671875-7.8549804688,4.9345703125-12.4741210938,6.287109375-4.6206054688,1.353515625-9.20703125,2.029296875-13.7612304688,2.029296875H0v-70.091796875Zm22.8686523438,59.2021484375c3.2329101562,0,6.4677734375-.37890625,9.7021484375-1.138671875,3.2329101562-.7578125,6.1533203125-2.044921875,8.76171875-3.861328125,2.6064453125-1.814453125,4.7348632812-4.2724609375,6.3852539062-7.375,1.6489257812-3.1015625,2.4750976562-7.029296875,2.4750976562-11.78125,0-5.0146484375-.826171875-9.1083984375-2.4750976562-12.2763671875-1.650390625-3.16796875-3.7788085938-5.642578125-6.3852539062-7.4248046875-2.6083984375-1.7822265625-5.5288085938-3.001953125-8.76171875-3.6630859375-3.234375-.6591796875-6.4692382812-.990234375-9.7021484375-.990234375H12.4736328125v48.5107421875h10.3950195312Z" style="fill: #fff;"/>
    <path d="M73.5561523438,311.142791748c0-1.9130859375,.7084960938-3.5791015625,2.1284179688-4.9990234375,1.4184570312-1.4189453125,3.2172851562-2.12890625,5.3955078125-2.12890625s4.0092773438,.677734375,5.4946289062,2.029296875c1.4848632812,1.353515625,2.2275390625,3.0537109375,2.2275390625,5.0986328125,0,2.046875-.7426757812,3.7470703125-2.2275390625,5.0986328125-1.4853515625,1.353515625-3.31640625,2.029296875-5.4946289062,2.029296875s-3.9770507812-.7080078125-5.3955078125-2.1279296875c-1.419921875-1.4189453125-2.1284179688-3.0849609375-2.1284179688-5Zm1.6831054688,16.1376953125h11.8798828125v47.51953125h-11.8798828125v-47.51953125Z" style="fill: #fff;"/>
    <path d="M127.6088867188,339.9523620605c-1.056640625-1.38671875-2.5092773438-2.58984375-4.3559570312-3.6142578125-1.8486328125-1.0224609375-3.8608398438-1.5341796875-6.0390625-1.5341796875-1.9150390625,0-3.6630859375,.396484375-5.2470703125,1.1884765625s-2.3759765625,2.1123046875-2.3759765625,3.9599609375c0,1.8486328125,.8740234375,3.15234375,2.6235351562,3.91015625,1.748046875,.759765625,4.306640625,1.5341796875,7.6723632812,2.326171875,1.7822265625,.396484375,3.5795898438,.92578125,5.3955078125,1.583984375,1.814453125,.6611328125,3.4653320312,1.53515625,4.9501953125,2.6240234375s2.6884765625,2.4423828125,3.61328125,4.05859375c.923828125,1.6181640625,1.3862304688,3.5810546875,1.3862304688,5.890625,0,2.9052734375-.5444335938,5.36328125-1.6337890625,7.3759765625-1.0888671875,2.013671875-2.5415039062,3.6474609375-4.3559570312,4.900390625-1.8159179688,1.25390625-3.9272460938,2.162109375-6.3359375,2.72265625-2.41015625,.5595703125-4.900390625,.8408203125-7.474609375,.8408203125-3.6967773438,0-7.2934570312-.677734375-10.791015625-2.029296875-3.4990234375-1.3515625-6.40234375-3.2822265625-8.7119140625-5.791015625l7.8212890625-7.326171875c1.3193359375,1.716796875,3.0346679688,3.1357421875,5.1479492188,4.2568359375,2.111328125,1.123046875,4.455078125,1.6826171875,7.0288085938,1.6826171875,.8569335938,0,1.732421875-.0986328125,2.6235351562-.296875s1.7153320312-.5107421875,2.4750976562-.9404296875c.7578125-.4287109375,1.369140625-1.005859375,1.8315429688-1.732421875,.4609375-.7255859375,.6928710938-1.6162109375,.6928710938-2.6728515625,0-1.98046875-.908203125-3.3984375-2.72265625-4.2568359375-1.8159179688-.857421875-4.5385742188-1.7158203125-8.1674804688-2.57421875-1.7817382812-.396484375-3.5141601562-.90625-5.197265625-1.5341796875-1.6831054688-.626953125-3.1850585938-1.451171875-4.5043945312-2.4755859375-1.3212890625-1.0224609375-2.3759765625-2.2919921875-3.16796875-3.8115234375-.7919921875-1.517578125-1.1879882812-3.3984375-1.1879882812-5.642578125,0-2.6396484375,.5444335938-4.916015625,1.6333007812-6.8310546875,1.0888671875-1.9140625,2.5244140625-3.48046875,4.306640625-4.703125,1.7817382812-1.2197265625,3.7944335938-2.1279296875,6.0390625-2.7216796875,2.2426757812-.5947265625,4.5537109375-.8916015625,6.9296875-.8916015625,3.4311523438,0,6.7817382812,.5947265625,10.048828125,1.7822265625,3.2666015625,1.1884765625,5.8564453125,3.00390625,7.771484375,5.4453125l-7.7221679688,6.8310546875Z" style="fill: #fff;"/>
    <path d="M177.9985351562,340.447479248c-.9252929688-1.3203125-2.3110351562-2.42578125-4.158203125-3.3173828125-1.8486328125-.890625-3.7294921875-1.3359375-5.6430664062-1.3359375-2.177734375,0-4.0927734375,.4453125-5.7416992188,1.3359375-1.6508789062,.8916015625-3.01953125,2.0634765625-4.1083984375,3.5146484375-1.0893554688,1.453125-1.8984375,3.0859375-2.42578125,4.900390625-.5288085938,1.81640625-.7919921875,3.6474609375-.7919921875,5.4951171875,0,1.8486328125,.2797851562,3.6796875,.8413085938,5.494140625,.5600585938,1.81640625,1.4018554688,3.44921875,2.5249023438,4.900390625,1.12109375,1.453125,2.5244140625,2.6240234375,4.2075195312,3.5146484375,1.6826171875,.890625,3.6459960938,1.3369140625,5.8901367188,1.3369140625,1.8471679688,0,3.6958007812-.3623046875,5.5439453125-1.0888671875,1.8471679688-.7255859375,3.33203125-1.7822265625,4.455078125-3.1689453125l7.4252929688,7.5244140625c-1.9799804688,2.11328125-4.5048828125,3.7470703125-7.5737304688,4.900390625-3.0688476562,1.154296875-6.3852539062,1.732421875-9.94921875,1.732421875-3.4990234375,0-6.8159179688-.5615234375-9.9497070312-1.6826171875-3.1357421875-1.1220703125-5.875-2.7724609375-8.216796875-4.9501953125-2.34375-2.177734375-4.1923828125-4.8173828125-5.5439453125-7.919921875-1.353515625-3.1015625-2.0297851562-6.6328125-2.0297851562-10.5927734375,0-3.8271484375,.6762695312-7.2919921875,2.0297851562-10.3955078125,1.3515625-3.1015625,3.1831054688-5.7421875,5.494140625-7.919921875,2.3095703125-2.177734375,4.9995117188-3.8603515625,8.0688476562-5.048828125,3.0688476562-1.1875,6.3510742188-1.7822265625,9.8500976562-1.7822265625,3.4975585938,0,6.880859375,.6611328125,10.1474609375,1.98046875,3.2670898438,1.3212890625,5.8564453125,3.1357421875,7.771484375,5.4443359375l-8.1176757812,7.12890625Z" style="fill: #fff;"/>
    <path d="M191.0659179688,350.842010498c0-3.76171875,.6762695312-7.177734375,2.0297851562-10.24609375,1.3515625-3.0693359375,3.1831054688-5.693359375,5.4946289062-7.87109375,2.30859375-2.177734375,5.048828125-3.8603515625,8.216796875-5.048828125,3.16796875-1.1875,6.533203125-1.7822265625,10.09765625-1.7822265625s6.9296875,.5947265625,10.09765625,1.7822265625c3.16796875,1.1884765625,5.90625,2.87109375,8.216796875,5.048828125s4.142578125,4.8017578125,5.49609375,7.87109375c1.3515625,3.068359375,2.029296875,6.484375,2.029296875,10.24609375s-.677734375,7.1943359375-2.029296875,10.2958984375c-1.353515625,3.103515625-3.185546875,5.7587890625-5.49609375,7.9697265625-2.310546875,2.2119140625-5.048828125,3.9443359375-8.216796875,5.197265625s-6.533203125,1.880859375-10.09765625,1.880859375-6.9296875-.6279296875-10.09765625-1.880859375-5.908203125-2.9853515625-8.216796875-5.197265625c-2.3115234375-2.2109375-4.1430664062-4.8662109375-5.4946289062-7.9697265625-1.353515625-3.1015625-2.0297851562-6.5341796875-2.0297851562-10.2958984375Zm12.0771484375,0c0,1.8486328125,.28125,3.697265625,.841796875,5.5439453125,.560546875,1.8486328125,1.40234375,3.4990234375,2.525390625,4.9501953125,1.12109375,1.4521484375,2.5390625,2.640625,4.255859375,3.5634765625,1.716796875,.92578125,3.763671875,1.38671875,6.138671875,1.38671875,2.376953125,0,4.421875-.4609375,6.138671875-1.38671875,1.71484375-.9228515625,3.1328125-2.111328125,4.255859375-3.5634765625,1.123046875-1.451171875,1.962890625-3.1015625,2.525390625-4.9501953125,.560546875-1.8466796875,.841796875-3.6953125,.841796875-5.5439453125,0-1.8466796875-.28125-3.6787109375-.841796875-5.494140625-.5625-1.814453125-1.40234375-3.4482421875-2.525390625-4.900390625-1.123046875-1.451171875-2.541015625-2.6240234375-4.255859375-3.5146484375-1.716796875-.8916015625-3.76171875-1.3369140625-6.138671875-1.3369140625-2.375,0-4.421875,.4453125-6.138671875,1.3369140625-1.716796875,.890625-3.134765625,2.0634765625-4.255859375,3.5146484375-1.123046875,1.4521484375-1.96484375,3.0859375-2.525390625,4.900390625-.560546875,1.8154296875-.841796875,3.6474609375-.841796875,5.494140625Z" style="fill: #fff;"/>
    <path d="M247.0981445312,327.2804870605h12.96875l12.474609375,34.6494140625h.197265625l12.5732421875-34.6494140625h12.5732421875l-18.9091796875,47.51953125h-12.671875l-19.2060546875-47.51953125Z" style="fill: #fff;"/>
    <path d="M350.3540039062,351.6340026855v1.583984375c0,.529296875-.0341796875,1.056640625-.0986328125,1.583984375h-36.134765625c.130859375,1.716796875,.576171875,3.2841796875,1.3359375,4.7021484375,.7578125,1.4208984375,1.765625,2.640625,3.01953125,3.6630859375,1.2529296875,1.0244140625,2.6728515625,1.83203125,4.2568359375,2.42578125s3.2333984375,.890625,4.9501953125,.890625c2.9697265625,0,5.4775390625-.5439453125,7.5244140625-1.6328125,2.044921875-1.0888671875,3.7275390625-2.58984375,5.048828125-4.5048828125l7.919921875,6.3359375c-4.6875,6.3359375-11.484375,9.50390625-20.3935546875,9.50390625-3.697265625,0-7.095703125-.578125-10.197265625-1.732421875-3.103515625-1.1533203125-5.7919921875-2.787109375-8.068359375-4.900390625-2.27734375-2.111328125-4.0595703125-4.7021484375-5.3466796875-7.771484375s-1.9296875-6.5498046875-1.9296875-10.4443359375c0-3.8271484375,.642578125-7.3095703125,1.9296875-10.4443359375,1.287109375-3.1337890625,3.052734375-5.8076171875,5.296875-8.01953125,2.2431640625-2.2099609375,4.900390625-3.92578125,7.9697265625-5.1474609375,3.068359375-1.220703125,6.3857421875-1.83203125,9.94921875-1.83203125,3.2998046875,0,6.3515625,.544921875,9.1572265625,1.6337890625,2.8046875,1.0888671875,5.23046875,2.70703125,7.2763671875,4.8505859375,2.0458984375,2.1455078125,3.646484375,4.8193359375,4.8017578125,8.01953125,1.154296875,3.2021484375,1.732421875,6.947265625,1.732421875,11.236328125Zm-11.8798828125-5.345703125c0-1.517578125-.21484375-2.970703125-.6435546875-4.3564453125-.4296875-1.3857421875-1.10546875-2.6064453125-2.029296875-3.6630859375-.9248046875-1.0546875-2.095703125-1.896484375-3.5146484375-2.5244140625-1.419921875-.6259765625-3.0859375-.9404296875-4.9990234375-.9404296875-3.564453125,0-6.583984375,1.0732421875-9.05859375,3.2177734375-2.4755859375,2.1455078125-3.845703125,4.900390625-4.1083984375,8.2666015625h24.353515625Z" style="fill: #fff;"/>
    <path d="M361.8364257812,327.2804870605h11.384765625v7.919921875h.1982421875c1.3193359375-2.7724609375,3.16796875-5.015625,5.5439453125-6.732421875,2.3759765625-1.7158203125,5.1484375-2.57421875,8.31640625-2.57421875,.4609375,0,.9560546875,.017578125,1.484375,.0498046875,.52734375,.0341796875,.990234375,.1162109375,1.38671875,.2470703125v10.890625c-.7919921875-.1982421875-1.4697265625-.330078125-2.0302734375-.396484375-.5615234375-.064453125-1.10546875-.0986328125-1.6328125-.0986328125-2.70703125,0-4.8857421875,.4951171875-6.5341796875,1.4853515625-1.650390625,.9892578125-2.9375,2.177734375-3.861328125,3.5634765625-.9248046875,1.3857421875-1.5517578125,2.8056640625-1.880859375,4.2568359375-.3310546875,1.453125-.4951171875,2.6083984375-.4951171875,3.46484375v25.443359375h-11.8798828125v-47.51953125Z" style="fill: #fff;"/>
  </g>
</svg>