<?xml version="1.0" encoding="UTF-8"?>
<svg id="Layer_1" data-name="Layer 1" xmlns="http://www.w3.org/2000/svg" viewBox="0 0 390.1508789062 376.185760498">
  <path d="M286.8349304199,30.6000137329V195.3000335693h45c3.5999450684,0,7.2000427246-2.7000274658,7.2000427246-7.2000274658V38.7000274658c0-3.6000137329-2.700012207-7.1999931335-7.200012207-7.1999931335h-45v-.9000205994h-.0000305176Z" style="fill: #fff; isolation: isolate; opacity: .5;"/>
  <path d="M47.4348602295,195.3000335693h45V30.6000137329H47.4348602295c-3.6000137329,0-7.2000274658,2.6999931335-7.2000274658,7.1999931335V188.1000061035c.0000686646,4.5,2.7000274658,7.2000274658,7.2000274658,7.2000274658Z" style="fill: #fff; isolation: isolate; opacity: .5;"/>
  <path d="M257.1348876953,0H122.1348876953c-3.6000137329,0-7.2000274658,3.6000137329-7.2000274658,7.1999931335V216.8999938965c0,3.6000061035,3.6000137329,7.2000274658,7.2000274658,7.2000274658h135c3.5999450684,0,7.200012207-3.6000213623,7.200012207-7.2000274658V8.1000137329c.8999023438-3.6000137329-3.6000976562-8.1000137329-7.200012207-8.1000137329Z" style="fill: #fff;"/>
</svg>