<?xml version="1.0" encoding="UTF-8"?>
<svg id="Layer_1" data-name="Layer 1" xmlns="http://www.w3.org/2000/svg" viewBox="0 0 544.9921875 443.6274413286">
  <path d="M256.645904541,137.5061797319l77.3999938965-45V4.3061503587c0-3.6000137329-3.5999450684-5.3999862671-7.200012207-3.6000137329l-101.7000274658,58.5000019073c-1.7999725342,.8999862671-2.7000274658,2.6999931335-2.7000274658,3.6000137329v54.8999862671l-79.2000274658-45.8999862671c-2.7000274658-1.8000030518-7.2000274658,.8999862671-7.2000274658,3.6000137329V224.8061370073c0,1.7999725342,.8999938965,3.6000213623,2.7000274658,3.6000213623l117,67.5000305176V137.5061797319h.900100708Z" style="fill: #fff;"/>
  <path d="M279.145904541,310.3061522661l139.4999084473-81c1.799987793-.8999938965,2.700012207-2.7000274658,2.700012207-3.6000061035V76.3061522661c0-3.6000137329-3.5999450684-5.3999862671-7.200012207-3.6000137329l-135,78.2999801636,.0000610352,159.3000335693h.0000305176Z" style="fill: #fff; isolation: isolate; opacity: .5;"/>
</svg>