<?xml version="1.0" encoding="UTF-8"?>
<svg id="Layer_1" data-name="Layer 1" xmlns="http://www.w3.org/2000/svg" viewBox="0 0 544.9921875 443.6274413286">
  <path d="M256.645904541,137.5061797319l77.3999938965-45V4.3061503587c0-3.6000137329-3.5999450684-5.3999862671-7.200012207-3.6000137329l-101.7000274658,58.5000019073c-1.7999725342,.8999862671-2.7000274658,2.6999931335-2.7000274658,3.6000137329v54.8999862671l-79.2000274658-45.8999862671c-2.7000274658-1.8000030518-7.2000274658,.8999862671-7.2000274658,3.6000137329V224.8061370073c0,1.7999725342,.8999938965,3.6000213623,2.7000274658,3.6000213623l117,67.5000305176V137.5061797319h.900100708Z" style="fill: #fff;"/>
  <path d="M279.145904541,310.3061522661l139.4999084473-81c1.799987793-.8999938965,2.700012207-2.7000274658,2.700012207-3.6000061035V76.3061522661c0-3.6000137329-3.5999450684-5.3999862671-7.200012207-3.6000137329l-135,78.2999801636,.0000610352,159.3000335693h.0000305176Z" style="fill: #fff; isolation: isolate; opacity: .5;"/>
  <g>
    <path d="M0,406.5991210161c0-5.607421875,.9404296875-10.6787109375,2.8212890625-15.1962890625s4.4868164062-8.3671875,7.822265625-11.53125c3.3310546875-3.1728515625,7.2905273438-5.607421875,11.8784179688-7.330078125,4.587890625-1.7138671875,9.5888671875-2.5751953125,14.9985351562-2.5751953125,5.4799804688,0,10.529296875,.861328125,15.1479492188,2.5751953125,4.6186523438,1.72265625,8.61328125,4.1572265625,11.9794921875,7.330078125,3.3662109375,3.1640625,5.9897460938,7.013671875,7.8706054688,11.53125s2.8212890625,9.5888671875,2.8212890625,15.1962890625c0,5.4755859375-.9404296875,10.4765625-2.8212890625,15.0029296875-1.880859375,4.517578125-4.5043945312,8.4111328125-7.8706054688,11.6806640625-3.3662109375,3.2607421875-7.3608398438,5.8095703125-11.9794921875,7.6201171875s-9.66796875,2.724609375-15.1479492188,2.724609375c-5.4096679688,0-10.4106445312-.9140625-14.9985351562-2.724609375s-8.5473632812-4.359375-11.8784179688-7.6201171875c-3.3354492188-3.26953125-5.94140625-7.1630859375-7.822265625-11.6806640625-1.880859375-4.5263671875-2.8212890625-9.52734375-2.8212890625-15.0029296875Zm13.5659179688,0c0,3.76171875,.5756835938,7.2158203125,1.7314453125,10.3447265625,1.1513671875,3.1376953125,2.8037109375,5.8623046875,4.9482421875,8.1650390625,2.14453125,2.3115234375,4.6845703125,4.11328125,7.6245117188,5.396484375,2.935546875,1.2919921875,6.1875,1.93359375,9.7514648438,1.93359375s6.8291015625-.6416015625,9.7998046875-1.93359375c2.970703125-1.283203125,5.5283203125-3.0849609375,7.6728515625-5.396484375,2.14453125-2.302734375,3.796875-5.02734375,4.9482421875-8.1650390625,1.1557617188-3.12890625,1.7358398438-6.5830078125,1.7358398438-10.3447265625,0-3.6298828125-.580078125-6.99609375-1.7358398438-10.0986328125-1.1513671875-3.1025390625-2.7861328125-5.8095703125-4.8999023438-8.12109375-2.1137695312-2.302734375-4.6494140625-4.1220703125-7.6201171875-5.4404296875s-6.2709960938-1.9775390625-9.9008789062-1.9775390625-6.9169921875,.6591796875-9.8525390625,1.9775390625-5.4624023438,3.1376953125-7.5717773438,5.4404296875c-2.1137695312,2.3115234375-3.7485351562,5.0185546875-4.8999023438,8.12109375-1.1557617188,3.1025390625-1.7314453125,6.46875-1.7314453125,10.0986328125Z" style="fill: #fff;"/>
    <path d="M86.2294921875,394.3208007036h11.3862304688v7.9189453125h.1977539062c1.318359375-2.7685546875,3.1684570312-5.009765625,5.5415039062-6.732421875,2.3774414062-1.7138671875,5.150390625-2.56640625,8.3188476562-2.56640625,.4614257812,0,.9536132812,.017578125,1.4853515625,.0439453125,.52734375,.03515625,.9887695312,.1142578125,1.3842773438,.24609375v10.8896484375c-.791015625-.193359375-1.4677734375-.3251953125-2.0302734375-.3955078125-.5625-.0615234375-1.1030273438-.0966796875-1.634765625-.0966796875-2.70703125,0-4.8823242188,.4921875-6.5302734375,1.4853515625-1.65234375,.9931640625-2.9399414062,2.1796875-3.8627929688,3.568359375-.9228515625,1.3798828125-1.5512695312,2.8037109375-1.880859375,4.25390625s-.4965820312,2.6103515625-.4965820312,3.462890625v25.4443359375h-11.8784179688v-47.5224609375Z" style="fill: #fff;"/>
    <path d="M170.1826171875,441.8432616411h-11.2895507812v-7.1279296875h-.1977539062c-1.6479492188,2.7685546875-3.9418945312,4.88671875-6.8774414062,6.3369140625-2.9399414062,1.4501953125-6.0908203125,2.1796875-9.45703125,2.1796875-3.6298828125,0-6.8774414062-.6767578125-9.7514648438-2.0302734375-2.8696289062-1.353515625-5.3129882812-3.1728515625-7.3256835938-5.44921875s-3.5639648438-4.9482421875-4.6538085938-8.015625c-1.0854492188-3.0673828125-1.6303710938-6.3544921875-1.6303710938-9.8525390625s.5581054688-6.767578125,1.6831054688-9.7998046875c1.1206054688-3.0322265625,2.7026367188-5.677734375,4.7504882812-7.9189453125,2.0434570312-2.2412109375,4.4868164062-4.0078125,7.3256835938-5.2998046875,2.8388671875-1.283203125,5.94140625-1.9248046875,9.3076171875-1.9248046875,2.1752929688,0,4.1220703125,.24609375,5.8403320312,.73828125,1.7138671875,.4921875,3.216796875,1.107421875,4.5043945312,1.828125,1.2875976562,.7294921875,2.390625,1.5205078125,3.3178710938,2.3818359375,.9228515625,.8525390625,1.6831054688,1.6787109375,2.2763671875,2.4697265625h.2944335938v-33.36328125h11.8828125v74.84765625Zm-39.1069335938-23.958984375c0,1.845703125,.28125,3.7001953125,.84375,5.5458984375,.5581054688,1.845703125,1.4018554688,3.498046875,2.5224609375,4.9482421875s2.5400390625,2.6455078125,4.2583007812,3.568359375c1.7138671875,.9228515625,3.7265625,1.3798828125,6.0380859375,1.3798828125,2.1796875,0,4.1220703125-.439453125,5.8403320312-1.3359375,1.7182617188-.8876953125,3.1860351562-2.056640625,4.4077148438-3.515625,1.2172851562-1.4501953125,2.14453125-3.0849609375,2.7685546875-4.8955078125,.6284179688-1.8193359375,.9404296875-3.6474609375,.9404296875-5.4931640625,0-1.8544921875-.3120117188-3.7001953125-.9404296875-5.5458984375-.6240234375-1.845703125-1.5512695312-3.498046875-2.7685546875-4.9482421875-1.2216796875-1.4501953125-2.689453125-2.6455078125-4.4077148438-3.568359375s-3.6606445312-1.388671875-5.8403320312-1.388671875c-2.3115234375,0-4.32421875,.4482421875-6.0380859375,1.3447265625-1.7182617188,.8876953125-3.1376953125,2.056640625-4.2583007812,3.5068359375-1.1206054688,1.458984375-1.9643554688,3.09375-2.5224609375,4.904296875-.5625,1.8193359375-.84375,3.6474609375-.84375,5.4931640625Z" style="fill: #fff;"/>
    <path d="M231.36328125,418.6752928911v1.58203125c0,.5361328125-.03515625,1.0634765625-.1010742188,1.5908203125h-36.1318359375c.1318359375,1.7138671875,.5756835938,3.2783203125,1.3359375,4.7021484375,.755859375,1.4150390625,1.7622070312,2.63671875,3.0190429688,3.65625,1.2524414062,1.0283203125,2.671875,1.8369140625,4.2583007812,2.42578125,1.58203125,.59765625,3.2299804688,.896484375,4.9482421875,.896484375,2.970703125,0,5.4755859375-.544921875,7.5234375-1.634765625,2.0434570312-1.08984375,3.7265625-2.5927734375,5.0493164062-4.5087890625l7.9189453125,6.3369140625c-4.6845703125,6.3369140625-11.4829101562,9.509765625-20.3950195312,9.509765625-3.6958007812,0-7.0927734375-.580078125-10.1953125-1.7314453125-3.1025390625-1.16015625-5.7919921875-2.794921875-8.068359375-4.904296875s-4.060546875-4.7021484375-5.34375-7.76953125c-1.2875976562-3.0673828125-1.93359375-6.5478515625-1.93359375-10.4501953125,0-3.8232421875,.6459960938-7.3037109375,1.93359375-10.44140625,1.283203125-3.12890625,3.0498046875-5.8095703125,5.2954101562-8.015625,2.2412109375-2.21484375,4.8999023438-3.9287109375,7.9672851562-5.150390625,3.0717773438-1.2216796875,6.3852539062-1.828125,9.94921875-1.828125,3.3002929688,0,6.3544921875,.544921875,9.158203125,1.6259765625,2.8037109375,1.08984375,5.2294921875,2.70703125,7.27734375,4.8515625,2.0434570312,2.14453125,3.6474609375,4.8251953125,4.8032226562,8.0244140625,1.1513671875,3.19921875,1.7314453125,6.943359375,1.7314453125,11.232421875Zm-11.8828125-5.34375c0-1.5205078125-.2109375-2.970703125-.6416015625-4.359375-.4306640625-1.3798828125-1.107421875-2.6015625-2.0302734375-3.65625s-2.0961914062-1.8984375-3.515625-2.53125c-1.4194335938-.6240234375-3.0849609375-.9404296875-4.9965820312-.9404296875-3.5639648438,0-6.5830078125,1.072265625-9.0571289062,3.216796875-2.478515625,2.1533203125-3.849609375,4.904296875-4.1088867188,8.2705078125h24.3500976562Z" style="fill: #fff;"/>
    <path d="M242.2485351562,394.3208007036h11.3862304688v7.9189453125h.1977539062c1.318359375-2.7685546875,3.1684570312-5.009765625,5.5415039062-6.732421875,2.3774414062-1.7138671875,5.150390625-2.56640625,8.3188476562-2.56640625,.4614257812,0,.9536132812,.017578125,1.4853515625,.0439453125,.52734375,.03515625,.9887695312,.1142578125,1.3842773438,.24609375v10.8896484375c-.791015625-.193359375-1.4677734375-.3251953125-2.0302734375-.3955078125-.5625-.0615234375-1.1030273438-.0966796875-1.634765625-.0966796875-2.70703125,0-4.8823242188,.4921875-6.5302734375,1.4853515625-1.65234375,.9931640625-2.9399414062,2.1796875-3.8627929688,3.568359375-.9228515625,1.3798828125-1.5512695312,2.8037109375-1.880859375,4.25390625s-.4965820312,2.6103515625-.4965820312,3.462890625v25.4443359375h-11.8784179688v-47.5224609375Z" style="fill: #fff;"/>
    <path d="M334.8193359375,388.1860350786c-1.8544921875-2.5048828125-4.2626953125-4.341796875-7.2333984375-5.4931640625-2.9619140625-1.16015625-5.87109375-1.7314453125-8.7099609375-1.7314453125-3.6298828125,0-6.92578125,.6591796875-9.896484375,1.9775390625s-5.5283203125,3.1376953125-7.6728515625,5.4404296875c-2.14453125,2.3115234375-3.796875,5.0185546875-4.9482421875,8.12109375-1.16015625,3.1025390625-1.7314453125,6.46875-1.7314453125,10.0986328125,0,3.83203125,.5537109375,7.330078125,1.6787109375,10.494140625s2.724609375,5.888671875,4.798828125,8.1650390625c2.0830078125,2.2763671875,4.5703125,4.04296875,7.4794921875,5.2998046875,2.900390625,1.2568359375,6.169921875,1.880859375,9.7998046875,1.880859375,3.76171875,0,7.0927734375-.7470703125,10.001953125-2.232421875,2.900390625-1.4765625,5.2470703125-3.4453125,7.0224609375-5.888671875l10.001953125,7.03125c-3.1025390625,3.8935546875-6.8994140625,6.9169921875-11.3818359375,9.0615234375-4.4912109375,2.14453125-9.73828125,3.216796875-15.7412109375,3.216796875-5.484375,0-10.51171875-.9140625-15.099609375-2.724609375s-8.5341796875-4.359375-11.830078125-7.6201171875c-3.3046875-3.26953125-5.8798828125-7.1630859375-7.7255859375-11.6806640625-1.8500976562-4.5263671875-2.7729492188-9.52734375-2.7729492188-15.0029296875,0-5.607421875,.9755859375-10.6787109375,2.9223632812-15.1962890625s4.6186523438-8.3671875,8.0244140625-11.53125c3.392578125-3.1728515625,7.400390625-5.607421875,12.0234375-7.330078125,4.623046875-1.7138671875,9.6328125-2.5751953125,15.046875-2.5751953125,2.2412109375,0,4.587890625,.2197265625,7.03125,.650390625,2.443359375,.421875,4.78125,1.0810546875,7.03125,1.9775390625,2.2412109375,.8876953125,4.3505859375,1.9951171875,6.3369140625,3.3134765625,1.9775390625,1.318359375,3.65625,2.9091796875,5.044921875,4.7548828125l-9.5009765625,7.5234375Z" style="fill: #fff;"/>
    <path d="M354.1201171875,366.9956053911h11.8740234375v74.84765625h-11.8740234375v-74.84765625Z" style="fill: #fff;"/>
    <path d="M377.0859375,417.8842772661c0-3.76171875,.6767578125-7.1806640625,2.0302734375-10.248046875s3.181640625-5.6865234375,5.4931640625-7.8662109375,5.044921875-3.8583984375,8.2177734375-5.0537109375c3.1640625-1.1865234375,6.5302734375-1.775390625,10.0986328125-1.775390625,3.5595703125,0,6.92578125,.5888671875,10.0986328125,1.775390625,3.1640625,1.1953125,5.90625,2.8740234375,8.2177734375,5.0537109375,2.302734375,2.1796875,4.1396484375,4.798828125,5.4931640625,7.8662109375s2.0302734375,6.486328125,2.0302734375,10.248046875-.6767578125,7.1982421875-2.0302734375,10.30078125-3.1904296875,5.7568359375-5.4931640625,7.962890625c-2.3115234375,2.21484375-5.0537109375,3.9462890625-8.2177734375,5.203125-3.1728515625,1.248046875-6.5390625,1.880859375-10.0986328125,1.880859375-3.568359375,0-6.9345703125-.6328125-10.0986328125-1.880859375-3.1728515625-1.2568359375-5.90625-2.98828125-8.2177734375-5.203125-2.3115234375-2.2060546875-4.1396484375-4.8603515625-5.4931640625-7.962890625s-2.0302734375-6.5390625-2.0302734375-10.30078125Zm12.076171875,0c0,1.845703125,.28125,3.7001953125,.84375,5.5458984375s1.3974609375,3.498046875,2.5224609375,4.9482421875,2.5400390625,2.6455078125,4.25390625,3.568359375c1.72265625,.9228515625,3.76171875,1.3798828125,6.1435546875,1.3798828125,2.373046875,0,4.4208984375-.45703125,6.134765625-1.3798828125s3.1376953125-2.1181640625,4.25390625-3.568359375c1.125-1.4501953125,1.96875-3.1025390625,2.53125-4.9482421875,.5537109375-1.845703125,.8349609375-3.7001953125,.8349609375-5.5458984375s-.28125-3.673828125-.8349609375-5.4931640625c-.5625-1.810546875-1.40625-3.4453125-2.53125-4.904296875-1.1162109375-1.4501953125-2.5400390625-2.619140625-4.25390625-3.5068359375-1.7138671875-.896484375-3.76171875-1.3447265625-6.134765625-1.3447265625-2.3818359375,0-4.4208984375,.4482421875-6.1435546875,1.3447265625-1.7138671875,.8876953125-3.12890625,2.056640625-4.25390625,3.5068359375-1.125,1.458984375-1.9599609375,3.09375-2.5224609375,4.904296875-.5625,1.8193359375-.84375,3.6474609375-.84375,5.4931640625Z" style="fill: #fff;"/>
    <path d="M483.01171875,441.8432616411h-11.28515625v-7.6201171875h-.193359375c-1.0546875,2.373046875-2.8916015625,4.46484375-5.4931640625,6.2841796875-2.6103515625,1.810546875-5.6953125,2.724609375-9.263671875,2.724609375-3.1025390625,0-5.7568359375-.544921875-7.962890625-1.634765625-2.21484375-1.08984375-4.025390625-2.5224609375-5.44921875-4.306640625-1.4150390625-1.7841796875-2.4609375-3.83203125-3.1201171875-6.1435546875-.6591796875-2.302734375-.984375-4.6845703125-.984375-7.1279296875v-29.6982421875h11.8740234375v26.3408203125c0,1.3798828125,.10546875,2.830078125,.298828125,4.3505859375,.2021484375,1.5205078125,.6240234375,2.8916015625,1.2919921875,4.11328125,.6591796875,1.2216796875,1.564453125,2.2236328125,2.7158203125,3.0146484375,1.16015625,.791015625,2.689453125,1.1865234375,4.60546875,1.1865234375,1.845703125,0,3.48046875-.3779296875,4.904296875-1.1337890625,1.4150390625-.755859375,2.5751953125-1.7314453125,3.462890625-2.9267578125,.8876953125-1.1865234375,1.564453125-2.548828125,2.0302734375-4.1044921875,.45703125-1.546875,.6943359375-3.1201171875,.6943359375-4.7021484375v-26.138671875h11.8740234375v47.5224609375Z" style="fill: #fff;"/>
    <path d="M544.9921875,441.8432616411h-11.2939453125v-7.1279296875h-.193359375c-1.65234375,2.7685546875-3.9462890625,4.88671875-6.8818359375,6.3369140625s-6.0908203125,2.1796875-9.45703125,2.1796875c-3.6298828125,0-6.873046875-.6767578125-9.7470703125-2.0302734375s-5.3173828125-3.1728515625-7.330078125-5.44921875-3.5595703125-4.9482421875-4.6494140625-8.015625-1.634765625-6.3544921875-1.634765625-9.8525390625,.5625-6.767578125,1.6875-9.7998046875c1.1162109375-3.0322265625,2.6982421875-5.677734375,4.74609375-7.9189453125s4.4912109375-4.0078125,7.330078125-5.2998046875c2.8388671875-1.283203125,5.94140625-1.9248046875,9.3076171875-1.9248046875,2.1708984375,0,4.1220703125,.24609375,5.8359375,.73828125s3.216796875,1.107421875,4.5087890625,1.828125c1.283203125,.7294921875,2.390625,1.5205078125,3.3134765625,2.3818359375,.9228515625,.8525390625,1.6875,1.6787109375,2.2763671875,2.4697265625h.298828125v-33.36328125h11.8828125v74.84765625Zm-39.111328125-23.958984375c0,1.845703125,.28125,3.7001953125,.84375,5.5458984375s1.40625,3.498046875,2.5224609375,4.9482421875c1.125,1.4501953125,2.5400390625,2.6455078125,4.2626953125,3.568359375,1.7138671875,.9228515625,3.7265625,1.3798828125,6.0380859375,1.3798828125,2.1796875,0,4.1220703125-.439453125,5.8359375-1.3359375,1.72265625-.8876953125,3.1904296875-2.056640625,4.412109375-3.515625,1.212890625-1.4501953125,2.14453125-3.0849609375,2.7685546875-4.8955078125,.6240234375-1.8193359375,.9404296875-3.6474609375,.9404296875-5.4931640625,0-1.8544921875-.31640625-3.7001953125-.9404296875-5.5458984375s-1.5556640625-3.498046875-2.7685546875-4.9482421875c-1.2216796875-1.4501953125-2.689453125-2.6455078125-4.412109375-3.568359375-1.7138671875-.9228515625-3.65625-1.388671875-5.8359375-1.388671875-2.3115234375,0-4.32421875,.4482421875-6.0380859375,1.3447265625-1.72265625,.8876953125-3.1376953125,2.056640625-4.2626953125,3.5068359375-1.1162109375,1.458984375-1.9599609375,3.09375-2.5224609375,4.904296875-.5625,1.8193359375-.84375,3.6474609375-.84375,5.4931640625Z" style="fill: #fff;"/>
  </g>
</svg>