<?xml version="1.0" encoding="UTF-8"?>
<svg id="Layer_1" data-name="Layer 1" xmlns="http://www.w3.org/2000/svg" viewBox="0 0 508.7514648438 413.540435791">
  <path d="M259.8325500488,56.6999931335V7.1999931335c0-4.5-3.6000061035-7.1999931335-7.2000427246-7.1999931335C177.9324951172,3.6000137329,118.5325164795,65.6999893188,118.5325164795,141.3000030518c0,49.5,25.2000274658,92.7000274658,63.8999786377,118.7999725342v-118.7999725342c0-40.5,31.5-74.6999893188,71.1000061035-77.3999862671,3.6000061035-.0000343323,6.3000488281-3.6000480652,6.3000488281-7.2000236511Z" style="fill: #fff; isolation: isolate; opacity: .5;"/>
  <path d="M337.2325439453,148.4999694824c-3.5999450684,39.6000061035-36.9000549316,71.1000061035-77.3999938965,71.1000061035v-14.3999938965c0-3.6000061035,2.7000427246-6.2999725342,6.2999572754-7.2000274658,32.3999938965-3.6000213623,56.6999511719-35.1000213623,48.6000061035-70.2000274658-4.5-20.6999969482-21.5999450684-36.8999862671-41.3999938965-41.3999862671-36.8999938965-8.1000137329-70.2000274658,19.8000106812-70.2000274658,54.8999862671v125.1000061035c0,2.7000427246,1.7999725342,5.3999938965,4.5,6.2999572754,16.2000274658,6.299987793,33.2999725342,9.8999938965,52.2000274658,9.8999938965,75.6000061035,0,137.6999511719-59.3999938965,141.3000488281-134.1000061035,0-3.6000061035-2.700012207-7.2000274658-7.200012207-7.2000274658h-45.9000549316c-7.2000427246,.0001373291-9.8999328613,2.700088501-10.7999572754,7.200088501v.0000305176Z" style="fill: #fff;"/>
</svg>