<?xml version="1.0" encoding="UTF-8"?>
<svg id="Layer_1" data-name="Layer 1" xmlns="http://www.w3.org/2000/svg" viewBox="0 0 508.7514648438 413.540435791">
  <path d="M259.8325500488,56.6999931335V7.1999931335c0-4.5-3.6000061035-7.1999931335-7.2000427246-7.1999931335C177.9324951172,3.6000137329,118.5325164795,65.6999893188,118.5325164795,141.3000030518c0,49.5,25.2000274658,92.7000274658,63.8999786377,118.7999725342v-118.7999725342c0-40.5,31.5-74.6999893188,71.1000061035-77.3999862671,3.6000061035-.0000343323,6.3000488281-3.6000480652,6.3000488281-7.2000236511Z" style="fill: #fff; isolation: isolate; opacity: .5;"/>
  <path d="M337.2325439453,148.4999694824c-3.5999450684,39.6000061035-36.9000549316,71.1000061035-77.3999938965,71.1000061035v-14.3999938965c0-3.6000061035,2.7000427246-6.2999725342,6.2999572754-7.2000274658,32.3999938965-3.6000213623,56.6999511719-35.1000213623,48.6000061035-70.2000274658-4.5-20.6999969482-21.5999450684-36.8999862671-41.3999938965-41.3999862671-36.8999938965-8.1000137329-70.2000274658,19.8000106812-70.2000274658,54.8999862671v125.1000061035c0,2.7000427246,1.7999725342,5.3999938965,4.5,6.2999572754,16.2000274658,6.299987793,33.2999725342,9.8999938965,52.2000274658,9.8999938965,75.6000061035,0,137.6999511719-59.3999938965,141.3000488281-134.1000061035,0-3.6000061035-2.700012207-7.2000274658-7.200012207-7.2000274658h-45.9000549316c-7.2000427246,.0001373291-9.8999328613,2.700088501-10.7999572754,7.200088501v.0000305176Z" style="fill: #fff;"/>
  <g>
    <path d="M0,342.0628967285H22.8686523438c4.025390625,0,7.6557617188,.36328125,10.8901367188,1.0888671875,3.2329101562,.7265625,6.0048828125,1.9150390625,8.3159179688,3.5634765625,2.3095703125,1.6513671875,4.091796875,3.7626953125,5.3461914062,6.3369140625,1.2529296875,2.5732421875,1.880859375,5.6767578125,1.880859375,9.3056640625,0,3.89453125-.7270507812,7.162109375-2.177734375,9.80078125-1.4526367188,2.640625-3.4155273438,4.76953125-5.890625,6.3857421875-2.4750976562,1.6181640625-5.36328125,2.7890625-8.6625976562,3.5146484375-3.30078125,.7265625-6.7983398438,1.0888671875-10.494140625,1.0888671875H12.4736328125v29.0068359375H0v-70.091796875Zm21.1860351562,30.5908203125c2.044921875,0,3.9921875-.1484375,5.8408203125-.4453125,1.8471679688-.296875,3.4975585938-.82421875,4.9501953125-1.583984375,1.4506835938-.7578125,2.6064453125-1.7978515625,3.46484375-3.119140625,.8569335938-1.3193359375,1.287109375-3.0341796875,1.287109375-5.1474609375,0-2.044921875-.4301757812-3.712890625-1.287109375-5-.8583984375-1.287109375-1.9970703125-2.2919921875-3.4155273438-3.01953125-1.419921875-.724609375-3.0366210938-1.203125-4.8510742188-1.435546875-1.8159179688-.23046875-3.6801757812-.345703125-5.5932617188-.345703125H12.4736328125v20.0966796875h8.7124023438Z" style="fill: #fff;"/>
    <path d="M98.7026367188,388.9886779785v1.583984375c0,.529296875-.0341796875,1.056640625-.0991210938,1.583984375H62.4682617188c.1318359375,1.716796875,.5771484375,3.2841796875,1.3364257812,4.7021484375,.7583007812,1.4208984375,1.7651367188,2.640625,3.01953125,3.6630859375,1.2529296875,1.0244140625,2.6733398438,1.83203125,4.2573242188,2.42578125s3.2329101562,.890625,4.9497070312,.890625c2.9702148438,0,5.4775390625-.5439453125,7.5244140625-1.6328125,2.044921875-1.0888671875,3.7275390625-2.58984375,5.048828125-4.5048828125l7.919921875,6.3359375c-4.6870117188,6.3359375-11.4838867188,9.50390625-20.3940429688,9.50390625-3.6967773438,0-7.095703125-.578125-10.1967773438-1.732421875-3.1030273438-1.1533203125-5.7915039062-2.787109375-8.0688476562-4.900390625-2.2768554688-2.111328125-4.05859375-4.7021484375-5.345703125-7.771484375s-1.9306640625-6.5498046875-1.9306640625-10.4443359375c0-3.8271484375,.6435546875-7.3095703125,1.9306640625-10.4443359375,1.287109375-3.1337890625,3.0517578125-5.8076171875,5.2963867188-8.01953125,2.2431640625-2.2099609375,4.900390625-3.92578125,7.9697265625-5.1474609375,3.0688476562-1.220703125,6.3852539062-1.83203125,9.94921875-1.83203125,3.2993164062,0,6.3515625,.544921875,9.1577148438,1.6337890625,2.8041992188,1.0888671875,5.2299804688,2.70703125,7.2763671875,4.8505859375,2.044921875,2.1455078125,3.6459960938,4.8193359375,4.8012695312,8.01953125,1.154296875,3.2021484375,1.7329101562,6.947265625,1.7329101562,11.236328125Zm-11.8803710938-5.345703125c0-1.517578125-.21484375-2.970703125-.6435546875-4.3564453125-.4296875-1.3857421875-1.1059570312-2.6064453125-2.029296875-3.6630859375-.9248046875-1.0546875-2.0961914062-1.896484375-3.5146484375-2.5244140625-1.419921875-.6259765625-3.0859375-.9404296875-4.9995117188-.9404296875-3.5639648438,0-6.5834960938,1.0732421875-9.0581054688,3.2177734375-2.4750976562,2.1455078125-3.845703125,4.900390625-4.1088867188,8.2666015625h24.3540039062Z" style="fill: #fff;"/>
    <path d="M110.185546875,364.6351623535h11.3852539062v7.919921875h.1977539062c1.3193359375-2.7724609375,3.16796875-5.015625,5.5439453125-6.732421875,2.3759765625-1.7158203125,5.1479492188-2.57421875,8.3159179688-2.57421875,.4609375,0,.9560546875,.017578125,1.4853515625,.0498046875,.52734375,.0341796875,.9897460938,.1162109375,1.3857421875,.2470703125v10.890625c-.7919921875-.1982421875-1.4692382812-.330078125-2.029296875-.396484375-.5615234375-.064453125-1.1059570312-.0986328125-1.6337890625-.0986328125-2.70703125,0-4.884765625,.4951171875-6.5336914062,1.4853515625-1.650390625,.9892578125-2.9375,2.177734375-3.861328125,3.5634765625-.9248046875,1.3857421875-1.5512695312,2.8056640625-1.880859375,4.2568359375-.3310546875,1.453125-.4951171875,2.6083984375-.4951171875,3.46484375v25.443359375h-11.8798828125v-47.51953125Z" style="fill: #fff;"/>
    <path d="M172.2583007812,377.3070373535c-1.056640625-1.38671875-2.5092773438-2.58984375-4.3559570312-3.6142578125-1.8486328125-1.0224609375-3.8608398438-1.5341796875-6.0390625-1.5341796875-1.9150390625,0-3.6630859375,.396484375-5.2470703125,1.1884765625s-2.3759765625,2.1123046875-2.3759765625,3.9599609375c0,1.8486328125,.8740234375,3.15234375,2.6235351562,3.91015625,1.748046875,.759765625,4.306640625,1.5341796875,7.6723632812,2.326171875,1.7822265625,.396484375,3.5795898438,.92578125,5.3955078125,1.583984375,1.814453125,.6611328125,3.4653320312,1.53515625,4.9501953125,2.6240234375s2.6884765625,2.4423828125,3.61328125,4.05859375c.923828125,1.6181640625,1.3862304688,3.5810546875,1.3862304688,5.890625,0,2.9052734375-.5444335938,5.36328125-1.6337890625,7.3759765625-1.0888671875,2.013671875-2.5415039062,3.6474609375-4.3559570312,4.900390625-1.8159179688,1.25390625-3.9272460938,2.162109375-6.3359375,2.72265625-2.41015625,.5595703125-4.900390625,.8408203125-7.474609375,.8408203125-3.6967773438,0-7.2934570312-.677734375-10.791015625-2.029296875-3.4990234375-1.3515625-6.40234375-3.2822265625-8.7119140625-5.791015625l7.8212890625-7.326171875c1.3193359375,1.716796875,3.0346679688,3.1357421875,5.1479492188,4.2568359375,2.111328125,1.123046875,4.455078125,1.6826171875,7.0288085938,1.6826171875,.8569335938,0,1.732421875-.0986328125,2.6235351562-.296875s1.7153320312-.5107421875,2.4750976562-.9404296875c.7578125-.4287109375,1.369140625-1.005859375,1.8315429688-1.732421875,.4609375-.7255859375,.6928710938-1.6162109375,.6928710938-2.6728515625,0-1.98046875-.908203125-3.3984375-2.72265625-4.2568359375-1.8159179688-.857421875-4.5385742188-1.7158203125-8.1674804688-2.57421875-1.7817382812-.396484375-3.5141601562-.90625-5.197265625-1.5341796875-1.6831054688-.626953125-3.1850585938-1.451171875-4.5043945312-2.4755859375-1.3212890625-1.0224609375-2.3759765625-2.2919921875-3.16796875-3.8115234375-.7919921875-1.517578125-1.1879882812-3.3984375-1.1879882812-5.642578125,0-2.6396484375,.5444335938-4.916015625,1.6333007812-6.8310546875,1.0888671875-1.9140625,2.5244140625-3.48046875,4.306640625-4.703125,1.7817382812-1.2197265625,3.7944335938-2.1279296875,6.0390625-2.7216796875,2.2426757812-.5947265625,4.5537109375-.8916015625,6.9296875-.8916015625,3.4311523438,0,6.7817382812,.5947265625,10.048828125,1.7822265625,3.2666015625,1.1884765625,5.8564453125,3.00390625,7.771484375,5.4453125l-7.7221679688,6.8310546875Z" style="fill: #fff;"/>
    <path d="M187.4038085938,388.196685791c0-3.76171875,.6762695312-7.177734375,2.0297851562-10.24609375,1.3515625-3.0693359375,3.1831054688-5.693359375,5.494140625-7.87109375,2.3095703125-2.177734375,5.0493164062-3.8603515625,8.2172851562-5.048828125,3.16796875-1.1875,6.5336914062-1.7822265625,10.09765625-1.7822265625s6.9301757812,.5947265625,10.0981445312,1.7822265625c3.16796875,1.1884765625,5.9057617188,2.87109375,8.216796875,5.048828125,2.3095703125,2.177734375,4.1411132812,4.8017578125,5.4946289062,7.87109375,1.3520507812,3.068359375,2.0297851562,6.484375,2.0297851562,10.24609375s-.677734375,7.1943359375-2.0297851562,10.2958984375c-1.353515625,3.103515625-3.1850585938,5.7587890625-5.4946289062,7.9697265625-2.3110351562,2.2119140625-5.048828125,3.9443359375-8.216796875,5.197265625s-6.5341796875,1.880859375-10.0981445312,1.880859375-6.9296875-.6279296875-10.09765625-1.880859375-5.9077148438-2.9853515625-8.2172851562-5.197265625c-2.3110351562-2.2109375-4.142578125-4.8662109375-5.494140625-7.9697265625-1.353515625-3.1015625-2.0297851562-6.5341796875-2.0297851562-10.2958984375Zm12.078125,0c0,1.8486328125,.2797851562,3.697265625,.8413085938,5.5439453125,.5600585938,1.8486328125,1.4013671875,3.4990234375,2.5244140625,4.9501953125,1.1215820312,1.4521484375,2.5400390625,2.640625,4.2573242188,3.5634765625,1.7153320312,.92578125,3.76171875,1.38671875,6.1376953125,1.38671875s4.4213867188-.4609375,6.1381835938-1.38671875c1.7153320312-.9228515625,3.1337890625-2.111328125,4.2568359375-3.5634765625,1.1215820312-1.451171875,1.9633789062-3.1015625,2.5244140625-4.9501953125,.5600585938-1.8466796875,.841796875-3.6953125,.841796875-5.5439453125,0-1.8466796875-.2817382812-3.6787109375-.841796875-5.494140625-.5610351562-1.814453125-1.4028320312-3.4482421875-2.5244140625-4.900390625-1.123046875-1.451171875-2.5415039062-2.6240234375-4.2568359375-3.5146484375-1.716796875-.8916015625-3.7622070312-1.3369140625-6.1381835938-1.3369140625s-4.4223632812,.4453125-6.1376953125,1.3369140625c-1.7172851562,.890625-3.1357421875,2.0634765625-4.2573242188,3.5146484375-1.123046875,1.4521484375-1.9643554688,3.0859375-2.5244140625,4.900390625-.5615234375,1.8154296875-.8413085938,3.6474609375-.8413085938,5.494140625Z" style="fill: #fff;"/>
    <path d="M250.564453125,364.6351623535h11.2861328125v7.6220703125h.1977539062c1.0556640625-2.3759765625,2.8857421875-4.4697265625,5.4951171875-6.2861328125,2.60546875-1.814453125,5.69140625-2.72265625,9.255859375-2.72265625,3.1015625,0,5.7578125,.544921875,7.96875,1.6337890625s4.025390625,2.5244140625,5.4453125,4.306640625,2.458984375,3.828125,3.119140625,6.1376953125c.658203125,2.3115234375,.990234375,4.6875,.990234375,7.1279296875v29.7001953125h-11.880859375v-26.333984375c0-1.3857421875-.09765625-2.8369140625-.296875-4.3564453125-.197265625-1.5166015625-.626953125-2.8857421875-1.287109375-4.1083984375-.66015625-1.2197265625-1.568359375-2.2275390625-2.72265625-3.01953125s-2.689453125-1.1875-4.603515625-1.1875-3.5625,.380859375-4.94921875,1.138671875c-1.38671875,.7587890625-2.525390625,1.732421875-3.416015625,2.919921875-.890625,1.1884765625-1.568359375,2.55859375-2.029296875,4.1083984375-.462890625,1.5517578125-.693359375,3.119140625-.693359375,4.703125v26.1357421875h-11.8793945312v-47.51953125Z" style="fill: #fff;"/>
    <path d="M337.6831054688,406.1156311035h-.296875c-1.1884765625,2.11328125-3.103515625,3.845703125-5.7421875,5.197265625-2.640625,1.3525390625-5.642578125,2.0302734375-9.0087890625,2.0302734375-1.9150390625,0-3.91015625-.248046875-5.9892578125-.7431640625s-3.994140625-1.3193359375-5.7421875-2.474609375c-1.75-1.154296875-3.2021484375-2.6728515625-4.3564453125-4.5546875-1.1552734375-1.880859375-1.732421875-4.20703125-1.732421875-6.9794921875,0-3.5634765625,1.005859375-6.400390625,3.01953125-8.513671875,2.0126953125-2.111328125,4.603515625-3.7275390625,7.771484375-4.8505859375,3.16796875-1.1220703125,6.6826171875-1.8642578125,10.5439453125-2.2275390625,3.8603515625-.3623046875,7.638671875-.544921875,11.3349609375-.544921875v-1.1875c0-2.970703125-1.0732421875-5.1640625-3.216796875-6.583984375-2.1455078125-1.41796875-4.703125-2.1279296875-7.6728515625-2.1279296875-2.5087890625,0-4.91796875,.5283203125-7.2265625,1.583984375-2.3115234375,1.0556640625-4.224609375,2.3427734375-5.7421875,3.8603515625l-6.138671875-7.2265625c2.7060546875-2.5078125,5.82421875-4.388671875,9.35546875-5.6435546875,3.5302734375-1.2529296875,7.111328125-1.880859375,10.7421875-1.880859375,4.22265625,0,7.705078125,.5947265625,10.4443359375,1.7822265625,2.73828125,1.1884765625,4.900390625,2.7392578125,6.484375,4.6533203125,1.583984375,1.9150390625,2.6884765625,4.05859375,3.31640625,6.4345703125,.626953125,2.3759765625,.9404296875,4.751953125,.9404296875,7.1279296875v28.908203125h-11.087890625v-6.0390625Zm-.1982421875-15.6416015625h-2.6728515625c-1.9150390625,0-3.927734375,.0830078125-6.0390625,.2470703125-2.1123046875,.166015625-4.05859375,.529296875-5.8408203125,1.0888671875-1.7822265625,.5615234375-3.2666015625,1.353515625-4.455078125,2.3759765625-1.1875,1.0244140625-1.7822265625,2.42578125-1.7822265625,4.2080078125,0,1.123046875,.248046875,2.0634765625,.7431640625,2.8212890625,.4951171875,.759765625,1.138671875,1.3701171875,1.9306640625,1.8310546875,.7919921875,.462890625,1.6826171875,.7919921875,2.6728515625,.990234375,.9892578125,.1982421875,1.9794921875,.296875,2.9697265625,.296875,4.091796875,0,7.193359375-1.0888671875,9.3056640625-3.2666015625,2.111328125-2.177734375,3.16796875-5.1484375,3.16796875-8.91015625v-1.6826171875Z" style="fill: #fff;"/>
    <path d="M362.8286132812,337.3109436035h11.8798828125v74.84375h-11.8798828125v-74.84375Z" style="fill: #fff;"/>
    <path d="M387.6752929688,348.497467041c0-1.9130859375,.708984375-3.5791015625,2.12890625-4.9990234375,1.4189453125-1.4189453125,3.2177734375-2.12890625,5.3955078125-2.12890625s4.009765625,.677734375,5.494140625,2.029296875c1.4853515625,1.353515625,2.2275390625,3.0537109375,2.2275390625,5.0986328125,0,2.046875-.7421875,3.7470703125-2.2275390625,5.0986328125-1.484375,1.353515625-3.31640625,2.029296875-5.494140625,2.029296875s-3.9765625-.7080078125-5.3955078125-2.1279296875c-1.419921875-1.4189453125-2.12890625-3.0849609375-2.12890625-5Zm1.68359375,16.1376953125h11.8798828125v47.51953125h-11.8798828125v-47.51953125Z" style="fill: #fff;"/>
    <path d="M411.9301757812,401.6605529785l25.640625-27.521484375h-24.453125v-9.50390625h38.6103515625v10.4931640625l-25.740234375,27.32421875h26.927734375v9.7021484375h-40.9853515625v-10.494140625Z" style="fill: #fff;"/>
    <path d="M508.7514648438,388.9886779785v1.583984375c0,.529296875-.0341796875,1.056640625-.0986328125,1.583984375h-36.134765625c.130859375,1.716796875,.576171875,3.2841796875,1.3359375,4.7021484375,.7578125,1.4208984375,1.765625,2.640625,3.01953125,3.6630859375,1.2529296875,1.0244140625,2.6728515625,1.83203125,4.2568359375,2.42578125s3.2333984375,.890625,4.9501953125,.890625c2.9697265625,0,5.4775390625-.5439453125,7.5244140625-1.6328125,2.044921875-1.0888671875,3.7275390625-2.58984375,5.048828125-4.5048828125l7.919921875,6.3359375c-4.6875,6.3359375-11.484375,9.50390625-20.3935546875,9.50390625-3.697265625,0-7.095703125-.578125-10.197265625-1.732421875-3.103515625-1.1533203125-5.7919921875-2.787109375-8.068359375-4.900390625-2.27734375-2.111328125-4.0595703125-4.7021484375-5.3466796875-7.771484375s-1.9296875-6.5498046875-1.9296875-10.4443359375c0-3.8271484375,.642578125-7.3095703125,1.9296875-10.4443359375,1.287109375-3.1337890625,3.052734375-5.8076171875,5.296875-8.01953125,2.2431640625-2.2099609375,4.900390625-3.92578125,7.9697265625-5.1474609375,3.068359375-1.220703125,6.3857421875-1.83203125,9.94921875-1.83203125,3.2998046875,0,6.3515625,.544921875,9.1572265625,1.6337890625,2.8046875,1.0888671875,5.23046875,2.70703125,7.2763671875,4.8505859375,2.0458984375,2.1455078125,3.646484375,4.8193359375,4.8017578125,8.01953125,1.154296875,3.2021484375,1.732421875,6.947265625,1.732421875,11.236328125Zm-11.8798828125-5.345703125c0-1.517578125-.21484375-2.970703125-.6435546875-4.3564453125-.4296875-1.3857421875-1.10546875-2.6064453125-2.029296875-3.6630859375-.9248046875-1.0546875-2.095703125-1.896484375-3.5146484375-2.5244140625-1.419921875-.6259765625-3.0859375-.9404296875-4.9990234375-.9404296875-3.564453125,0-6.583984375,1.0732421875-9.05859375,3.2177734375-2.4755859375,2.1455078125-3.845703125,4.900390625-4.1083984375,8.2666015625h24.353515625Z" style="fill: #fff;"/>
  </g>
</svg>