<?xml version="1.0" encoding="UTF-8"?>
<svg id="Layer_1" data-name="Layer 1" xmlns="http://www.w3.org/2000/svg" viewBox="0 0 298.6801757812 390.085357666">
  <path d="M273.6124267578,161.0999755859l11.700012207-145.8000030518c0-1.8000068665-.9000549316-2.6999931335-2.700012207-2.6999931335L137.7123718262,0c-1.7999725342,0-3.6000061035,0-4.5,1.8000068665L24.3123855591,92.6999893188c-1.7999725342,1.8000106812-.8999862671,4.5,.8999862671,4.5l55.7999725342,9.8999862671c6.2999725342-36,39.6000137329-63.8999862671,78.2999725342-61.1999931335,38.7000274658,1.8000068665,70.2000274658,35.1000175476,71.0999450684,73.8000144958,.9000549316,41.3999786377-32.4000549316,76.5-73.7999725342,76.5v58.5c0,2.7000274658,2.7000274658,3.6000213623,4.5,1.7999725342l109.7999725342-90.8999938965c1.8001098633-.8999938965,2.7001647949-2.6999511719,2.7001647949-4.5h0Z" style="fill: #fff;"/>
  <path d="M155.7123718262,176.4000244141c30.5999450684,0,54.9000549316-24.2999725342,54.9000549316-54.8999862671s-24.2999725342-54.8999862671-54.8999938965-54.8999862671-54.8999862671,24.3000030518-54.8999862671,54.8999862671c-.0000686646,30.599937439,25.1998825073,54.8999862671,54.8999252319,54.8999862671Z" style="fill: #fff; isolation: isolate; opacity: .5;"/>
</svg>