<?xml version="1.0" encoding="UTF-8"?>
<svg id="Layer_1" data-name="Layer 1" xmlns="http://www.w3.org/2000/svg" viewBox="0 0 298.6801757812 390.085357666">
  <path d="M273.6124267578,161.0999755859l11.700012207-145.8000030518c0-1.8000068665-.9000549316-2.6999931335-2.700012207-2.6999931335L137.7123718262,0c-1.7999725342,0-3.6000061035,0-4.5,1.8000068665L24.3123855591,92.6999893188c-1.7999725342,1.8000106812-.8999862671,4.5,.8999862671,4.5l55.7999725342,9.8999862671c6.2999725342-36,39.6000137329-63.8999862671,78.2999725342-61.1999931335,38.7000274658,1.8000068665,70.2000274658,35.1000175476,71.0999450684,73.8000144958,.9000549316,41.3999786377-32.4000549316,76.5-73.7999725342,76.5v58.5c0,2.7000274658,2.7000274658,3.6000213623,4.5,1.7999725342l109.7999725342-90.8999938965c1.8001098633-.8999938965,2.7001647949-2.6999511719,2.7001647949-4.5h0Z" style="fill: #fff;"/>
  <path d="M155.7123718262,176.4000244141c30.5999450684,0,54.9000549316-24.2999725342,54.9000549316-54.8999862671s-24.2999725342-54.8999862671-54.8999938965-54.8999862671-54.8999862671,24.3000030518-54.8999862671,54.8999862671c-.0000686646,30.599937439,25.1998825073,54.8999862671,54.8999252319,54.8999862671Z" style="fill: #fff; isolation: isolate; opacity: .5;"/>
  <g>
    <path d="M40.9858398438,332.862701416c-1.3208007812-1.71484375-3.1850585938-3.150390625-5.5932617188-4.3056640625-2.41015625-1.154296875-4.8359375-1.732421875-7.2768554688-1.732421875-1.4521484375,0-2.9047851562,.181640625-4.3559570312,.5439453125-1.4521484375,.36328125-2.7719726562,.9248046875-3.9599609375,1.6826171875-1.1879882812,.759765625-2.1625976562,1.75-2.9204101562,2.970703125-.7592773438,1.2216796875-1.138671875,2.689453125-1.138671875,4.4052734375,0,1.583984375,.3295898438,2.9375,.990234375,4.05859375,.6586914062,1.123046875,1.5668945312,2.0791015625,2.72265625,2.87109375,1.1538085938,.7919921875,2.556640625,1.4853515625,4.2075195312,2.0791015625,1.6489257812,.59375,3.46484375,1.1884765625,5.4448242188,1.7822265625,2.2426757812,.7265625,4.5693359375,1.5517578125,6.9794921875,2.474609375,2.408203125,.92578125,4.619140625,2.1455078125,6.6328125,3.6630859375,2.0126953125,1.51953125,3.6630859375,3.4326171875,4.9501953125,5.7421875,1.287109375,2.3115234375,1.9306640625,5.181640625,1.9306640625,8.61328125,0,3.76171875-.693359375,7.0458984375-2.0791015625,9.8505859375-1.3862304688,2.8056640625-3.2348632812,5.1318359375-5.5439453125,6.9794921875-2.3110351562,1.8486328125-5.0166015625,3.234375-8.1181640625,4.158203125-3.1030273438,.9228515625-6.3701171875,1.3857421875-9.80078125,1.3857421875-4.5541992188,0-9.0092773438-.841796875-13.365234375-2.5244140625-4.3559570312-1.68359375-7.919921875-4.173828125-10.6918945312-7.474609375l8.9096679688-8.31640625c1.7158203125,2.3759765625,4.009765625,4.2568359375,6.880859375,5.6435546875,2.87109375,1.3857421875,5.6923828125,2.0791015625,8.4643554688,2.0791015625,1.451171875,0,2.9360351562-.181640625,4.455078125-.544921875,1.517578125-.3623046875,2.8862304688-.97265625,4.1083984375-1.8310546875,1.220703125-.857421875,2.2104492188-1.9306640625,2.9702148438-3.2177734375,.7578125-1.287109375,1.1381835938-2.88671875,1.1381835938-4.8017578125,0-1.8466796875-.4296875-3.3818359375-1.2866210938-4.603515625-.8588867188-1.220703125-2.0141601562-2.27734375-3.4653320312-3.16796875-1.4526367188-.890625-3.16796875-1.666015625-5.1479492188-2.326171875-1.9799804688-.6591796875-4.0590820312-1.3525390625-6.2368164062-2.0791015625-2.11328125-.6591796875-4.224609375-1.451171875-6.3359375-2.3759765625-2.11328125-.923828125-4.009765625-2.14453125-5.6928710938-3.6630859375-1.6826171875-1.517578125-3.0532226562-3.3818359375-4.1083984375-5.59375-1.056640625-2.2099609375-1.583984375-4.9658203125-1.583984375-8.2666015625,0-3.5634765625,.7426757812-6.6328125,2.2275390625-9.20703125s3.4311523438-4.7021484375,5.8408203125-6.384765625c2.4086914062-1.68359375,5.1484375-2.9365234375,8.2172851562-3.7626953125,3.0688476562-.82421875,6.1875-1.2373046875,9.35546875-1.2373046875,3.5639648438,0,7.1772460938,.6279296875,10.8403320312,1.880859375,3.6630859375,1.2548828125,6.8466796875,3.1357421875,9.5537109375,5.6435546875l-8.1181640625,8.9091796875Z" style="fill: #fff;"/>
    <path d="M106.8203125,365.1371154785v1.583984375c0,.529296875-.0341796875,1.056640625-.0991210938,1.583984375h-36.1352539062c.1318359375,1.716796875,.5771484375,3.2841796875,1.3364257812,4.7021484375,.7583007812,1.4208984375,1.7651367188,2.640625,3.01953125,3.6630859375,1.2529296875,1.0244140625,2.6733398438,1.83203125,4.2573242188,2.42578125s3.2329101562,.890625,4.9497070312,.890625c2.9702148438,0,5.4775390625-.5439453125,7.5244140625-1.6328125,2.044921875-1.0888671875,3.7275390625-2.58984375,5.048828125-4.5048828125l7.919921875,6.3359375c-4.6870117188,6.3359375-11.4838867188,9.50390625-20.3940429688,9.50390625-3.6967773438,0-7.095703125-.578125-10.1967773438-1.732421875-3.1030273438-1.1533203125-5.7915039062-2.787109375-8.0688476562-4.900390625-2.2768554688-2.111328125-4.05859375-4.7021484375-5.345703125-7.771484375s-1.9306640625-6.5498046875-1.9306640625-10.4443359375c0-3.8271484375,.6435546875-7.3095703125,1.9306640625-10.4443359375,1.287109375-3.1337890625,3.0517578125-5.8076171875,5.2963867188-8.01953125,2.2431640625-2.2099609375,4.900390625-3.92578125,7.9697265625-5.1474609375,3.0688476562-1.220703125,6.3852539062-1.83203125,9.94921875-1.83203125,3.2993164062,0,6.3515625,.544921875,9.1577148438,1.6337890625,2.8041992188,1.0888671875,5.2299804688,2.70703125,7.2763671875,4.8505859375,2.044921875,2.1455078125,3.6459960938,4.8193359375,4.8012695312,8.01953125,1.154296875,3.2021484375,1.7329101562,6.947265625,1.7329101562,11.236328125Zm-11.8803710938-5.345703125c0-1.517578125-.21484375-2.970703125-.6435546875-4.3564453125-.4296875-1.3857421875-1.1059570312-2.6064453125-2.029296875-3.6630859375-.9248046875-1.0546875-2.0961914062-1.896484375-3.5146484375-2.5244140625-1.419921875-.6259765625-3.0859375-.9404296875-4.9995117188-.9404296875-3.5639648438,0-6.5834960938,1.0732421875-9.0581054688,3.2177734375-2.4750976562,2.1455078125-3.845703125,4.900390625-4.1088867188,8.2666015625h24.3540039062Z" style="fill: #fff;"/>
    <path d="M147.2109375,382.2640686035h-.296875c-1.1879882812,2.11328125-3.1030273438,3.845703125-5.7421875,5.197265625-2.6401367188,1.3525390625-5.642578125,2.0302734375-9.0087890625,2.0302734375-1.9150390625,0-3.9106445312-.248046875-5.9897460938-.7431640625-2.0786132812-.4951171875-3.9936523438-1.3193359375-5.7416992188-2.474609375-1.7495117188-1.154296875-3.2021484375-2.6728515625-4.3559570312-4.5546875-1.1557617188-1.880859375-1.732421875-4.20703125-1.732421875-6.9794921875,0-3.5634765625,1.0053710938-6.400390625,3.01953125-8.513671875,2.0122070312-2.111328125,4.6030273438-3.7275390625,7.771484375-4.8505859375,3.16796875-1.1220703125,6.6821289062-1.8642578125,10.5434570312-2.2275390625,3.8608398438-.3623046875,7.6381835938-.544921875,11.3354492188-.544921875v-1.1875c0-2.970703125-1.0737304688-5.1640625-3.2177734375-6.583984375-2.1455078125-1.41796875-4.7021484375-2.1279296875-7.6723632812-2.1279296875-2.5087890625,0-4.9174804688,.5283203125-7.2270507812,1.583984375-2.3110351562,1.0556640625-4.224609375,2.3427734375-5.7416992188,3.8603515625l-6.1381835938-7.2265625c2.7055664062-2.5078125,5.8237304688-4.388671875,9.35546875-5.6435546875,3.5297851562-1.2529296875,7.1108398438-1.880859375,10.7416992188-1.880859375,4.22265625,0,7.7045898438,.5947265625,10.4443359375,1.7822265625,2.7377929688,1.1884765625,4.900390625,2.7392578125,6.484375,4.6533203125,1.583984375,1.9150390625,2.6879882812,4.05859375,3.3168945312,6.4345703125,.626953125,2.3759765625,.939453125,4.751953125,.939453125,7.1279296875v28.908203125h-11.0874023438v-6.0390625Zm-.1977539062-15.6416015625h-2.6733398438c-1.9150390625,0-3.9272460938,.0830078125-6.0385742188,.2470703125-2.11328125,.166015625-4.0590820312,.529296875-5.8413085938,1.0888671875-1.7817382812,.5615234375-3.2670898438,1.353515625-4.455078125,2.3759765625-1.1879882812,1.0244140625-1.7817382812,2.42578125-1.7817382812,4.2080078125,0,1.123046875,.2475585938,2.0634765625,.7421875,2.8212890625,.4951171875,.759765625,1.138671875,1.3701171875,1.9306640625,1.8310546875,.7919921875,.462890625,1.6831054688,.7919921875,2.6728515625,.990234375,.990234375,.1982421875,1.9799804688,.296875,2.9702148438,.296875,4.0913085938,0,7.1928710938-1.0888671875,9.3061523438-3.2666015625,2.111328125-2.177734375,3.16796875-5.1484375,3.16796875-8.91015625v-1.6826171875Z" style="fill: #fff;"/>
    <path d="M172.1577148438,340.7835998535h11.384765625v7.919921875h.1982421875c1.3193359375-2.7724609375,3.16796875-5.015625,5.5439453125-6.732421875,2.3759765625-1.7158203125,5.1484375-2.57421875,8.31640625-2.57421875,.4609375,0,.9560546875,.017578125,1.484375,.0498046875,.52734375,.0341796875,.990234375,.1162109375,1.38671875,.2470703125v10.890625c-.7919921875-.1982421875-1.4697265625-.330078125-2.0302734375-.396484375-.5615234375-.064453125-1.10546875-.0986328125-1.6328125-.0986328125-2.70703125,0-4.8857421875,.4951171875-6.5341796875,1.4853515625-1.650390625,.9892578125-2.9375,2.177734375-3.861328125,3.5634765625-.9248046875,1.3857421875-1.5517578125,2.8056640625-1.880859375,4.2568359375-.3310546875,1.453125-.4951171875,2.6083984375-.4951171875,3.46484375v25.443359375h-11.8798828125v-47.51953125Z" style="fill: #fff;"/>
    <path d="M238.8842773438,353.950592041c-.9248046875-1.3203125-2.310546875-2.42578125-4.1572265625-3.3173828125-1.8486328125-.890625-3.7294921875-1.3359375-5.6435546875-1.3359375-2.177734375,0-4.0927734375,.4453125-5.7421875,1.3359375-1.650390625,.8916015625-3.01953125,2.0634765625-4.1083984375,3.5146484375-1.0888671875,1.453125-1.8974609375,3.0859375-2.4248046875,4.900390625-.529296875,1.81640625-.7919921875,3.6474609375-.7919921875,5.4951171875,0,1.8486328125,.279296875,3.6796875,.8408203125,5.494140625,.560546875,1.81640625,1.4013671875,3.44921875,2.5244140625,4.900390625,1.1220703125,1.453125,2.5244140625,2.6240234375,4.2080078125,3.5146484375,1.6826171875,.890625,3.6455078125,1.3369140625,5.890625,1.3369140625,1.8466796875,0,3.6953125-.3623046875,5.5439453125-1.0888671875,1.8466796875-.7255859375,3.33203125-1.7822265625,4.455078125-3.1689453125l7.4248046875,7.5244140625c-1.98046875,2.11328125-4.5048828125,3.7470703125-7.5732421875,4.900390625-3.0693359375,1.154296875-6.3857421875,1.732421875-9.9501953125,1.732421875-3.4990234375,0-6.8154296875-.5615234375-9.94921875-1.6826171875-3.1357421875-1.1220703125-5.875-2.7724609375-8.216796875-4.9501953125-2.34375-2.177734375-4.1923828125-4.8173828125-5.5439453125-7.919921875-1.353515625-3.1015625-2.029296875-6.6328125-2.029296875-10.5927734375,0-3.8271484375,.67578125-7.2919921875,2.029296875-10.3955078125,1.3515625-3.1015625,3.18359375-5.7421875,5.494140625-7.919921875,2.3095703125-2.177734375,5-3.8603515625,8.068359375-5.048828125,3.0693359375-1.1875,6.3515625-1.7822265625,9.8505859375-1.7822265625,3.498046875,0,6.880859375,.6611328125,10.1474609375,1.98046875,3.267578125,1.3212890625,5.8564453125,3.1357421875,7.771484375,5.4443359375l-8.1181640625,7.12890625Z" style="fill: #fff;"/>
    <path d="M281.1567382812,339.3968811035c3.1015625,0,5.7578125,.544921875,7.9697265625,1.6337890625,2.2109375,1.0888671875,4.025390625,2.5244140625,5.4453125,4.306640625,1.41796875,1.7822265625,2.4580078125,3.828125,3.1181640625,6.1376953125,.6591796875,2.3115234375,.990234375,4.6875,.990234375,7.1279296875v29.7001953125h-11.8798828125v-26.1357421875c0-1.38671875-.0986328125-2.8212890625-.296875-4.306640625s-.611328125-2.8369140625-1.2373046875-4.0595703125c-.62890625-1.2197265625-1.51953125-2.2265625-2.673828125-3.01953125-1.1552734375-.7919921875-2.689453125-1.1875-4.603515625-1.1875-1.9150390625,0-3.5634765625,.36328125-4.94921875,1.0888671875-1.38671875,.7275390625-2.5419921875,1.7001953125-3.4658203125,2.9208984375-.9248046875,1.2216796875-1.6171875,2.5908203125-2.078125,4.1083984375-.462890625,1.5185546875-.693359375,3.068359375-.693359375,4.65234375v25.9384765625h-11.8798828125v-74.84375h11.8798828125v33.95703125h.1982421875c.4609375-.990234375,1.138671875-1.962890625,2.029296875-2.9208984375,.890625-.9560546875,1.9306640625-1.814453125,3.1181640625-2.57421875,1.1884765625-.7578125,2.5400390625-1.3681640625,4.0595703125-1.8310546875,1.517578125-.4609375,3.16796875-.693359375,4.94921875-.693359375Z" style="fill: #fff;"/>
  </g>
</svg>