<?xml version="1.0" encoding="UTF-8"?>
<svg id="Layer_1" data-name="Layer 1" xmlns="http://www.w3.org/2000/svg" viewBox="0 0 270.1391601113 402.433807373">
  <path d="M1.0392198113,168.3000335693L238.6391601113,.0000343323,71.2391814736,198.9000549316,1.0391511468,173.7000274658c-.8999176025-1.7999725342-1.7999038696-4.5,.0000686646-5.3999786377h0v-.0000152588Z" style="fill: #fff; isolation: isolate; opacity: .5;"/>
  <path d="M55.0392188577,256.5L270.1391601113,0V266.3999938965c0,1.7999572754-1.799987793,3.6000061035-4.5,2.7000427246l-99-36-108.8999862671,28.799987793c-2.6999588013,.9000549316-5.3999862671-2.6999511719-2.6999588013-5.3999938965h0l.0000038147-.0000305176Z" style="fill: #fff;"/>
  <g>
    <path d="M70.4937285928,345.211151123c-1.3208007812-1.71484375-3.1850585938-3.150390625-5.5932617188-4.3056640625-2.41015625-1.154296875-4.8359375-1.732421875-7.2768554688-1.732421875-1.4521484375,0-2.9047851562,.181640625-4.3559570312,.5439453125-1.4521484375,.36328125-2.7719726562,.9248046875-3.9599609375,1.6826171875-1.1879882812,.759765625-2.1625976562,1.75-2.9204101562,2.970703125-.7592773438,1.2216796875-1.138671875,2.689453125-1.138671875,4.4052734375,0,1.583984375,.3295898438,2.9375,.990234375,4.05859375,.6586914062,1.123046875,1.5668945312,2.0791015625,2.72265625,2.87109375,1.1538085938,.7919921875,2.556640625,1.4853515625,4.2075195312,2.0791015625,1.6489257812,.59375,3.46484375,1.1884765625,5.4448242188,1.7822265625,2.2426757812,.7265625,4.5693359375,1.5517578125,6.9794921875,2.474609375,2.408203125,.92578125,4.619140625,2.1455078125,6.6328125,3.6630859375,2.0126953125,1.51953125,3.6630859375,3.4326171875,4.9501953125,5.7421875,1.287109375,2.3115234375,1.9306640625,5.181640625,1.9306640625,8.61328125,0,3.76171875-.693359375,7.0458984375-2.0791015625,9.8505859375-1.3862304688,2.8056640625-3.2348632812,5.1318359375-5.5439453125,6.9794921875-2.3110351562,1.8486328125-5.0166015625,3.234375-8.1181640625,4.158203125-3.1030273438,.9228515625-6.3701171875,1.3857421875-9.80078125,1.3857421875-4.5541992188,0-9.0092773438-.841796875-13.365234375-2.5244140625-4.3559570312-1.68359375-7.919921875-4.173828125-10.6918945312-7.474609375l8.9096679688-8.31640625c1.7158203125,2.3759765625,4.009765625,4.2568359375,6.880859375,5.6435546875,2.87109375,1.3857421875,5.6923828125,2.0791015625,8.4643554688,2.0791015625,1.451171875,0,2.9360351562-.181640625,4.455078125-.544921875,1.517578125-.3623046875,2.8862304688-.97265625,4.1083984375-1.8310546875,1.220703125-.857421875,2.2104492188-1.9306640625,2.9702148438-3.2177734375,.7578125-1.287109375,1.1381835938-2.88671875,1.1381835938-4.8017578125,0-1.8466796875-.4296875-3.3818359375-1.2866210938-4.603515625-.8588867188-1.220703125-2.0141601562-2.27734375-3.4653320312-3.16796875-1.4526367188-.890625-3.16796875-1.666015625-5.1479492188-2.326171875-1.9799804688-.6591796875-4.0590820312-1.3525390625-6.2368164062-2.0791015625-2.11328125-.6591796875-4.224609375-1.451171875-6.3359375-2.3759765625-2.11328125-.923828125-4.009765625-2.14453125-5.6928710938-3.6630859375-1.6826171875-1.517578125-3.0532226562-3.3818359375-4.1083984375-5.59375-1.056640625-2.2099609375-1.583984375-4.9658203125-1.583984375-8.2666015625,0-3.5634765625,.7426757812-6.6328125,2.2275390625-9.20703125s3.4311523438-4.7021484375,5.8408203125-6.384765625c2.4086914062-1.68359375,5.1484375-2.9365234375,8.2172851562-3.7626953125,3.0688476562-.82421875,6.1875-1.2373046875,9.35546875-1.2373046875,3.5639648438,0,7.1772460938,.6279296875,10.8403320312,1.880859375,3.6630859375,1.2548828125,6.8466796875,3.1357421875,9.5537109375,5.6435546875l-8.1181640625,8.9091796875Z" style="fill: #fff;"/>
    <path d="M136.328201249,377.4855651855v1.583984375c0,.529296875-.0341796875,1.056640625-.0991210938,1.583984375h-36.1352539062c.1318359375,1.716796875,.5771484375,3.2841796875,1.3364257812,4.7021484375,.7583007812,1.4208984375,1.7651367188,2.640625,3.01953125,3.6630859375,1.2529296875,1.0244140625,2.6733398438,1.83203125,4.2573242188,2.42578125s3.2329101562,.890625,4.9497070312,.890625c2.9702148438,0,5.4775390625-.5439453125,7.5244140625-1.6328125,2.044921875-1.0888671875,3.7275390625-2.58984375,5.048828125-4.5048828125l7.919921875,6.3359375c-4.6870117188,6.3359375-11.4838867188,9.50390625-20.3940429688,9.50390625-3.6967773438,0-7.095703125-.578125-10.1967773438-1.732421875-3.1030273438-1.1533203125-5.7915039062-2.787109375-8.0688476562-4.900390625-2.2768554688-2.111328125-4.05859375-4.7021484375-5.345703125-7.771484375s-1.9306640625-6.5498046875-1.9306640625-10.4443359375c0-3.8271484375,.6435546875-7.3095703125,1.9306640625-10.4443359375,1.287109375-3.1337890625,3.0517578125-5.8076171875,5.2963867188-8.01953125,2.2431640625-2.2099609375,4.900390625-3.92578125,7.9697265625-5.1474609375,3.0688476562-1.220703125,6.3852539062-1.83203125,9.94921875-1.83203125,3.2993164062,0,6.3515625,.544921875,9.1577148438,1.6337890625,2.8041992188,1.0888671875,5.2299804688,2.70703125,7.2763671875,4.8505859375,2.044921875,2.1455078125,3.6459960938,4.8193359375,4.8012695312,8.01953125,1.154296875,3.2021484375,1.7329101562,6.947265625,1.7329101562,11.236328125Zm-11.8803710938-5.345703125c0-1.517578125-.21484375-2.970703125-.6435546875-4.3564453125-.4296875-1.3857421875-1.1059570312-2.6064453125-2.029296875-3.6630859375-.9248046875-1.0546875-2.0961914062-1.896484375-3.5146484375-2.5244140625-1.419921875-.6259765625-3.0859375-.9404296875-4.9995117188-.9404296875-3.5639648438,0-6.5834960938,1.0732421875-9.0581054688,3.2177734375-2.4750976562,2.1455078125-3.845703125,4.900390625-4.1088867188,8.2666015625h24.3540039062Z" style="fill: #fff;"/>
    <path d="M147.8111114053,353.1320495605h11.2861328125v7.6220703125h.1982421875c1.0546875-2.3759765625,2.8857421875-4.4697265625,5.494140625-6.2861328125,2.6064453125-1.814453125,5.6923828125-2.72265625,9.2568359375-2.72265625,3.1015625,0,5.7568359375,.544921875,7.96875,1.6337890625,2.2109375,1.0888671875,4.025390625,2.5244140625,5.4453125,4.306640625,1.4189453125,1.7822265625,2.4580078125,3.828125,3.119140625,6.1376953125,.658203125,2.3115234375,.9892578125,4.6875,.9892578125,7.1279296875v29.7001953125h-11.8798828125v-26.333984375c0-1.3857421875-.0986328125-2.8369140625-.296875-4.3564453125-.1982421875-1.5166015625-.6279296875-2.8857421875-1.287109375-4.1083984375-.66015625-1.2197265625-1.568359375-2.2275390625-2.72265625-3.01953125-1.1552734375-.7919921875-2.689453125-1.1875-4.603515625-1.1875-1.9150390625,0-3.5634765625,.380859375-4.94921875,1.138671875-1.38671875,.7587890625-2.525390625,1.732421875-3.416015625,2.919921875-.890625,1.1884765625-1.568359375,2.55859375-2.029296875,4.1083984375-.462890625,1.5517578125-.693359375,3.119140625-.693359375,4.703125v26.1357421875h-11.8798828125v-47.51953125Z" style="fill: #fff;"/>
    <path d="M253.7398223428,400.6515808105h-11.2861328125v-7.1279296875h-.1982421875c-1.650390625,2.771484375-3.9443359375,4.884765625-6.880859375,6.3359375-2.9375,1.451171875-6.087890625,2.177734375-9.4541015625,2.177734375-3.630859375,0-6.880859375-.677734375-9.751953125-2.029296875s-5.3134765625-3.16796875-7.3251953125-5.4453125c-2.0146484375-2.2763671875-3.564453125-4.94921875-4.6533203125-8.0185546875s-1.6337890625-6.3515625-1.6337890625-9.8505859375c0-3.4970703125,.560546875-6.7646484375,1.68359375-9.80078125,1.12109375-3.03515625,2.705078125-5.67578125,4.751953125-7.919921875,2.044921875-2.2431640625,4.4873046875-4.009765625,7.3251953125-5.296875,2.8369140625-1.287109375,5.9404296875-1.9306640625,9.306640625-1.9306640625,2.177734375,0,4.1240234375,.248046875,5.8408203125,.7431640625,1.7158203125,.494140625,3.2177734375,1.10546875,4.5048828125,1.8310546875,1.2861328125,.7275390625,2.390625,1.51953125,3.31640625,2.3759765625,.9228515625,.8583984375,1.6826171875,1.6826171875,2.2763671875,2.474609375h.296875v-33.3623046875h11.880859375v74.84375Zm-39.10546875-23.9580078125c0,1.8486328125,.2802734375,3.697265625,.841796875,5.5439453125,.5595703125,1.8486328125,1.4013671875,3.4990234375,2.5244140625,4.9501953125,1.12109375,1.4521484375,2.5400390625,2.640625,4.2568359375,3.5634765625,1.7158203125,.92578125,3.7275390625,1.38671875,6.0390625,1.38671875,2.177734375,0,4.1240234375-.4462890625,5.8408203125-1.3369140625,1.7158203125-.890625,3.18359375-2.0615234375,4.4052734375-3.5146484375,1.220703125-1.451171875,2.14453125-3.083984375,2.7724609375-4.900390625,.6259765625-1.814453125,.9404296875-3.6455078125,.9404296875-5.494140625,0-1.84765625-.314453125-3.6953125-.9404296875-5.5439453125-.6279296875-1.84765625-1.5517578125-3.498046875-2.7724609375-4.9501953125-1.2216796875-1.451171875-2.689453125-2.638671875-4.4052734375-3.564453125-1.716796875-.9228515625-3.6630859375-1.3857421875-5.8408203125-1.3857421875-2.3115234375,0-4.3232421875,.4453125-6.0390625,1.3369140625-1.716796875,.890625-3.1357421875,2.0634765625-4.2568359375,3.5146484375-1.123046875,1.4521484375-1.96484375,3.0859375-2.5244140625,4.900390625-.5615234375,1.8154296875-.841796875,3.6474609375-.841796875,5.494140625Z" style="fill: #fff;"/>
  </g>
</svg>