<?xml version="1.0" encoding="UTF-8"?>
<svg id="Layer_1" data-name="Layer 1" xmlns="http://www.w3.org/2000/svg" viewBox="0 0 449.4555664062 405.6150512695">
  <path d="M94.0946121216,227.9250488281l39.6000137329,39.6000061035c1.7999725342,1.7999572754,3.6000213623,2.7000427246,5.3999786377,2.7000427246s3.6000061035-.8999938965,5.3999938965-2.700012207c23.3999938965-23.3999938965,54.8999938965-36,86.3999938965-36,31.5000610352,0,62.1000061035,11.7000274658,86.3999938965,36,1.7999572754,1.799987793,3.5999450684,2.700012207,5.4000549316,2.700012207s3.5999450684-.8999938965,5.4000549316-2.700012207l39.5999450684-39.6000061035c5.4000549316-5.3999938965,5.4000549316-14.3999938965,0-19.7999725342l-95.4000549316-91.7999725342c-11.7000427246-11.6999969482-27-18-43.2000274658-18-15.2999725342,0-31.5,6.3000030518-43.2000274658,18l-91.7999725342,92.7000274658c-5.3999176025,5.3999176025-5.3999176025,13.4998626709,.0000686646,18.8999176025l-.0000152588-.0000305176Z" style="fill: #fff;"/>
  <path d="M151.6946258545,118.1250076294l18.8999786377-18.8999862671c16.2000274658-16.1999969482,36.8999938965-24.3000030518,59.3999938965-24.3000030518s43.2000427246,9,59.4000549316,24.3000030518l18.9000549316,18.8999862671,62.0999450684-62.1000137329c2.700012207-2.6999931335,2.700012207-8.1000137329,0-10.8000068665L326.294708252,2.0249948502c-2.7000427246-2.6999931335-8.0999450684-2.6999931335-10.7999572754,0-47.700012207,47.6999921799-124.2000274658,47.6999921799-171.8999938965,0-2.7000274658-2.6999931335-8.1000061035-2.6999931335-10.7999725342,0l-43.2000274658,43.1999921799c-2.7000274658,2.6999931335-2.7000274658,8.1000137329,0,10.8000068665l62.0998840332,62.1000137329h-.0000152588Z" style="fill: #fff; isolation: isolate; opacity: .5;"/>
  <g>
    <path d="M24.2548828125,366.410949707L2.4750976562,333.741027832h15.0478515625l14.4541015625,23.9580078125,14.255859375-23.9580078125h14.3549804688l-21.3837890625,32.966796875,25.1459960938,37.125h-15.7412109375l-17.126953125-27.5224609375-16.4340820312,27.5224609375H0l24.2548828125-37.421875Z" style="fill: #fff;"/>
    <path d="M72.4672851562,333.741027832h19.5029296875l18.2158203125,49.796875h.296875l18.0180664062-49.796875h19.6020507812v70.091796875h-12.375v-56.3310546875h-.1977539062l-21.28515625,56.3310546875h-8.7119140625l-20.98828125-56.3310546875h-.1977539062v56.3310546875h-11.8798828125v-70.091796875Z" style="fill: #fff;"/>
    <path d="M238.8852539062,350.174621582c-1.84765625-2.5068359375-4.2563476562-4.3388671875-7.2265625-5.494140625-2.9702148438-1.154296875-5.875-1.732421875-8.7119140625-1.732421875-3.6303710938,0-6.9301757812,.66015625-9.8999023438,1.9794921875-2.9702148438,1.3212890625-5.5288085938,3.1357421875-7.6728515625,5.4453125-2.1455078125,2.310546875-3.7958984375,5.0166015625-4.9497070312,8.1181640625-1.1557617188,3.1025390625-1.732421875,6.46875-1.732421875,10.09765625,0,3.8291015625,.5595703125,7.326171875,1.6826171875,10.494140625,1.1215820312,3.16796875,2.72265625,5.890625,4.8017578125,8.16796875,2.0791015625,2.2763671875,4.5693359375,4.04296875,7.474609375,5.2958984375,2.9033203125,1.2548828125,6.1704101562,1.880859375,9.80078125,1.880859375,3.7622070312,0,7.0942382812-.7421875,9.9990234375-2.2275390625,2.9033203125-1.484375,5.2470703125-3.447265625,7.029296875-5.890625l9.9990234375,7.029296875c-3.103515625,3.8955078125-6.8974609375,6.9150390625-11.3857421875,9.05859375-4.4887695312,2.1435546875-9.7353515625,3.2177734375-15.7407226562,3.2177734375-5.4790039062,0-10.5107421875-.908203125-15.0971679688-2.72265625-4.5883789062-1.814453125-8.53125-4.3564453125-11.8305664062-7.623046875-3.3012695312-3.2666015625-5.875-7.16015625-7.7221679688-11.681640625-1.8486328125-4.5205078125-2.7719726562-9.51953125-2.7719726562-14.9990234375,0-5.6083984375,.9731445312-10.6748046875,2.9204101562-15.1962890625,1.9462890625-4.5205078125,4.619140625-8.365234375,8.0190429688-11.533203125,3.3984375-3.16796875,7.408203125-5.609375,12.0288085938-7.326171875,4.6186523438-1.7158203125,9.6352539062-2.57421875,15.0478515625-2.57421875,2.2426757812,0,4.5864257812,.21484375,7.0288085938,.6435546875,2.4409179688,.4296875,4.7846679688,1.0888671875,7.0288085938,1.9794921875,2.2431640625,.8916015625,4.3564453125,1.9970703125,6.3359375,3.3173828125,1.98046875,1.3203125,3.6630859375,2.904296875,5.0498046875,4.751953125l-9.5048828125,7.5234375Z" style="fill: #fff;"/>
    <path d="M256.8051757812,328.989074707h11.8798828125v74.84375h-11.8798828125v-74.84375Z" style="fill: #fff;"/>
    <path d="M280.3657226562,379.8748168945c0-3.76171875,.67578125-7.177734375,2.029296875-10.24609375,1.3515625-3.0693359375,3.18359375-5.693359375,5.494140625-7.87109375,2.3095703125-2.177734375,5.048828125-3.8603515625,8.216796875-5.048828125,3.16796875-1.1875,6.5341796875-1.7822265625,10.0986328125-1.7822265625,3.5634765625,0,6.9296875,.5947265625,10.09765625,1.7822265625,3.16796875,1.1884765625,5.90625,2.87109375,8.216796875,5.048828125,2.3095703125,2.177734375,4.1416015625,4.8017578125,5.4951171875,7.87109375,1.3515625,3.068359375,2.029296875,6.484375,2.029296875,10.24609375s-.677734375,7.1943359375-2.029296875,10.2958984375c-1.353515625,3.103515625-3.185546875,5.7587890625-5.4951171875,7.9697265625-2.310546875,2.2119140625-5.048828125,3.9443359375-8.216796875,5.197265625s-6.5341796875,1.880859375-10.09765625,1.880859375c-3.564453125,0-6.9306640625-.6279296875-10.0986328125-1.880859375s-5.9072265625-2.9853515625-8.216796875-5.197265625c-2.310546875-2.2109375-4.142578125-4.8662109375-5.494140625-7.9697265625-1.353515625-3.1015625-2.029296875-6.5341796875-2.029296875-10.2958984375Zm12.0771484375,0c0,1.8486328125,.2802734375,3.697265625,.841796875,5.5439453125,.560546875,1.8486328125,1.4013671875,3.4990234375,2.5244140625,4.9501953125,1.1220703125,1.4521484375,2.5400390625,2.640625,4.2568359375,3.5634765625,1.7158203125,.92578125,3.7626953125,1.38671875,6.138671875,1.38671875s4.4208984375-.4609375,6.1376953125-1.38671875c1.7158203125-.9228515625,3.1337890625-2.111328125,4.2568359375-3.5634765625,1.1220703125-1.451171875,1.962890625-3.1015625,2.5244140625-4.9501953125,.560546875-1.8466796875,.841796875-3.6953125,.841796875-5.5439453125,0-1.8466796875-.28125-3.6787109375-.841796875-5.494140625-.5615234375-1.814453125-1.40234375-3.4482421875-2.5244140625-4.900390625-1.123046875-1.451171875-2.541015625-2.6240234375-4.2568359375-3.5146484375-1.716796875-.8916015625-3.76171875-1.3369140625-6.1376953125-1.3369140625s-4.4228515625,.4453125-6.138671875,1.3369140625c-1.716796875,.890625-3.134765625,2.0634765625-4.2568359375,3.5146484375-1.123046875,1.4521484375-1.9638671875,3.0859375-2.5244140625,4.900390625-.5615234375,1.8154296875-.841796875,3.6474609375-.841796875,5.494140625Z" style="fill: #fff;"/>
    <path d="M386.8881835938,403.832824707h-11.2861328125v-7.623046875h-.1982421875c-1.056640625,2.3759765625-2.8876953125,4.4716796875-5.494140625,6.2861328125-2.6083984375,1.814453125-5.6923828125,2.72265625-9.2568359375,2.72265625-3.1025390625,0-5.7587890625-.5439453125-7.9697265625-1.6328125-2.2119140625-1.08984375-4.0263671875-2.525390625-5.4443359375-4.306640625-1.419921875-1.7822265625-2.4599609375-3.8271484375-3.119140625-6.138671875-.66015625-2.3095703125-.9892578125-4.685546875-.9892578125-7.1279296875v-29.69921875h11.8798828125v26.333984375c0,1.3857421875,.0986328125,2.837890625,.296875,4.35546875,.1982421875,1.51953125,.6259765625,2.8876953125,1.287109375,4.1083984375,.658203125,1.22265625,1.56640625,2.2275390625,2.72265625,3.01953125,1.1533203125,.7919921875,2.6884765625,1.1884765625,4.603515625,1.1884765625,1.8466796875,0,3.48046875-.37890625,4.900390625-1.138671875,1.41796875-.7578125,2.5732421875-1.732421875,3.46484375-2.9208984375,.890625-1.1875,1.56640625-2.556640625,2.029296875-4.1083984375,.4609375-1.5498046875,.693359375-3.1181640625,.693359375-4.7021484375v-26.1357421875h11.8798828125v47.51953125Z" style="fill: #fff;"/>
    <path d="M449.4555664062,403.832824707h-11.2861328125v-7.1279296875h-.1982421875c-1.650390625,2.771484375-3.9443359375,4.884765625-6.880859375,6.3359375-2.9375,1.451171875-6.087890625,2.177734375-9.4541015625,2.177734375-3.630859375,0-6.880859375-.677734375-9.751953125-2.029296875s-5.3134765625-3.16796875-7.3251953125-5.4453125c-2.0146484375-2.2763671875-3.564453125-4.94921875-4.6533203125-8.0185546875s-1.6337890625-6.3515625-1.6337890625-9.8505859375c0-3.4970703125,.560546875-6.7646484375,1.68359375-9.80078125,1.12109375-3.03515625,2.705078125-5.67578125,4.751953125-7.919921875,2.044921875-2.2431640625,4.4873046875-4.009765625,7.3251953125-5.296875,2.8369140625-1.287109375,5.9404296875-1.9306640625,9.306640625-1.9306640625,2.177734375,0,4.1240234375,.248046875,5.8408203125,.7431640625,1.7158203125,.494140625,3.2177734375,1.10546875,4.5048828125,1.8310546875,1.2861328125,.7275390625,2.390625,1.51953125,3.31640625,2.3759765625,.9228515625,.8583984375,1.6826171875,1.6826171875,2.2763671875,2.474609375h.296875v-33.3623046875h11.880859375v74.84375Zm-39.10546875-23.9580078125c0,1.8486328125,.2802734375,3.697265625,.841796875,5.5439453125,.5595703125,1.8486328125,1.4013671875,3.4990234375,2.5244140625,4.9501953125,1.12109375,1.4521484375,2.5400390625,2.640625,4.2568359375,3.5634765625,1.7158203125,.92578125,3.7275390625,1.38671875,6.0390625,1.38671875,2.177734375,0,4.1240234375-.4462890625,5.8408203125-1.3369140625,1.7158203125-.890625,3.18359375-2.0615234375,4.4052734375-3.5146484375,1.220703125-1.451171875,2.14453125-3.083984375,2.7724609375-4.900390625,.6259765625-1.814453125,.9404296875-3.6455078125,.9404296875-5.494140625,0-1.84765625-.314453125-3.6953125-.9404296875-5.5439453125-.6279296875-1.84765625-1.5517578125-3.498046875-2.7724609375-4.9501953125-1.2216796875-1.451171875-2.689453125-2.638671875-4.4052734375-3.564453125-1.716796875-.9228515625-3.6630859375-1.3857421875-5.8408203125-1.3857421875-2.3115234375,0-4.3232421875,.4453125-6.0390625,1.3369140625-1.716796875,.890625-3.1357421875,2.0634765625-4.2568359375,3.5146484375-1.123046875,1.4521484375-1.96484375,3.0859375-2.5244140625,4.900390625-.5615234375,1.8154296875-.841796875,3.6474609375-.841796875,5.494140625Z" style="fill: #fff;"/>
  </g>
</svg>