<?xml version="1.0" encoding="UTF-8"?>
<svg id="Layer_1" data-name="Layer 1" xmlns="http://www.w3.org/2000/svg" viewBox="0 0 449.4555664062 405.6150512695">
  <path d="M94.0946121216,227.9250488281l39.6000137329,39.6000061035c1.7999725342,1.7999572754,3.6000213623,2.7000427246,5.3999786377,2.7000427246s3.6000061035-.8999938965,5.3999938965-2.700012207c23.3999938965-23.3999938965,54.8999938965-36,86.3999938965-36,31.5000610352,0,62.1000061035,11.7000274658,86.3999938965,36,1.7999572754,1.799987793,3.5999450684,2.700012207,5.4000549316,2.700012207s3.5999450684-.8999938965,5.4000549316-2.700012207l39.5999450684-39.6000061035c5.4000549316-5.3999938965,5.4000549316-14.3999938965,0-19.7999725342l-95.4000549316-91.7999725342c-11.7000427246-11.6999969482-27-18-43.2000274658-18-15.2999725342,0-31.5,6.3000030518-43.2000274658,18l-91.7999725342,92.7000274658c-5.3999176025,5.3999176025-5.3999176025,13.4998626709,.0000686646,18.8999176025l-.0000152588-.0000305176Z" style="fill: #fff;"/>
  <path d="M151.6946258545,118.1250076294l18.8999786377-18.8999862671c16.2000274658-16.1999969482,36.8999938965-24.3000030518,59.3999938965-24.3000030518s43.2000427246,9,59.4000549316,24.3000030518l18.9000549316,18.8999862671,62.0999450684-62.1000137329c2.700012207-2.6999931335,2.700012207-8.1000137329,0-10.8000068665L326.294708252,2.0249948502c-2.7000427246-2.6999931335-8.0999450684-2.6999931335-10.7999572754,0-47.700012207,47.6999921799-124.2000274658,47.6999921799-171.8999938965,0-2.7000274658-2.6999931335-8.1000061035-2.6999931335-10.7999725342,0l-43.2000274658,43.1999921799c-2.7000274658,2.6999931335-2.7000274658,8.1000137329,0,10.8000068665l62.0998840332,62.1000137329h-.0000152588Z" style="fill: #fff; isolation: isolate; opacity: .5;"/>
</svg>